# Blender v2.90.1 OBJ File: 'PrimerPiso.blend'
# www.blender.org
mtllib buro.mtl
o Cubo.003
v 319.155457 3.381595 29.703190
v 319.638947 5.903848 29.709862
v 319.154510 3.376718 31.614159
v 319.638000 5.898971 31.620831
v 318.708252 3.467319 29.703190
v 319.191742 5.989572 29.709862
v 318.707306 3.462442 31.614159
v 319.190796 5.984695 31.620831
v 318.862854 6.742690 32.188450
v 318.861115 6.742690 32.315559
v 318.860168 6.715353 32.188416
v 318.858429 6.715353 32.315521
v 318.852203 6.689067 32.188305
v 318.850433 6.689067 32.315414
v 318.839264 6.664842 32.188126
v 318.837494 6.664842 32.315235
v 318.821838 6.643608 32.187885
v 318.820068 6.643608 32.314995
v 318.800598 6.626182 32.187592
v 318.798859 6.626182 32.314701
v 318.776367 6.613234 32.187256
v 318.774628 6.613234 32.314365
v 318.750092 6.605260 32.186893
v 318.748352 6.605260 32.314003
v 318.722748 6.602567 32.186516
v 318.721008 6.602567 32.313625
v 318.695435 6.605259 32.186138
v 318.693665 6.605259 32.313248
v 318.669128 6.613234 32.185776
v 318.667389 6.613234 32.312885
v 318.644928 6.626183 32.185444
v 318.643158 6.626183 32.312553
v 318.623688 6.643608 32.185150
v 318.621918 6.643608 32.312260
v 318.606262 6.664842 32.184910
v 318.604492 6.664842 32.312019
v 318.593323 6.689068 32.184731
v 318.591553 6.689068 32.311840
v 318.585327 6.715354 32.184620
v 318.583588 6.715354 32.311729
v 318.582642 6.742690 32.184582
v 318.580902 6.742690 32.311691
v 318.585327 6.770027 32.184620
v 318.583588 6.770027 32.311729
v 318.593323 6.796313 32.184731
v 318.591553 6.796313 32.311840
v 318.606262 6.820539 32.184910
v 318.604492 6.820539 32.312019
v 318.623688 6.841772 32.185150
v 318.621918 6.841772 32.312260
v 318.644928 6.859199 32.185444
v 318.643158 6.859199 32.312553
v 318.669128 6.872147 32.185776
v 318.667389 6.872147 32.312885
v 318.695435 6.880121 32.186138
v 318.693665 6.880121 32.313248
v 318.722748 6.882813 32.186516
v 318.721008 6.882813 32.313625
v 318.750092 6.880121 32.186893
v 318.748352 6.880121 32.314003
v 318.776367 6.872147 32.187256
v 318.774628 6.872147 32.314365
v 318.800598 6.859199 32.187592
v 318.798859 6.859198 32.314701
v 318.821838 6.841772 32.187885
v 318.820068 6.841772 32.314995
v 318.839264 6.820539 32.188126
v 318.837494 6.820539 32.315235
v 318.852203 6.796313 32.188305
v 318.850433 6.796313 32.315414
v 318.860168 6.770027 32.188416
v 318.858429 6.770027 32.315521
v 316.936432 6.394113 32.044144
v 316.936432 7.123602 32.044144
v 320.476593 6.394111 32.093002
v 320.476593 7.123600 32.093002
v 316.934509 6.394113 32.183102
v 316.934509 7.123602 32.183102
v 320.474670 6.394111 32.231960
v 320.474670 7.123600 32.231960
v 317.352264 3.398740 28.550600
v 317.352264 6.224398 28.550600
v 320.177643 3.398739 28.589596
v 320.177643 6.224396 28.589596
v 320.485321 2.861735 27.803326
v 320.485321 3.150161 27.803326
v 320.916351 2.861735 27.809277
v 320.916351 3.150160 27.809275
v 320.425629 2.861735 32.128265
v 320.425629 3.150160 32.128265
v 320.856659 2.861735 32.134216
v 320.856659 3.150160 32.134216
v 316.589905 3.142644 27.755701
v 316.589905 7.467995 27.755701
v 320.914825 3.142642 27.815392
v 320.914856 7.467992 27.815392
v 316.530212 3.142644 32.080639
v 316.530212 7.467994 32.080639
v 320.855164 3.142642 32.140331
v 320.855164 7.467992 32.140331
v 316.596436 2.861857 27.749653
v 316.596436 3.150283 27.749653
v 317.027466 2.861857 27.755602
v 317.027466 3.150282 27.755602
v 316.536743 2.861857 32.074593
v 316.536743 3.150282 32.074593
v 316.967773 2.861857 32.080540
v 316.967773 3.150282 32.080544
v 316.270020 7.445450 27.426853
v 316.270020 7.832518 27.426853
v 321.243683 7.445447 27.495499
v 321.243683 7.832516 27.495499
v 316.201355 7.445450 32.400536
v 316.201355 7.832519 32.400536
v 321.175049 7.445447 32.469181
v 321.175049 7.832516 32.469181
v 317.303406 3.398740 32.091312
v 317.303406 6.224398 32.091312
v 320.128784 6.224396 32.130306
v 320.128784 3.398739 32.130306
v 319.658508 3.381595 29.732508
v 320.141998 5.903848 29.739182
v 319.657593 3.376718 31.643476
v 320.141083 5.898971 31.650150
v 319.211304 3.467319 29.732508
v 319.694824 5.989572 29.739182
v 319.210388 3.462442 31.643476
v 319.693878 5.984695 31.650150
v 318.652740 3.381595 29.584761
v 319.136230 5.903848 29.591434
v 318.651794 3.376719 31.495729
v 319.135284 5.898972 31.502403
v 318.205536 3.467319 29.584761
v 318.689026 5.989573 29.591434
v 318.204590 3.462443 31.495729
v 318.688080 5.984695 31.502403
vt 0.377451 0.872061
vt 0.316646 0.806158
vt 0.377451 0.806143
vt 0.652869 0.729425
vt 0.713687 0.795347
vt 0.652869 0.795347
vt 0.454349 0.872065
vt 0.515163 0.806143
vt 0.515163 0.872050
vt 0.652869 0.795347
vt 0.592051 0.729425
vt 0.652869 0.729425
vt 0.774501 0.795347
vt 0.713685 0.861269
vt 0.713685 0.795347
vt 0.254676 0.858874
vt 0.315492 0.792952
vt 0.315492 0.858874
vt 0.591180 0.740227
vt 0.590536 0.744610
vt 0.590536 0.740221
vt 0.589885 0.740228
vt 0.442329 0.809390
vt 0.438283 0.810340
vt 0.438283 0.809155
vt 0.442329 0.810575
vt 0.438283 0.812243
vt 0.442329 0.812478
vt 0.438282 0.814791
vt 0.442328 0.815026
vt 0.438282 0.817885
vt 0.442328 0.818120
vt 0.438282 0.821407
vt 0.442328 0.821642
vt 0.438282 0.825221
vt 0.442328 0.825457
vt 0.438282 0.829182
vt 0.442328 0.829417
vt 0.438282 0.833136
vt 0.442328 0.833371
vt 0.438282 0.836931
vt 0.442328 0.837167
vt 0.438282 0.840423
vt 0.442328 0.840658
vt 0.438282 0.843476
vt 0.442328 0.843711
vt 0.438283 0.845973
vt 0.442329 0.846208
vt 0.438283 0.847819
vt 0.442329 0.848054
vt 0.438283 0.848942
vt 0.452183 0.740227
vt 0.452827 0.744610
vt 0.452183 0.744616
vt 0.453479 0.740229
vt 0.453479 0.744618
vt 0.446376 0.848942
vt 0.442330 0.847992
vt 0.446376 0.847757
vt 0.442330 0.846089
vt 0.446376 0.845854
vt 0.442329 0.843541
vt 0.446376 0.843306
vt 0.442329 0.840447
vt 0.446375 0.840212
vt 0.442329 0.836925
vt 0.446375 0.836689
vt 0.442329 0.833110
vt 0.446375 0.832875
vt 0.442329 0.829150
vt 0.446375 0.828915
vt 0.442329 0.825196
vt 0.446375 0.824961
vt 0.442329 0.821401
vt 0.446375 0.821165
vt 0.442329 0.817909
vt 0.446375 0.817674
vt 0.442329 0.814856
vt 0.446376 0.814621
vt 0.442330 0.812359
vt 0.446376 0.812123
vt 0.775706 0.732954
vt 0.776249 0.731045
vt 0.779390 0.732733
vt 0.442330 0.810513
vt 0.446376 0.810278
vt 0.442330 0.809390
vt 0.446376 0.809155
vt 0.779931 0.830110
vt 0.779388 0.832602
vt 0.775703 0.832381
vt 0.930829 0.980172
vt 0.913250 0.495764
vt 0.930829 0.476518
vt 0.957262 0.496272
vt 0.952845 0.476775
vt 0.957269 0.476518
vt 0.930829 0.980172
vt 0.948409 0.495764
vt 0.948409 0.999419
vt 0.952832 0.980246
vt 0.948416 0.999743
vt 0.948409 0.979989
vt 0.948416 0.476518
vt 0.952839 0.496529
vt 0.957269 0.999743
vt 0.952845 1.000000
vt 0.981344 0.074552
vt 0.913249 0.401966
vt 0.913249 0.000000
vt 0.800544 0.963231
vt 0.913227 0.893275
vt 0.913249 0.969791
vt 0.800522 0.083076
vt 0.913249 0.478336
vt 0.800544 0.484896
vt 0.589885 0.801544
vt 0.582934 0.747831
vt 0.589885 0.740221
vt 0.070864 0.727451
vt 0.063669 0.876467
vt 0.063669 0.727030
vt 0.582934 0.747831
vt 0.575984 0.801544
vt 0.575984 0.740221
vt 0.198202 0.879750
vt 0.191007 0.730734
vt 0.198202 0.730313
vt 0.254676 0.876467
vt 0.254676 0.727030
vt 0.070864 0.876888
vt 0.127338 0.730734
vt 0.127338 0.880171
vt 0.592051 0.114119
vt 0.696287 0.615306
vt 0.592051 0.729425
vt 0.454315 0.117127
vt 0.316680 0.008013
vt 0.454349 0.000000
vt 0.696286 0.000000
vt 0.702458 0.110096
vt 0.696287 0.615306
vt 0.592017 0.623094
vt 0.454383 0.732208
vt 0.454349 0.615082
vt 0.592051 0.008013
vt 0.454383 0.000000
vt 0.316646 0.125139
vt 0.454349 0.732209
vt 0.316680 0.740221
vt 0.445233 0.801545
vt 0.438282 0.747831
vt 0.445233 0.740221
vt 0.007195 0.727451
vt 0.000000 0.876467
vt 0.000000 0.727030
vt 0.445233 0.801545
vt 0.452183 0.747831
vt 0.452183 0.809155
vt 0.134533 0.879750
vt 0.127338 0.730734
vt 0.134533 0.730313
vt 0.191007 0.876467
vt 0.191007 0.727030
vt 0.007195 0.876888
vt 0.063669 0.730734
vt 0.063669 0.880171
vt 0.990672 0.707602
vt 0.981344 0.010212
vt 0.990672 0.000000
vt 0.000004 0.716548
vt 0.158320 0.717826
vt 0.000000 0.727030
vt 0.990672 0.707602
vt 1.000000 0.010212
vt 1.000000 0.717814
vt 0.158327 0.010481
vt 0.316643 0.009204
vt 0.316646 0.019686
vt 0.316646 0.727030
vt 0.158323 0.707344
vt 0.000004 0.009204
vt 0.158323 0.000000
vt 0.770553 0.586614
vt 0.800522 0.114119
vt 0.800522 0.729425
vt 0.913227 0.076516
vt 0.800544 0.006560
vt 0.913249 0.000000
vt 0.913249 0.491455
vt 0.800522 0.886715
vt 0.800544 0.484896
vt 0.254676 0.924782
vt 0.315490 0.858889
vt 0.315490 0.924797
vt 0.438282 0.806143
vt 0.377464 0.740221
vt 0.438282 0.740221
vt 0.592051 0.927192
vt 0.652866 0.861269
vt 0.652866 0.927177
vt 0.316646 0.806143
vt 0.377464 0.740221
vt 0.377464 0.806143
vt 0.713685 0.795347
vt 0.652868 0.861269
vt 0.652868 0.795347
vt 0.515167 0.806143
vt 0.575983 0.740221
vt 0.575984 0.806143
vt 0.515169 0.872050
vt 0.575984 0.806158
vt 0.575984 0.872066
vt 0.515167 0.740221
vt 0.454349 0.806143
vt 0.454349 0.740221
vt 0.377468 0.872066
vt 0.438282 0.806143
vt 0.438282 0.872051
vt 0.254676 0.727030
vt 0.315494 0.792952
vt 0.254676 0.792952
vt 0.592051 0.861269
vt 0.652868 0.795347
vt 0.652868 0.861269
vt 0.774504 0.729425
vt 0.713687 0.795347
vt 0.713687 0.729425
vt 0.316646 0.872076
vt 0.713687 0.729425
vt 0.454349 0.806158
vt 0.592051 0.795347
vt 0.774501 0.861269
vt 0.254676 0.792952
vt 0.591180 0.744616
vt 0.589885 0.744618
vt 0.442329 0.849177
vt 0.452827 0.740221
vt 0.442330 0.849177
vt 0.776852 0.729854
vt 0.777493 0.729425
vt 0.778146 0.729776
vt 0.778786 0.730893
vt 0.779933 0.735225
vt 0.780395 0.738273
vt 0.775244 0.735506
vt 0.774881 0.738604
vt 0.780758 0.741761
vt 0.781008 0.745554
vt 0.774631 0.742129
vt 0.781135 0.749507
vt 0.774504 0.745945
vt 0.781135 0.753468
vt 0.774504 0.749905
vt 0.774631 0.753858
vt 0.781008 0.757284
vt 0.780758 0.760808
vt 0.774881 0.757651
vt 0.780395 0.763906
vt 0.775244 0.761139
vt 0.779933 0.766459
vt 0.775706 0.764188
vt 0.776249 0.766680
vt 0.779390 0.768367
vt 0.778786 0.769559
vt 0.776852 0.768520
vt 0.778146 0.769987
vt 0.777493 0.769636
vt 0.778784 0.834442
vt 0.778144 0.835558
vt 0.776850 0.835481
vt 0.777490 0.835909
vt 0.776246 0.834289
vt 0.775241 0.829828
vt 0.774879 0.826730
vt 0.780392 0.827061
vt 0.774629 0.823206
vt 0.780755 0.823573
vt 0.774501 0.819390
vt 0.781005 0.819780
vt 0.774501 0.815429
vt 0.781133 0.815827
vt 0.774629 0.811476
vt 0.781133 0.811867
vt 0.774879 0.807683
vt 0.781005 0.808051
vt 0.775242 0.804195
vt 0.780755 0.804526
vt 0.775703 0.801147
vt 0.780392 0.801428
vt 0.776246 0.798655
vt 0.779931 0.798876
vt 0.776850 0.796815
vt 0.779388 0.796967
vt 0.777490 0.795698
vt 0.778784 0.795776
vt 0.778144 0.795347
vt 0.913249 0.999419
vt 0.930829 0.476518
vt 0.981344 0.476518
vt 0.582934 0.809154
vt 0.582934 0.809154
vt 0.191007 0.880171
vt 0.696287 0.000000
vt 0.770553 0.184648
vt 0.702458 0.512062
vt 0.592051 0.740221
vt 0.438282 0.809155
vt 0.445233 0.740221
vt 0.127338 0.880171
vt 0.981344 0.717814
vt 0.990672 0.000000
vt 0.254676 0.858874
vt 0.377464 0.806143
vt 0.592051 0.861285
vt 0.316646 0.740221
vt 0.713685 0.861269
vt 0.515167 0.740221
vt 0.515169 0.806143
vt 0.515167 0.806143
vt 0.377468 0.806159
vt 0.315494 0.727030
vt 0.592052 0.795347
vt 0.774504 0.795347
vn 0.9821 -0.1883 0.0000
vn -0.0005 -0.0026 1.0000
vn -0.9821 0.1883 -0.0000
vn 0.0005 0.0026 -1.0000
vn -0.1883 -0.9821 -0.0026
vn 0.1883 0.9821 0.0026
vn 0.9951 -0.0983 0.0136
vn 0.9569 -0.2902 0.0131
vn 0.8818 -0.4714 0.0123
vn 0.7719 -0.6356 0.0107
vn 0.6347 -0.7727 0.0088
vn 0.4707 -0.8823 0.0064
vn 0.2899 -0.9570 0.0040
vn 0.0981 -0.9952 0.0013
vn -0.0983 -0.9952 -0.0013
vn -0.2903 -0.9569 -0.0040
vn -0.4709 -0.8822 -0.0065
vn -0.6343 -0.7730 -0.0088
vn -0.7725 -0.6349 -0.0108
vn -0.8814 -0.4721 -0.0123
vn -0.9561 -0.2928 -0.0133
vn -0.9951 -0.0980 -0.0136
vn -0.9951 0.0980 -0.0136
vn -0.9562 0.2926 -0.0133
vn -0.8816 0.4718 -0.0123
vn -0.7723 0.6352 -0.0108
vn -0.6341 0.7732 -0.0088
vn -0.4710 0.8821 -0.0064
vn -0.2902 0.9570 -0.0040
vn -0.0983 0.9952 -0.0013
vn 0.0981 0.9952 0.0013
vn 0.2896 0.9571 0.0040
vn 0.4710 0.8821 0.0065
vn 0.6352 0.7723 0.0088
vn 0.7723 0.6352 0.0108
vn 0.8816 0.4718 0.0123
vn -0.0137 -0.0000 0.9999
vn 0.9568 0.2906 0.0131
vn 0.9951 0.0983 0.0136
vn 0.0141 0.0000 -0.9999
vn 0.0138 0.0000 -0.9999
vn 0.9999 0.0000 0.0138
vn -0.0138 0.0000 0.9999
vn -0.9999 0.0000 -0.0138
vn -0.0000 -1.0000 0.0000
vn 0.0000 1.0000 0.0000
vn 0.9821 -0.1882 -0.0000
vn 0.1882 0.9821 0.0026
vn -0.1882 -0.9821 -0.0026
vn 0.9950 -0.0992 0.0136
vn 0.9568 -0.2906 0.0133
vn 0.8825 -0.4701 0.0123
vn 0.7733 -0.6339 0.0108
vn 0.6341 -0.7732 0.0087
vn 0.4719 -0.8816 0.0065
vn 0.2896 -0.9571 0.0040
vn 0.0979 -0.9952 0.0013
vn -0.0979 -0.9952 -0.0014
vn -0.2909 -0.9568 -0.0040
vn -0.4710 -0.8821 -0.0066
vn -0.6341 -0.7732 -0.0088
vn -0.7744 -0.6326 -0.0108
vn -0.8825 -0.4701 -0.0123
vn -0.9574 -0.2886 -0.0131
vn -0.9953 -0.0962 -0.0136
vn -0.9953 0.0961 -0.0136
vn -0.9574 0.2885 -0.0131
vn -0.8826 0.4700 -0.0123
vn -0.7740 0.6331 -0.0108
vn -0.6338 0.7734 -0.0088
vn -0.4710 0.8821 -0.0066
vn -0.2906 0.9568 -0.0040
vn -0.0979 0.9952 -0.0014
vn 0.0978 0.9952 0.0013
vn 0.2899 0.9571 0.0040
vn 0.4722 0.8815 0.0065
vn 0.6345 0.7729 0.0087
vn 0.7735 0.6336 0.0108
vn 0.8822 0.4707 0.0123
vn -0.0137 -0.0001 0.9999
vn -0.0131 0.0000 0.9999
vn -0.0130 -0.0000 0.9999
vn -0.0145 0.0001 0.9999
vn -0.0136 0.0000 0.9999
vn -0.0140 -0.0000 0.9999
vn -0.0135 -0.0000 0.9999
vn -0.0141 0.0000 0.9999
vn -0.0145 -0.0000 0.9999
vn -0.0162 -0.0000 0.9999
vn -0.0121 0.0000 0.9999
vn 0.9567 0.2907 0.0133
vn 0.9950 0.0992 0.0136
vn 0.0121 0.0001 -0.9999
vn 0.0138 -0.0002 -0.9999
vn 0.0145 -0.0000 -0.9999
vn 0.0137 0.0000 -0.9999
vn 0.0135 0.0000 -0.9999
vn 0.0139 0.0000 -0.9999
vn 0.0140 0.0000 -0.9999
vn 0.0134 0.0000 -0.9999
vn 0.0148 -0.0000 -0.9999
vn -0.9821 0.1882 -0.0000
usemtl Material.020
s off
f 2/1/1 3/2/1 1/3/1
f 4/4/2 7/5/2 3/6/2
f 8/7/3 5/8/3 7/9/3
f 6/10/4 1/11/4 5/12/4
f 7/13/5 1/14/5 3/15/5
f 4/16/6 6/17/6 8/18/6
f 9/19/7 12/20/7 11/21/7
f 12/20/8 13/22/8 11/21/8
f 14/23/9 15/24/9 13/25/9
f 16/26/10 17/27/10 15/24/10
f 18/28/11 19/29/11 17/27/11
f 20/30/12 21/31/12 19/29/12
f 22/32/13 23/33/13 21/31/13
f 24/34/14 25/35/14 23/33/14
f 26/36/15 27/37/15 25/35/15
f 28/38/16 29/39/16 27/37/16
f 30/40/17 31/41/17 29/39/17
f 32/42/18 33/43/18 31/41/18
f 34/44/19 35/45/19 33/43/19
f 36/46/20 37/47/20 35/45/20
f 38/48/21 39/49/21 37/47/21
f 40/50/22 41/51/22 39/49/22
f 42/52/23 43/53/23 41/54/23
f 43/53/24 46/55/24 45/56/24
f 45/57/25 48/58/25 47/59/25
f 47/59/26 50/60/26 49/61/26
f 49/61/27 52/62/27 51/63/27
f 51/63/28 54/64/28 53/65/28
f 53/65/29 56/66/29 55/67/29
f 55/67/30 58/68/30 57/69/30
f 57/69/31 60/70/31 59/71/31
f 59/71/32 62/72/32 61/73/32
f 61/73/33 64/74/33 63/75/33
f 63/75/34 66/76/34 65/77/34
f 65/77/35 68/78/35 67/79/35
f 67/79/36 70/80/36 69/81/36
f 18/82/37 16/83/37 70/84/37
f 69/81/38 72/85/38 71/86/38
f 71/86/39 10/87/39 9/88/39
f 67/89/40 69/90/40 17/91/40
f 73/92/41 76/93/41 75/94/41
f 76/95/42 79/96/42 75/97/42
f 80/98/43 77/99/43 79/100/43
f 77/101/44 74/102/44 73/103/44
f 79/96/45 73/103/45 75/104/45
f 80/105/46 74/106/46 78/107/46
f 81/108/43 84/109/43 82/110/43
f 120/111/44 84/112/44 83/113/44
f 81/114/46 120/115/46 83/116/46
f 85/117/41 88/118/41 87/119/41
f 88/120/42 91/121/42 87/122/42
f 92/123/43 89/124/43 91/125/43
f 89/126/44 86/127/44 85/128/44
f 91/129/45 85/128/45 87/130/45
f 92/131/46 86/132/46 90/133/46
f 93/134/41 96/135/41 95/136/41
f 96/137/42 99/138/42 95/139/42
f 99/140/43 120/141/43 97/142/43
f 97/143/44 94/144/44 93/145/44
f 99/146/45 93/145/45 95/147/45
f 100/148/46 94/149/46 98/150/46
f 101/151/41 104/152/41 103/153/41
f 104/154/42 107/155/42 103/156/42
f 108/157/43 105/158/43 107/159/43
f 105/160/44 102/161/44 101/162/44
f 107/163/45 101/162/45 103/164/45
f 108/165/46 102/166/46 106/167/46
f 109/168/41 112/169/41 111/170/41
f 112/171/42 115/172/42 111/173/42
f 116/174/43 113/175/43 115/176/43
f 113/177/44 110/178/44 109/179/44
f 115/172/45 109/179/45 111/180/45
f 116/181/46 110/182/46 114/183/46
f 118/184/43 100/185/43 98/186/43
f 117/187/42 82/188/42 118/189/42
f 82/190/45 119/191/45 118/192/45
f 122/193/47 123/194/47 121/195/47
f 124/196/2 127/197/2 123/198/2
f 128/199/3 125/200/3 127/201/3
f 126/202/4 121/203/4 125/204/4
f 127/205/5 121/206/5 123/207/5
f 124/208/48 126/209/48 128/210/48
f 130/211/47 131/212/47 129/213/47
f 132/214/2 135/215/2 131/216/2
f 136/217/3 133/218/3 135/219/3
f 134/220/4 129/221/4 133/222/4
f 135/223/49 129/224/49 131/225/49
f 132/226/48 134/227/48 136/228/48
f 2/1/1 4/229/1 3/2/1
f 4/4/2 8/230/2 7/5/2
f 8/7/3 6/231/3 5/8/3
f 6/10/4 2/232/4 1/11/4
f 7/13/49 5/233/49 1/14/49
f 4/16/6 2/234/6 6/17/6
f 9/19/50 10/235/50 12/20/50
f 12/20/51 14/236/51 13/22/51
f 14/23/52 16/26/52 15/24/52
f 16/26/53 18/28/53 17/27/53
f 18/28/54 20/30/54 19/29/54
f 20/30/55 22/32/55 21/31/55
f 22/32/56 24/34/56 23/33/56
f 24/34/57 26/36/57 25/35/57
f 26/36/58 28/38/58 27/37/58
f 28/38/59 30/40/59 29/39/59
f 30/40/60 32/42/60 31/41/60
f 32/42/61 34/44/61 33/43/61
f 34/44/62 36/46/62 35/45/62
f 36/46/63 38/48/63 37/47/63
f 38/48/64 40/50/64 39/49/64
f 40/50/65 42/237/65 41/51/65
f 42/52/66 44/238/66 43/53/66
f 43/53/67 44/238/67 46/55/67
f 45/57/68 46/239/68 48/58/68
f 47/59/69 48/58/69 50/60/69
f 49/61/70 50/60/70 52/62/70
f 51/63/71 52/62/71 54/64/71
f 53/65/72 54/64/72 56/66/72
f 55/67/73 56/66/73 58/68/73
f 57/69/74 58/68/74 60/70/74
f 59/71/75 60/70/75 62/72/75
f 61/73/76 62/72/76 64/74/76
f 63/75/77 64/74/77 66/76/77
f 65/77/78 66/76/78 68/78/78
f 67/79/79 68/78/79 70/80/79
f 14/240/80 12/241/80 10/242/80
f 10/242/81 72/243/81 14/240/81
f 72/243/82 70/84/82 16/83/82
f 14/240/83 72/243/83 16/83/83
f 70/84/37 68/244/37 18/82/37
f 68/244/84 66/245/84 20/246/84
f 20/246/37 66/245/37 22/247/37
f 66/245/85 64/248/85 22/247/85
f 64/248/85 62/249/85 24/250/85
f 22/247/37 64/248/37 24/250/37
f 62/249/85 60/251/85 26/252/85
f 60/251/37 58/253/37 28/254/37
f 28/254/85 58/253/85 30/255/85
f 58/253/37 56/256/37 30/255/37
f 56/256/37 54/257/37 32/258/37
f 30/255/37 56/256/37 32/258/37
f 54/257/86 52/259/86 34/260/86
f 52/259/86 50/261/86 36/262/86
f 36/262/87 50/261/87 38/263/87
f 50/261/37 48/264/37 38/263/37
f 48/264/88 46/265/88 40/266/88
f 38/263/37 48/264/37 40/266/37
f 46/265/89 44/267/89 42/268/89
f 42/268/90 40/266/90 46/265/90
f 36/262/87 34/260/87 52/259/87
f 34/260/43 32/258/43 54/257/43
f 28/254/37 26/252/37 60/251/37
f 26/252/37 24/250/37 62/249/37
f 20/246/87 18/82/87 68/244/87
f 69/81/91 70/80/91 72/85/91
f 71/86/92 72/85/92 10/87/92
f 71/269/93 9/270/93 13/271/93
f 9/270/94 11/272/94 13/271/94
f 13/271/95 15/273/95 71/269/95
f 15/273/96 17/91/96 69/90/96
f 17/91/41 19/274/41 67/89/41
f 15/273/97 69/90/97 71/269/97
f 19/274/98 21/275/98 65/276/98
f 21/275/99 23/277/99 63/278/99
f 19/274/99 65/276/99 67/89/99
f 23/277/96 25/279/96 61/280/96
f 25/279/99 27/281/99 59/282/99
f 27/281/100 29/283/100 57/284/100
f 29/283/99 31/285/99 55/286/99
f 31/285/96 33/287/96 53/288/96
f 33/287/41 35/289/41 51/290/41
f 31/285/98 53/288/98 55/286/98
f 35/289/100 37/291/100 49/292/100
f 37/291/40 39/293/40 47/294/40
f 35/289/40 49/292/40 51/290/40
f 39/293/101 41/295/101 45/296/101
f 41/295/93 43/297/93 45/296/93
f 45/296/100 47/294/100 39/293/100
f 47/294/96 49/292/96 37/291/96
f 51/290/98 53/288/98 33/287/98
f 55/286/96 57/284/96 29/283/96
f 57/284/98 59/282/98 27/281/98
f 59/282/96 61/280/96 25/279/96
f 61/280/96 63/278/96 23/277/96
f 63/278/96 65/276/96 21/275/96
f 73/92/41 74/298/41 76/93/41
f 76/95/42 80/105/42 79/96/42
f 80/98/43 78/299/43 77/99/43
f 77/101/44 78/107/44 74/102/44
f 79/96/45 77/101/45 73/103/45
f 80/105/46 76/95/46 74/106/46
f 81/108/43 83/300/43 84/109/43
f 120/111/44 119/191/44 84/112/44
f 81/114/46 117/187/46 120/115/46
f 85/117/41 86/301/41 88/118/41
f 88/120/42 92/131/42 91/121/42
f 92/123/43 90/302/43 89/124/43
f 89/126/44 90/303/44 86/127/44
f 91/129/45 89/126/45 85/128/45
f 92/131/46 88/120/46 86/132/46
f 93/134/41 94/304/41 96/135/41
f 96/137/42 100/148/42 99/138/42
f 99/140/43 100/185/43 120/141/43
f 100/185/43 119/305/43 120/141/43
f 120/141/43 117/306/43 97/142/43
f 97/143/44 98/307/44 94/144/44
f 99/146/45 97/143/45 93/145/45
f 100/148/46 96/137/46 94/149/46
f 101/151/41 102/308/41 104/152/41
f 104/154/42 108/165/42 107/155/42
f 108/157/43 106/309/43 105/158/43
f 105/160/44 106/310/44 102/161/44
f 107/163/45 105/160/45 101/162/45
f 108/165/46 104/154/46 102/166/46
f 109/168/41 110/311/41 112/169/41
f 112/171/42 116/181/42 115/172/42
f 116/174/43 114/312/43 113/175/43
f 113/177/44 114/183/44 110/178/44
f 115/172/45 113/177/45 109/179/45
f 116/181/46 112/171/46 110/182/46
f 98/186/43 97/142/43 118/184/43
f 97/142/43 117/306/43 118/184/43
f 118/184/43 119/305/43 100/185/43
f 117/187/42 81/114/42 82/188/42
f 82/190/45 84/112/45 119/191/45
f 122/193/1 124/313/1 123/194/1
f 124/196/2 128/314/2 127/197/2
f 128/199/3 126/315/3 125/200/3
f 126/202/4 122/316/4 121/203/4
f 127/205/5 125/317/5 121/206/5
f 124/208/6 122/318/6 126/209/6
f 130/211/1 132/319/1 131/212/1
f 132/214/2 136/320/2 135/215/2
f 136/217/102 134/321/102 133/218/102
f 134/220/4 130/322/4 129/221/4
f 135/223/5 133/323/5 129/224/5
f 132/226/6 130/324/6 134/227/6
