# Blender v2.90.1 OBJ File: 'plantaBaja.blend'
# www.blender.org
mtllib CajonGrande1.mtl
o Cube.018_Cube.053
v 310.247986 20.429676 -94.869431
v 310.247986 20.347927 -94.861374
v 310.247986 20.269320 -94.837532
v 310.247986 20.196873 -94.798805
v 310.247986 20.133373 -94.746696
v 310.247986 20.081261 -94.683197
v 310.247986 20.042538 -94.610748
v 310.247986 20.018692 -94.532143
v 310.247986 20.010641 -94.450394
v 310.247986 20.018692 -94.368645
v 310.247986 20.042538 -94.290031
v 310.247986 20.081261 -94.217590
v 310.247986 20.133373 -94.154091
v 310.247986 20.196873 -94.101974
v 310.247986 20.269320 -94.063255
v 310.247986 20.347927 -94.039406
v 310.247986 20.429678 -94.031357
v 310.247986 20.511427 -94.039406
v 310.247986 20.590034 -94.063255
v 310.247986 20.662481 -94.101974
v 310.247986 20.725981 -94.154091
v 310.247986 20.778093 -94.217590
v 310.247986 20.816816 -94.290031
v 310.247986 20.840660 -94.368645
v 310.247986 20.848713 -94.450394
v 310.247986 20.840660 -94.532143
v 310.247986 20.816814 -94.610748
v 310.247986 20.778091 -94.683197
v 310.247986 20.725979 -94.746696
v 310.247986 20.662479 -94.798805
v 310.247986 20.590034 -94.837532
v 310.247986 20.511427 -94.861374
v 309.658875 27.353668 -95.925163
v 309.658875 12.738144 -95.925163
v 309.658875 27.353668 -87.242172
v 309.658875 12.738144 -87.242172
v 310.059021 27.353668 -95.925163
v 310.059021 12.738144 -95.925163
v 310.059021 27.353668 -87.242172
v 310.059021 12.738144 -87.242172
v 310.247986 20.429676 -80.287689
v 310.247986 20.347927 -80.279633
v 310.247986 20.269320 -80.255791
v 310.247986 20.196873 -80.217064
v 310.247986 20.133373 -80.164955
v 310.247986 20.081261 -80.101456
v 310.247986 20.042538 -80.029007
v 310.247986 20.018692 -79.950401
v 310.247986 20.010641 -79.868652
v 310.247986 20.018692 -79.786903
v 310.247986 20.042538 -79.708298
v 310.247986 20.081261 -79.635849
v 310.247986 20.133373 -79.572350
v 310.247986 20.196873 -79.520233
v 310.247986 20.269320 -79.481514
v 310.247986 20.347927 -79.457664
v 310.247986 20.429678 -79.449615
v 310.247986 20.511427 -79.457664
v 310.247986 20.590034 -79.481514
v 310.247986 20.662481 -79.520233
v 310.247986 20.725981 -79.572350
v 310.247986 20.778093 -79.635849
v 310.247986 20.816816 -79.708298
v 310.247986 20.840660 -79.786903
v 310.247986 20.848713 -79.868652
v 310.247986 20.840660 -79.950401
v 310.247986 20.816814 -80.029007
v 310.247986 20.778091 -80.101456
v 310.247986 20.725979 -80.164955
v 310.247986 20.662479 -80.217064
v 310.247986 20.590034 -80.255791
v 310.247986 20.511427 -80.279633
v 309.658875 27.353668 -87.233688
v 309.658875 12.738144 -87.233688
v 309.658875 27.353668 -78.550705
v 309.658875 12.738144 -78.550705
v 310.059021 27.353668 -87.233688
v 310.059021 12.738144 -87.233688
v 310.059021 27.353668 -78.550705
v 310.059021 12.738144 -78.550705
v 310.059021 20.010641 -79.868652
v 310.059021 20.042538 -80.029007
v 310.059021 20.018692 -79.950401
v 310.059021 20.018692 -79.786903
v 310.059021 20.269320 -79.481514
v 310.059021 20.081261 -79.635849
v 310.059021 20.347927 -80.279633
v 310.059021 20.081261 -80.101456
v 310.059021 20.269320 -80.255791
v 310.059021 20.196873 -79.520233
v 310.059021 20.133373 -79.572350
v 310.059021 20.196873 -80.217064
v 310.059021 20.133373 -80.164955
v 310.059021 20.042538 -79.708298
v 310.059021 20.429676 -80.287689
v 310.059021 20.511427 -80.279633
v 310.059021 20.347927 -79.457664
v 310.059021 20.429678 -79.449615
v 310.059021 20.590034 -80.255791
v 310.059021 20.511427 -79.457664
v 310.059021 20.662479 -80.217064
v 310.059021 20.816814 -80.029007
v 310.059021 20.778093 -79.635849
v 310.059021 20.662481 -79.520233
v 310.059021 20.590034 -79.481514
v 310.059021 20.840660 -79.950401
v 310.059021 20.816816 -79.708298
v 310.059021 20.725981 -79.572350
v 310.059021 20.725979 -80.164955
v 310.059021 20.778091 -80.101456
v 310.059021 20.848713 -79.868652
v 310.059021 20.840660 -79.786903
v 310.059021 20.010641 -94.450394
v 310.059021 20.042538 -94.610748
v 310.059021 20.018692 -94.532143
v 310.059021 20.018692 -94.368645
v 310.059021 20.269320 -94.063255
v 310.059021 20.081261 -94.217590
v 310.059021 20.347927 -94.861374
v 310.059021 20.081261 -94.683197
v 310.059021 20.269320 -94.837532
v 310.059021 20.196873 -94.101974
v 310.059021 20.133373 -94.154091
v 310.059021 20.196873 -94.798805
v 310.059021 20.133373 -94.746696
v 310.059021 20.042538 -94.290031
v 310.059021 20.429676 -94.869431
v 310.059021 20.511427 -94.861374
v 310.059021 20.347927 -94.039406
v 310.059021 20.429678 -94.031357
v 310.059021 20.590034 -94.837532
v 310.059021 20.511427 -94.039406
v 310.059021 20.662479 -94.798805
v 310.059021 20.816814 -94.610748
v 310.059021 20.778093 -94.217590
v 310.059021 20.662481 -94.101974
v 310.059021 20.590034 -94.063255
v 310.059021 20.840660 -94.532143
v 310.059021 20.816816 -94.290031
v 310.059021 20.725981 -94.154091
v 310.059021 20.725979 -94.746696
v 310.059021 20.778091 -94.683197
v 310.059021 20.848713 -94.450394
v 310.059021 20.840660 -94.368645
vt 0.378648 0.500759
vt 0.380030 0.500152
vt 0.384124 0.501079
vt 0.500000 0.250001
vt 0.250000 0.000000
vt 0.500000 0.000000
vt 0.000000 0.250001
vt 0.000000 0.000000
vt 0.625603 0.542462
vt 0.625465 0.540108
vt 0.750000 0.500000
vt 0.000000 0.250001
vt 0.250000 0.500002
vt 0.000000 0.500002
vt 0.500000 0.500000
vt 0.750000 0.250001
vt 0.750000 0.500000
vt 0.250000 0.500002
vt 0.250000 0.250001
vt 0.368511 0.523334
vt 0.367129 0.523941
vt 0.364337 0.523777
vt 1.000000 0.250001
vt 0.750000 0.500000
vt 0.750000 0.250001
vt 1.000000 0.749999
vt 0.750000 0.749999
vt 1.000000 0.249999
vt 0.875603 0.212053
vt 0.875465 0.209699
vt 0.250000 0.500002
vt 0.000000 0.750001
vt 0.000000 0.500002
vt 0.500000 0.249999
vt 0.750000 0.000000
vt 0.750000 0.249999
vt 0.000000 1.000000
vt 0.250000 0.750001
vt 0.250000 1.000000
vt 0.472259 0.500002
vt 0.469905 0.618062
vt 0.469905 0.500002
vt 0.478436 0.500002
vt 0.476608 0.618062
vt 0.476608 0.500002
vt 0.474522 0.618062
vt 0.474522 0.500002
vt 0.487615 0.618062
vt 0.489968 0.500002
vt 0.489968 0.618062
vt 0.467551 0.500002
vt 0.465288 0.618062
vt 0.465288 0.500002
vt 0.467551 0.618062
vt 0.463202 0.500002
vt 0.461374 0.618062
vt 0.461374 0.500002
vt 0.407801 0.618062
vt 0.409199 0.500002
vt 0.409199 0.618062
vt 0.414367 0.618062
vt 0.415765 0.500002
vt 0.415765 0.618062
vt 0.483265 0.618062
vt 0.485351 0.500002
vt 0.485351 0.618062
vt 0.417164 0.500002
vt 0.417164 0.618062
vt 0.410544 0.500002
vt 0.410544 0.618062
vt 0.459874 0.618062
vt 0.459874 0.500002
vt 0.411783 0.618062
vt 0.413022 0.500002
vt 0.413022 0.618062
vt 0.403819 0.618062
vt 0.405058 0.500002
vt 0.405058 0.618062
vt 0.479937 0.500002
vt 0.478436 0.618062
vt 0.479937 0.618062
vt 0.481437 0.500002
vt 0.481437 0.618062
vt 0.487615 0.500002
vt 0.418508 0.618062
vt 0.419747 0.500002
vt 0.419747 0.618062
vt 0.498499 0.618062
vt 0.500000 0.500002
vt 0.500000 0.618062
vt 0.494585 0.618062
vt 0.496671 0.500002
vt 0.496671 0.618062
vt 0.406403 0.618062
vt 0.407801 0.500002
vt 0.463202 0.618062
vt 0.492322 0.500002
vt 0.492322 0.618062
vt 0.472259 0.618062
vt 0.414367 0.500002
vt 0.411783 0.500002
vt 0.411783 0.618062
vt 0.406403 0.500002
vt 0.418508 0.500002
vt 0.494585 0.500002
vt 0.483265 0.500002
vt 0.498499 0.500002
vt 0.861268 0.212053
vt 0.861406 0.214407
vt 0.750000 0.249999
vt 0.447488 0.618061
vt 0.449842 0.500002
vt 0.449842 0.618061
vt 0.441311 0.618061
vt 0.443139 0.500002
vt 0.443139 0.618061
vt 0.445225 0.500002
vt 0.445225 0.618061
vt 0.427425 0.618061
vt 0.429779 0.500002
vt 0.429779 0.618061
vt 0.452196 0.618061
vt 0.454459 0.500002
vt 0.454459 0.618061
vt 0.452196 0.500002
vt 0.456545 0.618061
vt 0.458373 0.500002
vt 0.458373 0.618061
vt 0.391873 0.618061
vt 0.393271 0.500002
vt 0.393271 0.618061
vt 0.398438 0.618061
vt 0.399837 0.500002
vt 0.399837 0.618061
vt 0.423076 0.618061
vt 0.425162 0.500002
vt 0.425162 0.618061
vt 0.401235 0.500002
vt 0.401235 0.618061
vt 0.394615 0.618061
vt 0.394615 0.500002
vt 0.459874 0.500002
vt 0.459874 0.618061
vt 0.395855 0.618061
vt 0.397094 0.500002
vt 0.397094 0.618061
vt 0.387890 0.618061
vt 0.389130 0.500002
vt 0.389130 0.618061
vt 0.439811 0.618061
vt 0.441311 0.500002
vt 0.419747 0.618061
vt 0.421248 0.500002
vt 0.421248 0.618061
vt 0.427425 0.500002
vt 0.402580 0.618061
vt 0.403819 0.500002
vt 0.403819 0.618061
vt 0.438310 0.618061
vt 0.439810 0.500002
vt 0.439811 0.618061
vt 0.434396 0.618061
vt 0.436482 0.500002
vt 0.436482 0.618061
vt 0.390474 0.618061
vt 0.391872 0.500002
vt 0.456545 0.500002
vt 0.432133 0.500002
vt 0.432133 0.618061
vt 0.447488 0.500002
vt 0.398438 0.500002
vt 0.395855 0.500002
vt 0.395855 0.618061
vt 0.390474 0.500002
vt 0.402580 0.500002
vt 0.434396 0.500002
vt 0.423076 0.500002
vt 0.438310 0.500002
vt 0.500000 0.500000
vt 0.611405 0.544815
vt 0.611813 0.547078
vt 0.381440 0.500002
vt 0.382822 0.500315
vt 0.385296 0.502264
vt 0.386293 0.503826
vt 0.377346 0.501799
vt 0.387076 0.505703
vt 0.375177 0.505007
vt 0.387615 0.507824
vt 0.374394 0.507050
vt 0.387890 0.510107
vt 0.373855 0.509286
vt 0.387890 0.512465
vt 0.373580 0.511627
vt 0.387615 0.514807
vt 0.387076 0.517042
vt 0.373580 0.513985
vt 0.386293 0.519086
vt 0.373855 0.516268
vt 0.385296 0.520859
vt 0.374394 0.518389
vt 0.384124 0.522293
vt 0.375177 0.520267
vt 0.382822 0.523334
vt 0.376174 0.521828
vt 0.381440 0.523941
vt 0.378648 0.523777
vt 0.380030 0.524090
vt 0.377346 0.523013
vt 0.376174 0.503234
vt 0.250000 0.250001
vt 0.750000 0.749999
vt 0.623504 0.550993
vt 0.500000 0.749999
vt 0.618435 0.554526
vt 0.621178 0.553608
vt 0.619834 0.554295
vt 0.618435 0.530397
vt 0.619834 0.530629
vt 0.622418 0.552493
vt 0.621178 0.531315
vt 0.622418 0.532430
vt 0.624395 0.549164
vt 0.623504 0.533930
vt 0.624395 0.535759
vt 0.625057 0.547078
vt 0.625465 0.544815
vt 0.625057 0.537845
vt 0.250000 0.250001
vt 0.500000 0.250001
vt 0.365719 0.524090
vt 0.363035 0.523013
vt 0.361863 0.521828
vt 0.369814 0.522293
vt 0.360866 0.520267
vt 0.370985 0.520859
vt 0.360083 0.518389
vt 0.371982 0.519086
vt 0.359544 0.516268
vt 0.372765 0.517042
vt 0.359269 0.513985
vt 0.373305 0.514807
vt 0.359269 0.511627
vt 0.373580 0.512465
vt 0.359544 0.509286
vt 0.373580 0.510107
vt 0.360083 0.507050
vt 0.373305 0.507824
vt 0.360866 0.505007
vt 0.372765 0.505703
vt 0.361863 0.503234
vt 0.371982 0.503826
vt 0.363035 0.501799
vt 0.364337 0.500759
vt 0.370985 0.502264
vt 0.365719 0.500152
vt 0.369814 0.501079
vt 0.367129 0.500002
vt 0.368511 0.500315
vt 1.000000 0.500000
vt 0.868436 0.224118
vt 0.869834 0.223886
vt 0.750000 0.000000
vt 1.000000 0.000000
vt 0.868436 0.199988
vt 0.872418 0.202021
vt 0.871179 0.200906
vt 0.869834 0.200220
vt 0.871179 0.223199
vt 0.872418 0.222084
vt 0.873504 0.220584
vt 0.874395 0.218756
vt 0.873504 0.203522
vt 0.874395 0.205350
vt 0.875058 0.216670
vt 0.875466 0.214407
vt 0.875058 0.207436
vt 0.250000 0.750001
vt 0.500000 0.000000
vt 0.000000 0.750001
vt 0.411783 0.500002
vt 0.403819 0.500002
vt 0.479937 0.618062
vt 0.479937 0.500002
vt 0.867037 0.200220
vt 0.865693 0.200906
vt 0.867037 0.223886
vt 0.865693 0.223199
vt 0.864453 0.202021
vt 0.864453 0.222084
vt 0.863367 0.220584
vt 0.863367 0.203522
vt 0.862476 0.205350
vt 0.862476 0.218756
vt 0.861814 0.216670
vt 0.861814 0.207436
vt 0.861406 0.209699
vt 0.395855 0.500002
vt 0.387890 0.500002
vt 0.439811 0.500002
vt 0.419747 0.500002
vt 0.617037 0.530629
vt 0.615692 0.531315
vt 0.617037 0.554295
vt 0.615692 0.553608
vt 0.614453 0.532430
vt 0.613367 0.533930
vt 0.614453 0.552493
vt 0.613367 0.550993
vt 0.612476 0.535759
vt 0.611813 0.537845
vt 0.612476 0.549164
vt 0.611405 0.540108
vt 0.611268 0.542462
vn -1.0000 0.0000 0.0000
vn 0.0000 -1.0000 0.0000
vn 0.0000 0.0000 -1.0000
vn 0.0000 1.0000 0.0000
vn 1.0000 0.0000 0.0000
vn 0.0000 0.0000 1.0000
vn 0.0000 0.9952 -0.0980
vn 0.0000 0.7730 -0.6345
vn 0.0000 0.8819 -0.4714
vn 0.0000 -0.9952 0.0980
vn 0.0000 0.9569 0.2903
vn 0.0000 0.9952 0.0980
vn 0.0000 0.7730 0.6344
vn 0.0000 -0.0981 0.9952
vn 0.0000 -0.0980 -0.9952
vn 0.0000 -0.8819 0.4714
vn 0.0000 0.0980 -0.9952
vn 0.0000 -0.2902 0.9570
vn 0.0000 0.6345 0.7729
vn 0.0000 -0.4713 -0.8820
vn 0.0000 0.4714 0.8819
vn 0.0000 0.6343 -0.7731
vn 0.0000 -0.6345 0.7729
vn 0.0000 -0.9569 0.2903
vn 0.0000 0.4714 -0.8819
vn 0.0000 -0.6343 -0.7731
vn 0.0000 -0.8819 -0.4714
vn 0.0000 0.0981 0.9952
vn 0.0000 0.8819 0.4714
vn 0.0000 -0.9952 -0.0980
vn 0.0000 0.9569 -0.2903
vn 0.0000 -0.2903 -0.9569
vn 0.0000 -0.4714 0.8819
vn 0.0000 0.2902 0.9570
vn 0.0000 0.2903 -0.9569
vn 0.0000 -0.9569 -0.2903
vn 0.0000 -0.7730 0.6345
vn 0.0000 -0.7730 -0.6345
vn 0.0000 0.8819 -0.4715
vn 0.0000 -0.8819 -0.4715
vn -1.0000 0.0007 0.0000
vn -1.0000 -0.0008 0.0000
vn -1.0000 -0.0004 0.0000
vn -1.0000 -0.0001 0.0000
vn -1.0000 0.0002 0.0000
vn -1.0000 0.0001 0.0000
vn 0.0000 0.7731 -0.6343
vn 0.0000 0.7731 0.6343
vn 0.0000 -0.8819 0.4715
vn 0.0000 0.6343 0.7731
vn 0.0000 -0.4714 -0.8819
vn 0.0000 0.6345 -0.7729
vn 0.0000 -0.6343 0.7731
vn 0.0000 -0.6345 -0.7729
vn 0.0000 0.8819 0.4715
vn 0.0000 -0.4715 0.8819
vn 0.0000 -0.9570 -0.2902
vn 0.0000 -0.7731 0.6343
vn 0.0000 -0.7731 -0.6343
vn -1.0000 0.0005 0.0000
vn -1.0000 -0.0002 0.0000
vn -1.0000 0.0008 0.0000
vn -1.0000 -0.0007 0.0000
vn -1.0000 0.0006 0.0000
usemtl Material.055
s off
f 31/1/1 32/2/1 3/3/1
f 37/4/2 35/5/2 33/6/2
f 35/5/3 40/7/3 36/8/3
f 113/9/1 115/10/1 38/11/1
f 34/12/4 40/13/4 38/14/4
f 33/15/5 36/16/5 34/17/5
f 37/4/6 34/18/6 38/19/6
f 71/20/1 72/21/1 42/22/1
f 77/23/2 75/24/2 73/25/2
f 75/24/3 80/26/3 76/27/3
f 80/28/1 81/29/1 83/30/1
f 74/31/4 80/32/4 78/33/4
f 73/34/5 76/35/5 74/36/5
f 77/37/6 74/38/6 78/39/6
f 84/40/7 49/41/7 81/42/7
f 91/43/8 52/44/8 86/45/8
f 86/45/9 51/46/9 94/47/9
f 106/48/10 65/49/10 111/50/10
f 83/51/11 47/52/11 82/53/11
f 81/42/12 48/54/12 83/51/12
f 88/55/13 45/56/13 93/57/13
f 95/58/14 72/59/14 96/60/14
f 100/61/15 57/62/15 98/63/15
f 110/64/16 67/65/16 102/66/16
f 98/63/17 56/67/17 97/68/17
f 96/60/18 71/69/18 99/70/18
f 93/57/19 44/71/19 92/72/19
f 104/73/20 59/74/20 105/75/20
f 92/76/21 43/77/21 89/78/21
f 90/79/22 53/80/22 91/43/22
f 101/81/23 69/82/23 109/83/23
f 106/48/24 67/65/24 66/84/24
f 85/85/25 54/86/25 90/87/25
f 108/88/26 60/89/26 104/90/26
f 107/91/27 62/92/27 103/93/27
f 87/94/28 41/95/28 95/58/28
f 82/53/29 46/96/29 88/55/29
f 111/50/30 64/97/30 112/98/30
f 94/47/31 50/99/31 84/40/31
f 105/75/32 58/100/32 100/61/32
f 99/70/33 70/101/33 101/102/33
f 89/78/34 42/103/34 87/94/34
f 97/68/35 55/104/35 85/85/35
f 112/98/36 63/105/36 107/91/36
f 109/83/37 68/106/37 110/64/37
f 103/93/38 61/107/38 108/88/38
f 111/108/1 112/109/1 79/110/1
f 116/111/7 9/112/7 113/113/7
f 123/114/8 12/115/8 118/116/8
f 118/116/39 11/117/39 126/118/39
f 138/119/10 25/120/10 143/121/10
f 115/122/11 7/123/11 114/124/11
f 113/113/12 8/125/12 115/122/12
f 120/126/13 5/127/13 125/128/13
f 127/129/14 32/130/14 128/131/14
f 132/132/15 17/133/15 130/134/15
f 142/135/16 27/136/16 134/137/16
f 130/134/17 16/138/17 129/139/17
f 131/140/18 32/130/18 31/141/18
f 125/128/19 4/142/19 124/143/19
f 136/144/20 19/145/20 137/146/20
f 124/147/21 3/148/21 121/149/21
f 122/150/22 13/151/22 123/114/22
f 133/152/23 29/153/23 141/154/23
f 138/119/24 27/136/24 26/155/24
f 117/156/25 14/157/25 122/158/25
f 140/159/26 20/160/26 136/161/26
f 139/162/40 22/163/40 135/164/40
f 119/165/28 1/166/28 127/129/28
f 114/124/29 6/167/29 120/126/29
f 143/121/30 24/168/30 144/169/30
f 126/118/31 10/170/31 116/111/31
f 137/146/32 18/171/32 132/132/32
f 131/140/33 30/172/33 133/173/33
f 121/149/34 2/174/34 119/165/34
f 129/139/35 15/175/35 117/156/35
f 144/169/36 23/176/36 139/162/36
f 141/154/37 28/177/37 142/135/37
f 135/164/38 21/178/38 140/159/38
f 37/179/1 144/180/1 139/181/1
f 1/182/1 2/183/1 32/2/1
f 2/183/1 3/3/1 32/2/1
f 3/3/1 4/184/1 31/1/1
f 4/184/1 5/185/1 30/186/1
f 31/1/1 4/184/1 30/186/1
f 5/185/1 6/187/1 28/188/1
f 6/187/1 7/189/1 27/190/1
f 7/189/1 8/191/1 26/192/1
f 8/191/1 9/193/1 25/194/1
f 9/193/1 10/195/1 25/194/1
f 10/195/1 11/196/1 24/197/1
f 25/194/1 10/195/1 24/197/1
f 11/196/1 12/198/1 23/199/1
f 12/198/1 13/200/1 22/201/1
f 23/199/1 12/198/1 22/201/1
f 13/200/1 14/202/1 21/203/1
f 14/202/1 15/204/1 20/205/1
f 21/203/1 14/202/1 20/205/1
f 15/204/1 16/206/1 18/207/1
f 16/206/1 17/208/1 18/207/1
f 18/207/1 19/209/1 15/204/1
f 19/209/1 20/205/1 15/204/1
f 21/203/1 22/201/1 13/200/1
f 23/199/1 24/197/1 11/196/1
f 25/194/1 26/192/1 8/191/1
f 26/192/1 27/190/1 7/189/1
f 27/190/1 28/188/1 6/187/1
f 28/188/1 29/210/1 5/185/1
f 29/210/1 30/186/1 5/185/1
f 37/4/2 39/211/2 35/5/2
f 35/5/3 39/211/3 40/7/3
f 38/11/1 40/212/1 123/213/1
f 40/212/1 39/214/1 130/215/1
f 117/216/41 40/212/41 129/217/41
f 130/215/42 129/217/42 40/212/42
f 127/218/1 37/179/1 38/11/1
f 119/219/1 127/218/1 38/11/1
f 40/212/43 117/216/43 122/220/43
f 40/212/44 122/220/44 123/213/44
f 121/221/45 119/219/45 38/11/45
f 124/222/1 121/221/1 38/11/1
f 38/11/44 123/213/44 118/223/44
f 125/224/1 124/222/1 38/11/1
f 120/225/1 125/224/1 38/11/1
f 38/11/46 118/223/46 126/226/46
f 38/11/1 126/226/1 116/227/1
f 114/228/44 120/225/44 38/11/44
f 115/10/46 114/228/46 38/11/46
f 38/11/46 116/227/46 113/9/46
f 34/12/4 36/229/4 40/13/4
f 33/15/5 35/230/5 36/16/5
f 37/4/6 33/15/6 34/18/6
f 41/231/1 42/22/1 72/21/1
f 42/22/1 43/232/1 71/20/1
f 43/232/1 44/233/1 70/234/1
f 44/233/1 45/235/1 69/236/1
f 45/235/1 46/237/1 68/238/1
f 46/237/1 47/239/1 67/240/1
f 47/239/1 48/241/1 66/242/1
f 48/241/1 49/243/1 65/244/1
f 49/243/1 50/245/1 64/246/1
f 50/245/1 51/247/1 63/248/1
f 51/247/1 52/249/1 62/250/1
f 52/249/1 53/251/1 61/252/1
f 53/251/1 54/253/1 61/252/1
f 54/253/1 55/254/1 60/255/1
f 61/252/1 54/253/1 60/255/1
f 55/254/1 56/256/1 59/257/1
f 56/256/1 57/258/1 58/259/1
f 59/257/1 56/256/1 58/259/1
f 59/257/1 60/255/1 55/254/1
f 61/252/1 62/250/1 52/249/1
f 62/250/1 63/248/1 51/247/1
f 63/248/1 64/246/1 50/245/1
f 64/246/1 65/244/1 49/243/1
f 65/244/1 66/242/1 48/241/1
f 66/242/1 67/240/1 47/239/1
f 67/240/1 68/238/1 46/237/1
f 68/238/1 69/236/1 45/235/1
f 69/236/1 70/234/1 44/233/1
f 70/234/1 71/20/1 43/232/1
f 77/23/2 79/260/2 75/24/2
f 75/24/3 79/260/3 80/26/3
f 80/28/1 79/110/1 98/261/1
f 80/28/43 98/261/43 97/262/43
f 77/263/1 78/264/1 95/265/1
f 78/264/1 80/28/1 92/266/1
f 89/267/1 78/264/1 92/266/1
f 87/268/1 95/265/1 78/264/1
f 89/267/1 87/268/1 78/264/1
f 80/28/1 97/262/1 85/269/1
f 80/28/46 85/269/46 90/270/46
f 80/28/1 90/270/1 91/271/1
f 80/28/44 91/271/44 86/272/44
f 93/273/1 92/266/1 80/28/1
f 88/274/1 93/273/1 80/28/1
f 80/28/1 86/272/1 94/275/1
f 80/28/46 94/275/46 84/276/46
f 82/277/1 88/274/1 80/28/1
f 83/30/46 82/277/46 80/28/46
f 80/28/1 84/276/1 81/29/1
f 74/31/4 76/278/4 80/32/4
f 73/34/5 75/279/5 76/35/5
f 77/37/6 73/280/6 74/38/6
f 84/40/7 50/99/7 49/41/7
f 91/43/47 53/80/47 52/44/47
f 86/45/39 52/44/39 51/46/39
f 106/48/10 66/84/10 65/49/10
f 83/51/11 48/54/11 47/52/11
f 81/42/12 49/41/12 48/54/12
f 88/55/48 46/96/48 45/56/48
f 95/58/14 41/95/14 72/59/14
f 100/61/15 58/100/15 57/62/15
f 110/64/49 68/106/49 67/65/49
f 98/63/17 57/62/17 56/67/17
f 96/60/18 72/59/18 71/69/18
f 93/57/50 45/56/50 44/71/50
f 104/73/51 60/281/51 59/74/51
f 92/76/21 44/282/21 43/77/21
f 90/79/52 54/283/52 53/80/52
f 101/81/53 70/284/53 69/82/53
f 106/48/24 102/66/24 67/65/24
f 85/85/25 55/104/25 54/86/25
f 108/88/54 61/107/54 60/89/54
f 107/91/40 63/105/40 62/92/40
f 87/94/28 42/103/28 41/95/28
f 82/53/55 47/52/55 46/96/55
f 111/50/30 65/49/30 64/97/30
f 94/47/31 51/46/31 50/99/31
f 105/75/32 59/74/32 58/100/32
f 99/70/56 71/69/56 70/101/56
f 89/78/34 43/77/34 42/103/34
f 97/68/35 56/67/35 55/104/35
f 112/98/57 64/97/57 63/105/57
f 109/83/58 69/82/58 68/106/58
f 103/93/59 62/92/59 61/107/59
f 77/263/1 95/265/1 96/285/1
f 77/263/44 96/285/44 99/286/44
f 100/287/60 98/261/60 79/110/60
f 105/288/1 100/287/1 79/110/1
f 79/110/1 77/263/1 101/289/1
f 77/263/44 99/286/44 101/289/44
f 104/290/1 105/288/1 79/110/1
f 108/291/1 104/290/1 79/110/1
f 79/110/46 101/289/46 109/292/46
f 79/110/44 109/292/44 110/293/44
f 103/294/46 108/291/46 79/110/46
f 107/295/1 103/294/1 79/110/1
f 79/110/1 110/293/1 102/296/1
f 79/110/44 102/296/44 106/297/44
f 112/109/44 107/295/44 79/110/44
f 79/110/1 106/297/1 111/108/1
f 116/111/7 10/170/7 9/112/7
f 123/114/47 13/151/47 12/115/47
f 118/116/9 12/115/9 11/117/9
f 138/119/10 26/155/10 25/120/10
f 115/122/11 8/125/11 7/123/11
f 113/113/12 9/112/12 8/125/12
f 120/126/48 6/167/48 5/127/48
f 127/129/14 1/166/14 32/130/14
f 132/132/15 18/171/15 17/133/15
f 142/135/49 28/177/49 27/136/49
f 130/134/17 17/133/17 16/138/17
f 131/140/18 128/131/18 32/130/18
f 125/128/50 5/127/50 4/142/50
f 136/144/51 20/298/51 19/145/51
f 124/147/21 4/299/21 3/148/21
f 122/150/52 14/300/52 13/151/52
f 133/152/53 30/301/53 29/153/53
f 138/119/24 134/137/24 27/136/24
f 117/156/25 15/175/25 14/157/25
f 140/159/54 21/178/54 20/160/54
f 139/162/27 23/176/27 22/163/27
f 119/165/28 2/174/28 1/166/28
f 114/124/55 7/123/55 6/167/55
f 143/121/30 25/120/30 24/168/30
f 126/118/31 11/117/31 10/170/31
f 137/146/32 19/145/32 18/171/32
f 131/140/56 31/141/56 30/172/56
f 121/149/34 3/148/34 2/174/34
f 129/139/35 16/138/35 15/175/35
f 144/169/57 24/168/57 23/176/57
f 141/154/58 29/153/58 28/177/58
f 135/164/59 22/163/59 21/178/59
f 37/179/45 127/218/45 128/302/45
f 37/179/61 128/302/61 131/303/61
f 132/304/62 130/215/62 39/214/62
f 137/305/63 132/304/63 39/214/63
f 37/179/1 131/303/1 133/306/1
f 37/179/1 133/306/1 141/307/1
f 137/305/64 39/214/64 136/308/64
f 39/214/1 37/179/1 140/309/1
f 136/308/1 39/214/1 140/309/1
f 37/179/1 141/307/1 142/310/1
f 37/179/46 142/310/46 134/311/46
f 135/312/1 140/309/1 37/179/1
f 37/179/44 134/311/44 138/313/44
f 37/179/1 138/313/1 143/314/1
f 139/181/1 135/312/1 37/179/1
f 37/179/44 143/314/44 144/180/44
