# Blender v2.90.1 OBJ File: 'plantaBaja.blend'
# www.blender.org
mtllib MesaDeTv.mtl
o Cube.030_Cube.010
v 317.725616 2.771141 -101.598785
v 317.725616 9.112581 -101.598785
v 317.725616 2.771141 -102.565987
v 317.725616 9.112581 -102.565987
v 318.630890 2.771141 -101.598785
v 318.630890 9.112581 -101.598785
v 318.630890 2.771141 -102.565987
v 318.630890 9.112581 -102.565987
v 317.725616 9.112581 -101.598785
v 317.725616 9.112581 -102.565987
v 318.630890 9.112581 -101.598785
v 318.630890 9.112581 -102.565987
v 311.962677 2.771141 -101.598785
v 311.962677 2.771141 -102.565987
v 312.867950 2.771141 -101.598785
v 312.867950 2.771141 -102.565987
v 311.962677 2.771141 -113.577209
v 311.962677 2.771141 -114.544418
v 312.867950 2.771141 -113.577209
v 312.867950 2.771141 -114.544418
v 317.725616 2.771141 -113.577209
v 317.725616 2.771141 -114.544418
v 318.630890 2.771141 -113.577209
v 318.630890 2.771141 -114.544418
v 319.407898 9.086138 -115.203629
v 319.407898 9.864601 -115.203629
v 319.407898 9.086138 -100.939575
v 319.407898 9.864601 -100.939575
v 311.185669 9.086138 -115.203629
v 311.185669 9.864601 -115.203629
v 311.185669 9.086138 -100.939575
v 311.185669 9.864601 -100.939575
v 317.725616 9.086139 -114.544418
v 318.630890 9.086139 -114.544418
v 318.630890 9.086139 -113.577209
v 317.725616 9.086139 -113.577209
v 311.962677 9.086139 -114.544418
v 312.867950 9.086139 -114.544418
v 312.867950 9.086139 -113.577209
v 311.962677 9.086139 -113.577209
v 311.962677 9.086138 -102.565987
v 312.867950 9.086138 -102.565987
v 312.867950 9.086138 -101.598785
v 311.962677 9.086138 -101.598785
v 317.725616 9.086139 -102.565987
v 318.630890 9.086139 -102.565987
v 318.630890 9.086139 -101.598785
v 317.725616 9.086139 -101.598785
v 317.729401 9.086139 -102.565987
v 318.630890 9.086140 -102.561958
v 317.725616 9.086139 -101.602814
v 318.627136 9.086139 -101.598785
v 318.627136 9.086139 -101.598785
v 317.725616 9.086139 -102.565987
v 318.630890 9.086140 -102.561958
v 318.630890 9.086139 -101.598785
v 317.725616 9.086139 -101.602814
v 317.729401 9.086139 -102.565987
vt 0.877362 1.000000
vt 0.877362 0.004170
vt 0.892628 0.004170
vt 0.728012 0.995830
vt 0.703120 1.000000
vt 0.703120 0.995830
vt 0.892692 1.000000
vt 0.892692 0.004170
vt 0.907958 0.004170
vt 0.703120 0.995830
vt 0.678229 1.000000
vt 0.678229 0.995830
vt 0.452152 0.163306
vt 0.467482 0.149790
vt 0.467482 0.163306
vt 0.452152 0.122758
vt 0.467482 0.122758
vt 0.452152 0.136274
vt 0.954011 0.000000
vt 0.938682 0.995830
vt 0.938681 0.000000
vt 0.877362 0.000000
vt 0.852470 0.995830
vt 0.852471 0.000000
vt 0.984670 0.995830
vt 1.000000 0.000000
vt 1.000000 0.995830
vt 0.802687 0.000000
vt 0.777796 0.995830
vt 0.777795 0.000000
vt 0.452152 0.176822
vt 0.467482 0.163306
vt 0.467482 0.176822
vt 0.923351 0.000000
vt 0.908022 0.995830
vt 0.908022 0.000000
vt 0.852470 0.000000
vt 0.827579 0.995830
vt 0.827579 0.000000
vt 0.969341 0.995830
vt 0.984670 0.000000
vt 0.984670 0.995830
vt 0.777795 0.000000
vt 0.752904 0.995830
vt 0.752904 0.000000
vt 0.452152 0.190338
vt 0.467482 0.176822
vt 0.467482 0.190338
vt 0.938681 0.000000
vt 0.923352 0.995830
vt 0.923351 0.000000
vt 0.827579 0.000000
vt 0.802687 0.995830
vt 0.802687 0.000000
vt 0.954011 0.995830
vt 0.969341 0.000000
vt 0.969341 0.995830
vt 0.752904 0.000000
vt 0.728012 0.995830
vt 0.728012 0.000000
vt 0.452152 0.149790
vt 0.467482 0.136274
vt 0.467482 0.149790
vt 0.226076 0.245516
vt 0.046255 0.259513
vt 0.046255 0.251190
vt 0.226076 0.122758
vt 0.452152 0.245516
vt 0.226076 0.245516
vt 0.226076 0.122758
vt 0.452152 0.000000
vt 0.452152 0.122758
vt 0.452152 0.122758
vt 0.678229 0.000000
vt 0.678229 0.122758
vt 0.000000 0.122758
vt 0.226076 0.000000
vt 0.226076 0.122758
vt 0.000000 0.245516
vt 0.226076 0.245516
vt 0.204712 0.259513
vt 0.204712 0.354277
vt 0.179821 0.354277
vt 0.204712 0.251190
vt 0.179821 0.251190
vt 0.000000 0.368274
vt 0.179821 0.362601
vt 0.226076 0.368274
vt 0.452152 0.225694
vt 0.459831 0.225659
vt 0.459832 0.225694
vt 0.046256 0.362601
vt 0.452152 0.203854
vt 0.459832 0.203854
vt 0.459832 0.217314
vt 0.459832 0.225694
vt 0.452152 0.225729
vt 0.452152 0.225694
vt 0.459832 0.203854
vt 0.452152 0.203854
vt 0.452153 0.190394
vt 0.467482 0.136274
vt 0.908022 0.004170
vt 0.908022 0.000000
vt 0.892692 0.000000
vt 0.452152 0.234018
vt 0.459832 0.234018
vt 0.892692 0.004170
vt 0.892692 0.000000
vt 0.892692 1.000000
vt 0.000000 0.000000
vt 0.000000 0.000000
vt 0.000000 0.000000
vt 0.000000 0.000000
vt 0.703120 0.000000
vt 0.728012 0.000000
vt 0.728012 1.000000
vt 0.908021 1.000000
vt 0.000000 0.000000
vt 0.000000 0.000000
vt 0.000000 0.000000
vt 0.000000 0.000000
vt 0.678229 0.000000
vt 0.703120 0.000000
vt 0.703120 1.000000
vt 0.452152 0.149790
vt 0.954011 0.995830
vt 0.877362 0.995830
vt 0.984670 0.000000
vt 0.802687 0.995830
vt 0.452152 0.163306
vt 0.923351 0.995830
vt 0.852470 0.995830
vt 0.969341 0.000000
vt 0.777795 0.995830
vt 0.452152 0.176822
vt 0.938681 0.995830
vt 0.827579 0.995830
vt 0.954011 0.000000
vt 0.752904 0.995830
vt 0.452152 0.136274
vt 0.021364 0.251190
vt 0.000000 0.245516
vt 0.452152 0.122758
vt 0.226076 0.000000
vt 0.452152 0.000000
vt 0.000000 0.000000
vt 0.021364 0.259513
vt 0.179821 0.259513
vt 0.046256 0.354277
vt 0.046152 0.354277
vt 0.021364 0.354277
vt 0.046256 0.362567
vt 0.204712 0.362601
vt 0.459832 0.217370
vt 0.021364 0.354312
vt 0.021364 0.362601
vt 0.021468 0.362601
vt 0.459832 0.217370
vt 0.452152 0.217370
vt 0.452152 0.190338
vt 0.459832 0.190338
vn 1.0000 0.0000 0.0000
vn 0.0000 0.0000 1.0000
vn -1.0000 0.0000 0.0000
vn 0.0000 0.0000 -1.0000
vn 0.0000 1.0000 0.0000
vn 0.0000 -1.0000 0.0000
vn 0.0005 1.0000 -0.0003
vn -1.0000 -0.0024 0.0000
usemtl Material.072
s off
f 3/1/1 45/2/1 51/3/1
f 46/4/2 4/5/2 54/6/2
f 5/7/3 47/8/3 50/9/3
f 48/10/4 6/11/4 56/12/4
f 1/13/5 7/14/5 3/15/5
f 8/16/6 6/17/6 4/18/6
f 14/19/1 44/20/1 13/21/1
f 16/22/2 41/23/2 14/24/2
f 15/25/3 42/26/3 16/27/3
f 13/28/4 43/29/4 15/30/4
f 13/31/5 16/32/5 14/33/5
f 18/34/1 40/35/1 17/36/1
f 20/37/2 37/38/2 18/39/2
f 19/40/3 38/41/3 20/42/3
f 17/43/4 39/44/4 19/45/4
f 17/46/5 20/47/5 18/48/5
f 22/49/1 36/50/1 21/51/1
f 24/52/2 33/53/2 22/54/2
f 23/55/3 34/56/3 24/57/3
f 21/58/4 35/59/4 23/60/4
f 21/61/5 24/62/5 22/63/5
f 29/64/5 36/65/5 33/66/5
f 27/67/4 32/68/4 28/69/4
f 31/70/1 30/71/1 32/72/1
f 26/73/6 32/74/6 30/75/6
f 25/76/3 28/77/3 26/78/3
f 29/79/2 26/78/2 30/80/2
f 40/81/5 41/82/5 42/83/5
f 29/64/5 37/84/5 38/85/5
f 27/86/5 43/87/5 31/88/5
f 12/89/1 55/90/1 46/91/1
f 48/92/5 42/83/5 27/86/5
f 12/93/4 46/94/4 58/95/4
f 9/96/3 57/97/3 48/98/3
f 9/99/2 48/100/2 53/101/2
f 4/18/6 6/17/6 2/102/6
f 46/103/3 50/9/3 8/104/3
f 8/104/3 50/9/3 47/8/3
f 8/104/3 47/8/3 6/105/3
f 45/106/3 9/96/3 10/107/3
f 48/108/1 51/3/1 2/109/1
f 48/108/1 1/110/1 51/3/1
f 1/110/1 3/1/1 51/3/1
f 54/111/2 4/112/2 45/113/2
f 3/114/2 54/111/2 45/113/2
f 54/6/2 3/115/2 7/116/2
f 46/4/2 8/117/2 4/5/2
f 54/6/2 7/116/2 46/4/2
f 46/103/3 7/118/3 50/9/3
f 7/118/3 5/7/3 50/9/3
f 56/119/2 6/120/2 47/121/2
f 5/122/2 56/119/2 47/121/2
f 56/12/4 5/123/4 1/124/4
f 48/10/4 2/125/4 6/11/4
f 56/12/4 1/124/4 48/10/4
f 1/13/5 5/126/5 7/14/5
f 14/19/1 41/127/1 44/20/1
f 16/22/2 42/128/2 41/23/2
f 15/25/3 43/129/3 42/26/3
f 13/28/4 44/130/4 43/29/4
f 13/31/5 15/131/5 16/32/5
f 18/34/1 37/132/1 40/35/1
f 20/37/2 38/133/2 37/38/2
f 19/40/3 39/134/3 38/41/3
f 17/43/4 40/135/4 39/44/4
f 17/46/5 19/136/5 20/47/5
f 22/49/1 33/137/1 36/50/1
f 24/52/2 34/138/2 33/53/2
f 23/55/3 35/139/3 34/56/3
f 21/58/4 36/140/4 35/59/4
f 21/61/5 23/141/5 24/62/5
f 34/142/5 25/143/5 33/66/5
f 25/143/5 29/64/5 33/66/5
f 27/67/4 31/144/4 32/68/4
f 31/70/1 29/145/1 30/71/1
f 26/73/6 28/146/6 32/74/6
f 25/76/3 27/147/3 28/77/3
f 29/79/2 25/76/2 26/78/2
f 25/143/5 34/142/5 35/148/5
f 36/65/5 38/85/5 39/149/5
f 27/86/5 25/143/5 35/148/5
f 36/65/5 39/149/5 45/150/5
f 39/149/5 40/81/5 42/83/5
f 36/65/5 58/151/5 35/148/5
f 27/86/5 35/148/5 46/152/5
f 46/152/5 35/148/5 58/151/5
f 45/150/5 58/151/5 36/65/5
f 45/150/5 39/149/5 42/83/5
f 40/81/5 29/64/5 31/88/5
f 48/92/5 57/153/5 42/83/5
f 57/153/5 45/150/5 42/83/5
f 31/88/5 44/154/5 41/82/5
f 40/81/5 31/88/5 41/82/5
f 29/64/5 40/81/5 37/84/5
f 38/85/5 36/65/5 29/64/5
f 27/86/5 42/83/5 43/87/5
f 43/87/5 44/154/5 31/88/5
f 12/89/1 47/155/1 55/90/1
f 27/86/7 46/152/7 55/156/7
f 47/157/5 53/158/5 27/86/5
f 53/158/5 48/92/5 27/86/5
f 27/86/5 55/156/5 47/157/5
f 58/95/4 45/159/4 10/160/4
f 10/160/4 12/93/4 58/95/4
f 9/96/8 45/106/8 57/97/8
f 53/101/2 47/161/2 11/162/2
f 11/162/2 9/99/2 53/101/2
l 45 49
l 4 49
l 10 49
l 46 49
l 12 50
l 9 51
l 48 52
l 11 52
l 47 52
l 6 52
