# Blender v2.82 (sub 7) OBJ File: 'CasaSimpson.blend'
# www.blender.org
mtllib Buzon.mtl
o Cube.023_Cube.024
v 662.988831 16.188705 -54.649391
v 662.988831 -0.452834 -54.649391
v 662.988831 16.188705 -53.547913
v 662.988831 -0.452834 -53.547913
v 661.520813 16.188705 -54.649391
v 661.520813 -0.452834 -54.649391
v 661.520813 16.188705 -53.547913
v 661.520813 -0.452834 -53.547913
v 658.504333 16.196583 -51.838161
v 666.014648 16.196583 -51.838161
v 658.504333 17.264299 -51.972736
v 666.014648 17.264297 -51.972736
v 658.504333 18.248310 -52.191277
v 666.014648 18.248310 -52.191277
v 658.504333 19.110804 -52.485378
v 666.014648 19.110804 -52.485378
v 658.504333 19.818632 -52.843746
v 666.014648 19.818632 -52.843746
v 658.504333 20.344599 -53.252602
v 666.014648 20.344599 -53.252602
v 658.504333 20.668484 -53.696236
v 666.014648 20.668484 -53.696236
v 658.504333 20.777847 -54.157604
v 666.014648 20.777847 -54.157604
v 658.504333 20.668482 -54.618969
v 666.014648 20.668482 -54.618969
v 658.504333 20.344593 -55.062603
v 666.014648 20.344593 -55.062603
v 658.504333 19.818626 -55.471462
v 666.014648 19.818626 -55.471462
v 658.504333 19.110796 -55.829826
v 666.014648 19.110796 -55.829826
v 658.504333 18.248301 -56.123928
v 666.014648 18.248301 -56.123928
v 658.504333 17.264288 -56.342468
v 666.014648 17.264288 -56.342468
v 658.504333 16.196573 -56.477043
v 666.014648 16.196573 -56.477043
v 665.951782 16.196583 -51.843792
v 666.432983 16.196583 -51.843792
v 665.951782 17.264297 -51.978367
v 666.432983 17.264297 -51.978367
v 665.951782 18.248310 -52.196907
v 666.432983 18.248310 -52.196907
v 665.951782 19.110804 -52.491009
v 666.432983 19.110804 -52.491009
v 665.951782 19.818632 -52.849377
v 666.432983 19.818632 -52.849377
v 665.951782 20.344599 -53.258232
v 666.432983 20.344599 -53.258232
v 665.951782 20.668484 -53.701866
v 666.432983 20.668484 -53.701866
v 665.951782 20.777847 -54.163235
v 666.432983 20.777847 -54.163235
v 665.951782 20.668482 -54.624599
v 666.432983 20.668482 -54.624599
v 665.951782 20.344593 -55.068233
v 666.432983 20.344593 -55.068233
v 665.951782 19.818626 -55.477093
v 666.432983 19.818626 -55.477093
v 665.951782 19.110796 -55.835457
v 666.432983 19.110796 -55.835457
v 665.951782 18.248301 -56.129559
v 666.432983 18.248301 -56.129559
v 665.951782 17.264288 -56.348099
v 666.432983 17.264288 -56.348099
v 665.951782 16.196573 -56.482674
v 666.432983 16.196573 -56.482674
vt 0.430043 0.726122
vt 0.322533 0.607399
vt 0.430043 0.607399
vt 0.215022 0.607399
vt 0.322533 0.726122
vt 0.215022 0.726122
vt 0.430043 0.726122
vt 0.537554 0.607399
vt 0.537554 0.726122
vt 0.537554 0.726122
vt 0.645065 0.607399
vt 0.645065 0.726122
vt 0.107511 0.726122
vt 0.000000 0.607400
vt 0.107511 0.607399
vt 0.107511 0.726122
vt 0.215022 0.607399
vt 0.215022 0.726122
vt 0.452783 0.000000
vt 0.465919 0.607399
vt 0.452783 0.607399
vt 0.465919 0.000000
vt 0.487249 0.607399
vt 0.487249 0.000000
vt 0.515956 0.607399
vt 0.515956 0.000000
vt 0.550934 0.607399
vt 0.550934 0.000000
vt 0.590841 0.607399
vt 0.590841 0.000000
vt 0.634143 0.607399
vt 0.634143 0.000000
vt 0.679175 0.607399
vt 0.679175 0.000000
vt 0.724207 0.607399
vt 0.724207 0.000000
vt 0.767509 0.607399
vt 0.767508 0.000000
vt 0.807415 0.607399
vt 0.807415 0.000000
vt 0.842394 0.607399
vt 0.871100 0.000000
vt 0.871100 0.607399
vt 0.892431 0.607399
vt 0.892431 0.000000
vt 0.905566 0.607399
vt 0.452783 0.000000
vt 0.000000 0.607399
vt 0.000000 0.000000
vt 0.986745 0.538060
vt 0.993102 0.514505
vt 1.000000 0.500000
vt 0.951576 0.069760
vt 0.957148 0.038060
vt 0.970403 0.000000
vt 0.940806 0.000000
vt 0.905566 0.014505
vt 0.905566 0.000000
vt 0.940806 0.014505
vt 0.905566 0.038060
vt 0.940806 0.038060
vt 0.905566 0.069760
vt 0.940806 0.069760
vt 0.905566 0.108386
vt 0.940806 0.108386
vt 0.905566 0.152455
vt 0.940806 0.152455
vt 0.905566 0.200272
vt 0.940806 0.200272
vt 0.905566 0.250000
vt 0.940806 0.250000
vt 0.905566 0.299728
vt 0.940806 0.299728
vt 0.905566 0.347545
vt 0.940806 0.347545
vt 0.905566 0.391614
vt 0.940806 0.430240
vt 0.905566 0.430240
vt 0.905566 0.461940
vt 0.940806 0.461940
vt 0.905566 0.485495
vt 0.940806 0.485495
vt 0.905566 0.500000
vt 0.940806 1.000000
vt 0.905566 0.500000
vt 0.940806 0.500000
vt 0.986745 0.038060
vt 0.993102 0.014505
vt 1.000000 0.000000
vt 0.951576 0.569760
vt 0.957148 0.538060
vt 0.970403 0.500000
vt 0.322533 0.726122
vt 0.322533 0.607399
vt 0.430043 0.607399
vt 0.537554 0.607399
vt 0.000000 0.726122
vt 0.107511 0.607400
vt 0.842394 0.000000
vt 0.905566 0.000000
vt 0.452783 0.607399
vt 1.000000 1.000000
vt 0.970403 0.750000
vt 0.993102 0.985495
vt 0.986745 0.961940
vt 0.973202 0.847545
vt 0.976600 0.891613
vt 0.981173 0.930240
vt 0.971110 0.799728
vt 0.971110 0.700272
vt 0.973202 0.652455
vt 0.976600 0.608386
vt 0.981173 0.569760
vt 0.963505 0.014505
vt 0.970403 0.500000
vt 0.940806 0.250000
vt 0.963505 0.485495
vt 0.957148 0.461940
vt 0.951576 0.430240
vt 0.947003 0.391614
vt 0.943605 0.347545
vt 0.941513 0.299728
vt 0.941513 0.200272
vt 0.943605 0.152455
vt 0.947003 0.108386
vt 0.940806 0.391614
vt 0.940806 0.500000
vt 0.905566 1.000000
vt 1.000000 0.500000
vt 0.970403 0.250000
vt 0.993102 0.485495
vt 0.986745 0.461940
vt 0.973202 0.347545
vt 0.976600 0.391613
vt 0.981173 0.430240
vt 0.971110 0.299728
vt 0.971110 0.200272
vt 0.973202 0.152455
vt 0.976600 0.108386
vt 0.981173 0.069760
vt 0.963505 0.514505
vt 0.970403 1.000000
vt 0.940806 0.750000
vt 0.963505 0.985495
vt 0.957148 0.961940
vt 0.951576 0.930240
vt 0.947003 0.891614
vt 0.943605 0.847545
vt 0.941513 0.799728
vt 0.941513 0.700272
vt 0.943605 0.652455
vt 0.947003 0.608387
vn 0.0000 1.0000 0.0000
vn 0.0000 0.0000 1.0000
vn -1.0000 0.0000 0.0000
vn 0.0000 -1.0000 0.0000
vn 1.0000 0.0000 0.0000
vn 0.0000 0.0000 -1.0000
vn 0.0000 0.1251 0.9922
vn 0.0000 0.2168 0.9762
vn 0.0000 0.3227 0.9465
vn 0.0000 0.4517 0.8922
vn 0.0000 0.6137 0.7895
vn 0.0000 0.8077 0.5896
vn 0.0000 0.9730 0.2306
vn 0.0000 0.9730 -0.2307
vn 0.0000 0.8077 -0.5896
vn 0.0000 0.6137 -0.7895
vn 0.0000 0.4517 -0.8922
vn 0.0000 0.3227 -0.9465
vn 0.0000 0.2168 -0.9762
vn 0.0000 0.1251 -0.9922
vn 1.0000 0.0001 0.0000
vn 0.0000 0.3228 0.9465
vn 0.0000 0.6137 0.7896
vn 0.0000 0.6137 -0.7896
vn 0.0000 0.3228 -0.9465
vn -1.0000 -0.0002 0.0000
vn -0.0000 0.1250 0.9922
vn 0.0000 0.8077 0.5897
vn 0.0000 0.8076 -0.5897
vn 0.0000 0.1250 -0.9922
vn -1.0000 -0.0001 0.0000
vn 1.0000 -0.0001 0.0000
vn 0.0000 0.6138 0.7895
vn 0.0000 0.8076 0.5897
vn 0.0000 0.9730 0.2307
vn 0.0000 0.9730 -0.2306
vn 0.0000 0.6138 -0.7895
vn -1.0000 0.0001 0.0000
vn -1.0000 0.0002 0.0000
vn 1.0000 -0.0002 0.0000
g Cube.023_Cube.024_Buzon
usemtl Buzon
s off
f 5/1/1 3/2/1 1/3/1
f 3/4/2 8/5/2 4/6/2
f 7/7/3 6/8/3 8/9/3
f 2/10/4 8/11/4 6/12/4
f 1/13/5 4/14/5 2/15/5
f 5/16/6 2/17/6 6/18/6
f 10/19/7 11/20/7 9/21/7
f 12/22/8 13/23/8 11/20/8
f 14/24/9 15/25/9 13/23/9
f 16/26/10 17/27/10 15/25/10
f 18/28/11 19/29/11 17/27/11
f 20/30/12 21/31/12 19/29/12
f 22/32/13 23/33/13 21/31/13
f 24/34/14 25/35/14 23/33/14
f 26/36/15 27/37/15 25/35/15
f 28/38/16 29/39/16 27/37/16
f 30/40/17 31/41/17 29/39/17
f 31/41/18 34/42/18 33/43/18
f 34/42/19 35/44/19 33/43/19
f 36/45/20 37/46/20 35/44/20
f 37/47/4 10/48/4 9/49/4
f 33/50/3 35/51/3 37/52/3
f 16/53/21 14/54/21 10/55/21
f 40/56/7 41/57/7 39/58/7
f 42/59/8 43/60/8 41/57/8
f 44/61/22 45/62/22 43/60/22
f 46/63/10 47/64/10 45/62/10
f 48/65/23 49/66/23 47/64/23
f 50/67/12 51/68/12 49/66/12
f 52/69/13 53/70/13 51/68/13
f 54/71/14 55/72/14 53/70/14
f 56/73/15 57/74/15 55/72/15
f 58/75/24 59/76/24 57/74/24
f 59/76/17 62/77/17 61/78/17
f 62/77/25 63/79/25 61/78/25
f 64/80/19 65/81/19 63/79/19
f 66/82/20 67/83/20 65/81/20
f 67/84/4 40/85/4 39/86/4
f 63/87/26 65/88/26 67/89/26
f 46/90/21 44/91/21 40/92/21
f 5/1/1 7/93/1 3/2/1
f 3/4/2 7/94/2 8/5/2
f 7/7/3 5/95/3 6/8/3
f 2/10/4 4/96/4 8/11/4
f 1/13/5 3/97/5 4/14/5
f 5/16/6 1/98/6 2/17/6
f 10/19/27 12/22/27 11/20/27
f 12/22/8 14/24/8 13/23/8
f 14/24/9 16/26/9 15/25/9
f 16/26/10 18/28/10 17/27/10
f 18/28/11 20/30/11 19/29/11
f 20/30/28 22/32/28 21/31/28
f 22/32/13 24/34/13 23/33/13
f 24/34/14 26/36/14 25/35/14
f 26/36/29 28/38/29 27/37/29
f 28/38/16 30/40/16 29/39/16
f 30/40/17 32/99/17 31/41/17
f 31/41/18 32/99/18 34/42/18
f 34/42/19 36/45/19 35/44/19
f 36/45/30 38/100/30 37/46/30
f 37/47/4 38/101/4 10/48/4
f 37/52/3 9/102/3 23/103/3
f 9/102/3 11/104/3 13/105/3
f 19/106/3 9/102/3 17/107/3
f 13/105/3 15/108/3 9/102/3
f 15/108/3 17/107/3 9/102/3
f 19/106/3 21/109/3 9/102/3
f 21/109/3 23/103/3 9/102/3
f 23/103/3 25/110/3 37/52/3
f 25/110/31 27/111/31 37/52/31
f 27/111/3 29/112/3 37/52/3
f 29/112/3 31/113/3 37/52/3
f 31/113/3 33/50/3 37/52/3
f 14/54/5 12/114/5 10/55/5
f 10/55/5 38/115/5 24/116/5
f 38/115/5 36/117/5 34/118/5
f 32/119/21 38/115/21 34/118/21
f 32/119/5 30/120/5 38/115/5
f 30/120/5 28/121/5 38/115/5
f 28/121/5 26/122/5 38/115/5
f 26/122/5 24/116/5 38/115/5
f 24/116/5 22/123/5 10/55/5
f 22/123/5 20/124/5 10/55/5
f 20/124/5 18/125/5 10/55/5
f 18/125/32 16/53/32 10/55/32
f 40/56/7 42/59/7 41/57/7
f 42/59/8 44/61/8 43/60/8
f 44/61/9 46/63/9 45/62/9
f 46/63/10 48/65/10 47/64/10
f 48/65/33 50/67/33 49/66/33
f 50/67/34 52/69/34 51/68/34
f 52/69/35 54/71/35 53/70/35
f 54/71/36 56/73/36 55/72/36
f 56/73/29 58/75/29 57/74/29
f 58/75/37 60/126/37 59/76/37
f 59/76/17 60/126/17 62/77/17
f 62/77/18 64/80/18 63/79/18
f 64/80/19 66/82/19 65/81/19
f 66/82/20 68/127/20 67/83/20
f 67/84/4 68/128/4 40/85/4
f 67/89/3 39/129/3 53/130/3
f 39/129/3 41/131/3 43/132/3
f 49/133/38 39/129/38 47/134/38
f 43/132/39 45/135/39 39/129/39
f 45/135/26 47/134/26 39/129/26
f 49/133/3 51/136/3 39/129/3
f 51/136/31 53/130/31 39/129/31
f 53/130/3 55/137/3 67/89/3
f 55/137/31 57/138/31 67/89/31
f 57/138/38 59/139/38 67/89/38
f 59/139/31 61/140/31 67/89/31
f 61/140/38 63/87/38 67/89/38
f 44/91/40 42/141/40 40/92/40
f 40/92/5 68/142/5 54/143/5
f 68/142/5 66/144/5 64/145/5
f 62/146/21 68/142/21 64/145/21
f 62/146/5 60/147/5 68/142/5
f 60/147/5 58/148/5 68/142/5
f 58/148/5 56/149/5 68/142/5
f 56/149/32 54/143/32 68/142/32
f 54/143/5 52/150/5 40/92/5
f 52/150/21 50/151/21 40/92/21
f 50/151/32 48/152/32 40/92/32
f 48/152/21 46/90/21 40/92/21
