# Blender v2.90.1 OBJ File: 'plantaBaja.blend'
# www.blender.org
mtllib derAbajo.mtl
o Cube.096_Cube.100
v 319.742584 11.269097 -60.841022
v 319.742584 11.885578 -60.841022
v 319.742584 11.269097 -69.901825
v 319.742584 11.885578 -69.901825
v 327.944946 11.269097 -60.841022
v 327.944946 11.885578 -60.841022
v 327.944946 11.269097 -69.901825
v 327.944946 11.885578 -69.901825
v 320.609039 4.136244 -61.467365
v 320.609039 5.897616 -61.467365
v 320.609039 4.136244 -61.549736
v 320.609039 5.897616 -61.549736
v 323.343170 4.136244 -61.467365
v 323.343170 5.897616 -61.467365
v 323.343170 4.136244 -61.549736
v 323.343170 5.897616 -61.549736
v 320.567596 6.548296 -61.467365
v 320.567596 8.309669 -61.467365
v 320.567596 6.548296 -61.549736
v 320.567596 8.309669 -61.549736
v 323.301697 6.548296 -61.467365
v 323.301697 8.309669 -61.467365
v 323.301697 6.548296 -61.549736
v 323.301697 8.309669 -61.549736
v 320.564545 8.894132 -61.467365
v 320.564545 10.655504 -61.467365
v 320.564545 8.894132 -61.549736
v 320.564545 10.655504 -61.549736
v 323.298676 8.894132 -61.467365
v 323.298676 10.655504 -61.467365
v 323.298676 8.894132 -61.549736
v 323.298676 10.655504 -61.549736
v 324.084351 4.171881 -61.467365
v 324.084351 7.166214 -61.467365
v 324.084351 4.171881 -61.549736
v 324.084351 7.166214 -61.549736
v 326.818481 4.171881 -61.467365
v 326.818481 7.166214 -61.467365
v 326.818481 4.171881 -61.549736
v 326.818481 7.166214 -61.549736
v 324.084351 7.628082 -61.467365
v 324.084351 10.622415 -61.467365
v 324.084351 7.628082 -61.549736
v 324.084351 10.622415 -61.549736
v 326.818481 7.628082 -61.467365
v 326.818481 10.622415 -61.467365
v 326.818481 7.628082 -61.549736
v 326.818481 10.622415 -61.549736
v 319.668060 3.352956 -61.577126
v 319.668060 11.279131 -61.577126
v 319.668060 3.352956 -69.814217
v 319.668060 11.279131 -69.814217
v 327.323578 3.352956 -61.577126
v 327.323578 3.352956 -69.814217
v 319.742584 11.279131 -69.814217
v 319.742584 11.279131 -61.577126
v 319.742584 11.269097 -69.814217
v 319.742584 11.269097 -61.577126
v 327.323578 11.269097 -61.577126
v 327.323578 11.269097 -69.814217
vt 0.812274 0.354839
vt 0.812274 0.000000
vt 0.837134 0.326011
vt 0.837545 0.345622
vt 0.862816 0.000000
vt 0.862816 0.345622
vt 0.974729 0.709677
vt 1.000000 0.354839
vt 1.000000 0.709677
vt 0.888086 0.000000
vt 0.862816 0.345622
vt 0.862816 0.000000
vt 0.374489 0.028827
vt 0.374489 0.351408
vt 0.348117 0.354839
vt 0.000000 0.354839
vt 0.348117 0.000000
vt 0.348117 0.354839
vt 0.699484 0.243728
vt 0.702733 0.315412
vt 0.699484 0.315412
vt 0.721610 0.799283
vt 0.649408 0.914491
vt 0.649408 0.799283
vt 0.705982 0.315412
vt 0.702733 0.243728
vt 0.705982 0.243728
vt 0.938217 0.799283
vt 0.866015 0.914491
vt 0.866015 0.799283
vt 0.910830 0.230415
vt 0.907581 0.115207
vt 0.910830 0.115207
vt 0.904332 0.115207
vt 0.907581 0.230415
vt 0.904332 0.230415
vt 0.705982 0.243728
vt 0.709231 0.315412
vt 0.705982 0.315412
vt 0.793812 0.799283
vt 0.721610 0.914491
vt 0.721610 0.799283
vt 0.712480 0.315412
vt 0.709231 0.243728
vt 0.712480 0.243728
vt 0.953689 0.677419
vt 0.881486 0.792627
vt 0.881486 0.677419
vt 0.907581 0.237071
vt 0.910830 0.352279
vt 0.907581 0.352279
vt 0.901083 0.237071
vt 0.904332 0.352279
vt 0.901083 0.352279
vt 0.696235 0.243728
vt 0.699484 0.315412
vt 0.696235 0.315412
vt 0.866015 0.799283
vt 0.793813 0.914491
vt 0.793812 0.799283
vt 0.715730 0.315412
vt 0.712480 0.243728
vt 0.715730 0.243728
vt 0.888086 0.115207
vt 0.960289 0.000000
vt 0.960289 0.115207
vt 0.907581 0.352279
vt 0.904332 0.237071
vt 0.907581 0.237071
vt 0.901083 0.115207
vt 0.904332 0.230415
vt 0.901083 0.230415
vt 0.888086 0.115207
vt 0.891335 0.237071
vt 0.888086 0.237071
vt 0.765447 0.799283
vt 0.649408 0.677419
vt 0.765447 0.677419
vt 0.901083 0.237071
vt 0.897834 0.115207
vt 0.901083 0.115207
vt 0.696235 0.121864
vt 0.812274 0.243728
vt 0.696235 0.243728
vt 0.894585 0.352279
vt 0.891335 0.237071
vt 0.894585 0.237071
vt 0.894585 0.237071
vt 0.897834 0.352279
vt 0.894585 0.352279
vt 0.894585 0.237071
vt 0.891335 0.115207
vt 0.894585 0.115207
vt 0.812274 0.121864
vt 0.696235 0.000000
vt 0.812274 0.000000
vt 0.897834 0.237071
vt 0.894585 0.115207
vt 0.897834 0.115207
vt 0.765447 0.677419
vt 0.881486 0.799283
vt 0.765447 0.799283
vt 0.891335 0.352279
vt 0.888086 0.237071
vt 0.891335 0.237071
vt 0.897834 0.237071
vt 0.901083 0.352279
vt 0.897834 0.352279
vt 0.324910 0.677419
vt 0.649819 0.354839
vt 0.649819 0.677419
vt 0.003164 0.355247
vt 0.324910 0.355247
vt 0.324910 0.677419
vt 0.324910 1.000000
vt 0.649408 0.677419
vt 0.649408 1.000000
vt 0.652983 0.677011
vt 0.649819 0.677419
vt 0.649819 0.354839
vt 0.000000 1.000000
vt 0.324910 0.677419
vt 0.324910 1.000000
vt 0.963452 0.322581
vt 0.960289 0.000000
vt 0.963452 0.000000
vt 0.837545 0.326012
vt 0.837545 0.354839
vt 0.837545 0.000000
vt 0.837134 0.003431
vt 0.837545 0.003431
vt 0.837545 0.000000
vt 0.974729 0.354839
vt 0.888086 0.345622
vt 0.696235 0.351408
vt 0.696235 0.354839
vt 0.348117 0.000000
vt 0.696235 0.000000
vt 0.696235 0.028827
vt 0.000000 0.000000
vt 0.702733 0.243728
vt 0.721610 0.914491
vt 0.702733 0.315412
vt 0.938217 0.914491
vt 0.907581 0.230415
vt 0.907581 0.115207
vt 0.709231 0.243728
vt 0.793813 0.914491
vt 0.709231 0.315412
vt 0.953689 0.792627
vt 0.910830 0.237071
vt 0.904332 0.237071
vt 0.699484 0.243728
vt 0.866015 0.914491
vt 0.712480 0.315412
vt 0.888086 0.000000
vt 0.904332 0.352279
vt 0.904332 0.115207
vt 0.891335 0.115207
vt 0.649408 0.799283
vt 0.897834 0.237071
vt 0.812274 0.121864
vt 0.891335 0.352279
vt 0.897834 0.237071
vt 0.891335 0.237071
vt 0.696235 0.121864
vt 0.894585 0.237071
vt 0.881486 0.677419
vt 0.888086 0.352279
vt 0.901083 0.237071
vt 0.324910 0.354839
vt 0.000000 0.677419
vt 0.000000 0.354839
vt 0.003164 0.354839
vt 0.324910 0.677419
vt 0.974729 0.354839
vt 0.974729 0.677011
vt 0.652983 0.677419
vt 0.000000 0.677419
vt 0.960289 0.322581
vn -1.0000 0.0000 0.0000
vn 0.0000 0.0000 -1.0000
vn 1.0000 0.0000 0.0000
vn 0.0000 0.0000 1.0000
vn 0.0000 -1.0000 0.0000
vn 0.0000 1.0000 0.0000
vn -0.0002 0.0000 -1.0000
usemtl Material.003
s off
f 2/1/1 4/2/1 56/3/1
f 4/4/2 7/5/2 3/6/2
f 8/7/3 5/8/3 7/9/3
f 6/10/4 1/11/4 5/12/4
f 59/13/5 60/14/5 7/15/5
f 4/16/6 6/17/6 8/18/6
f 10/19/1 11/20/1 9/21/1
f 12/22/2 15/23/2 11/24/2
f 16/25/3 13/26/3 15/27/3
f 14/28/4 9/29/4 13/30/4
f 15/31/5 9/32/5 11/33/5
f 12/34/6 14/35/6 16/36/6
f 18/37/1 19/38/1 17/39/1
f 20/40/2 23/41/2 19/42/2
f 24/43/3 21/44/3 23/45/3
f 22/46/4 17/47/4 21/48/4
f 23/49/5 17/50/5 19/51/5
f 20/52/6 22/53/6 24/54/6
f 26/55/1 27/56/1 25/57/1
f 28/58/2 31/59/2 27/60/2
f 32/61/3 29/62/3 31/63/3
f 30/64/4 25/65/4 29/66/4
f 31/67/5 25/68/5 27/69/5
f 28/70/6 30/71/6 32/72/6
f 34/73/1 35/74/1 33/75/1
f 36/76/2 39/77/2 35/78/2
f 40/79/3 37/80/3 39/81/3
f 38/82/4 33/83/4 37/84/4
f 39/85/5 33/86/5 35/87/5
f 36/88/6 38/89/6 40/90/6
f 42/91/1 43/92/1 41/93/1
f 44/94/2 47/95/2 43/96/2
f 48/97/3 45/98/3 47/99/3
f 46/100/4 41/101/4 45/102/4
f 47/103/5 41/104/5 43/105/5
f 44/106/6 46/107/6 48/108/6
f 50/109/1 51/110/1 49/111/1
f 57/112/2 60/113/2 54/114/2
f 60/115/3 53/116/3 54/117/3
f 58/118/4 50/119/4 49/120/4
f 54/121/5 49/122/5 51/123/5
f 55/124/6 50/125/6 56/126/6
f 58/127/1 1/128/1 56/3/1
f 1/128/1 2/1/1 56/3/1
f 4/2/1 3/129/1 55/130/1
f 3/129/1 57/131/1 55/130/1
f 4/2/1 55/130/1 56/3/1
f 4/4/2 8/132/2 7/5/2
f 8/7/3 6/133/3 5/8/3
f 6/10/4 2/134/4 1/11/4
f 57/135/5 3/136/5 60/14/5
f 3/136/5 7/15/5 60/14/5
f 5/137/5 1/138/5 59/13/5
f 1/138/5 58/139/5 59/13/5
f 5/137/5 59/13/5 7/15/5
f 4/16/6 2/140/6 6/17/6
f 10/19/1 12/141/1 11/20/1
f 12/22/2 16/142/2 15/23/2
f 16/25/3 14/143/3 13/26/3
f 14/28/4 10/144/4 9/29/4
f 15/31/5 13/145/5 9/32/5
f 12/34/6 10/146/6 14/35/6
f 18/37/1 20/147/1 19/38/1
f 20/40/2 24/148/2 23/41/2
f 24/43/3 22/149/3 21/44/3
f 22/46/4 18/150/4 17/47/4
f 23/49/5 21/151/5 17/50/5
f 20/52/6 18/152/6 22/53/6
f 26/55/1 28/153/1 27/56/1
f 28/58/2 32/154/2 31/59/2
f 32/61/3 30/155/3 29/62/3
f 30/64/4 26/156/4 25/65/4
f 31/67/5 29/157/5 25/68/5
f 28/70/6 26/158/6 30/71/6
f 34/73/1 36/159/1 35/74/1
f 36/76/2 40/160/2 39/77/2
f 40/79/3 38/161/3 37/80/3
f 38/82/4 34/162/4 33/83/4
f 39/85/5 37/163/5 33/86/5
f 36/88/6 34/164/6 38/89/6
f 42/91/1 44/165/1 43/92/1
f 44/94/2 48/166/2 47/95/2
f 48/97/3 46/167/3 45/98/3
f 46/100/4 42/168/4 41/101/4
f 47/103/5 45/169/5 41/104/5
f 44/106/6 42/170/6 46/107/6
f 50/109/1 52/171/1 51/110/1
f 54/114/2 51/172/2 57/112/2
f 51/172/7 52/173/7 57/112/7
f 52/173/2 55/174/2 57/112/2
f 60/115/3 59/175/3 53/116/3
f 49/120/4 53/176/4 58/118/4
f 53/176/4 59/177/4 58/118/4
f 58/118/4 56/178/4 50/119/4
f 54/121/5 53/179/5 49/122/5
f 55/124/6 52/180/6 50/125/6
