# Blender v2.90.1 OBJ File: 'plantaBaja.blend'
# www.blender.org
mtllib derArriba.mtl
o Cube.087_Cube.091
v 315.883514 23.297955 -66.379333
v 315.883514 29.808441 -66.379333
v 320.533875 23.297955 -66.379333
v 320.533875 29.808441 -66.379333
v 320.580383 23.297955 -66.379333
v 320.580383 29.808441 -66.379333
v 325.230743 23.297955 -66.379333
v 325.230743 29.808441 -66.379333
v 326.554138 23.297955 -66.379333
v 326.554138 29.808441 -66.379333
v 331.204498 23.297955 -66.379333
v 331.204498 29.808441 -66.379333
v 314.017151 22.239861 -66.464722
v 314.017151 30.610489 -66.464722
v 314.017151 22.239861 -70.184998
v 314.017151 30.610489 -70.184998
v 332.604309 22.239861 -66.464722
v 332.604309 30.610489 -66.464722
v 332.604309 22.239861 -70.184998
v 332.604309 30.610489 -70.184998
v 331.204498 23.297955 -66.464722
v 331.204498 29.808441 -66.464722
v 326.554138 29.808441 -66.464722
v 326.554138 23.297955 -66.464722
v 325.230743 29.808441 -66.464722
v 320.533875 29.808441 -66.464722
v 315.883514 29.808441 -66.464722
v 320.580383 23.297955 -66.464722
v 325.230743 23.297955 -66.464722
v 315.883514 23.297955 -66.464722
v 320.533875 23.297955 -66.464722
v 320.580383 29.808441 -66.464722
vt 0.750064 0.592593
vt 0.757715 0.851852
vt 0.750064 0.851852
vt 0.666667 0.333333
vt 0.750064 0.592593
vt 0.666667 0.592593
vt 0.841112 0.333333
vt 0.848763 0.592593
vt 0.841112 0.592593
vt 0.750064 0.333333
vt 0.833461 0.592593
vt 0.750064 0.592593
vt 0.833461 0.333333
vt 0.841112 0.592593
vt 0.833461 0.592593
vt 0.666667 0.592593
vt 0.750064 0.851852
vt 0.666667 0.851852
vt 0.333333 0.333333
vt 0.666667 0.000000
vt 0.666667 0.333333
vt 0.000000 0.666667
vt 0.333333 0.333333
vt 0.333333 0.666667
vt 0.000000 0.333333
vt 0.333333 0.000000
vt 0.441834 0.624532
vt 0.666667 0.666667
vt 0.333333 0.666667
vt 0.666667 0.333333
vt 1.000000 0.000000
vt 1.000000 0.333333
vt 0.333333 1.000000
vt 0.000000 0.666667
vt 0.333333 0.666667
vt 0.780667 0.851852
vt 0.773016 0.592593
vt 0.780667 0.592593
vt 0.465568 0.624532
vt 0.340984 0.750064
vt 0.333333 0.666667
vt 0.340984 0.666667
vt 0.340984 0.666667
vt 0.348635 0.750064
vt 0.340984 0.750064
vt 0.356286 0.750064
vt 0.348635 0.666667
vt 0.356286 0.666667
vt 0.773016 0.851852
vt 0.765365 0.592593
vt 0.773016 0.592593
vt 0.371587 0.666667
vt 0.379238 0.750064
vt 0.371587 0.750064
vt 0.666667 0.333333
vt 0.633196 0.365272
vt 0.549799 0.365272
vt 0.757715 0.592593
vt 0.765365 0.851852
vt 0.757715 0.851852
vt 0.371587 0.750064
vt 0.363937 0.666667
vt 0.371587 0.666667
vt 0.356286 0.666667
vt 0.363937 0.750064
vt 0.356286 0.750064
vt 0.757715 0.592593
vt 0.750064 0.333333
vt 0.848762 0.333333
vt 0.833461 0.333333
vt 0.841112 0.333333
vt 0.750064 0.592593
vt 0.333333 0.000000
vt 0.000000 0.000000
vt 0.333333 0.333333
vt 0.358437 0.624532
vt 0.358437 0.365272
vt 0.666667 0.000000
vt 0.000000 1.000000
vt 0.773016 0.851852
vt 0.441834 0.365272
vt 0.465568 0.365272
vt 0.548965 0.624532
vt 0.549799 0.624532
vt 0.633196 0.624532
vt 0.333333 0.750064
vt 0.348635 0.666667
vt 0.348635 0.750064
vt 0.765365 0.851852
vt 0.379238 0.666667
vt 0.548965 0.365272
vt 0.765365 0.592593
vt 0.363937 0.750064
vt 0.363937 0.666667
vn -1.0000 0.0000 0.0000
vn 0.0000 0.0000 1.0000
vn 0.0000 0.0000 -1.0000
vn 1.0000 0.0000 0.0000
vn 0.0000 -1.0000 0.0000
vn 0.0000 1.0000 0.0000
usemtl Material.004
s off
f 2/1/1 30/2/1 1/3/1
f 4/4/2 1/5/2 3/6/2
f 6/7/1 28/8/1 5/9/1
f 8/10/2 5/11/2 7/12/2
f 10/13/1 24/14/1 9/15/1
f 12/16/2 9/17/2 11/18/2
f 14/19/1 15/20/1 13/21/1
f 16/22/3 19/23/3 15/24/3
f 20/25/4 17/26/4 19/23/4
f 24/27/2 13/28/2 17/29/2
f 19/30/5 13/31/5 15/32/5
f 16/33/6 18/34/6 20/35/6
f 22/36/4 11/37/4 21/38/4
f 13/28/2 24/27/2 29/39/2
f 21/40/5 9/41/5 24/42/5
f 23/43/6 12/44/6 22/45/6
f 27/46/6 4/47/6 26/48/6
f 26/49/4 3/50/4 31/51/4
f 32/52/6 8/53/6 25/54/6
f 14/55/2 27/56/2 26/57/2
f 25/58/4 7/59/4 29/60/4
f 29/61/5 5/62/5 28/63/5
f 31/64/5 1/65/5 30/66/5
f 2/1/1 27/67/1 30/2/1
f 4/4/2 2/68/2 1/5/2
f 6/7/1 32/69/1 28/8/1
f 8/10/2 6/70/2 5/11/2
f 10/13/1 23/71/1 24/14/1
f 12/16/2 10/72/2 9/17/2
f 14/19/1 16/73/1 15/20/1
f 16/22/3 20/25/3 19/23/3
f 20/25/4 18/74/4 17/26/4
f 17/29/2 18/75/2 21/76/2
f 18/75/2 22/77/2 21/76/2
f 21/76/2 24/27/2 17/29/2
f 19/30/5 17/78/5 13/31/5
f 16/33/6 14/79/6 18/34/6
f 22/36/4 12/80/4 11/37/4
f 24/27/2 23/81/2 25/82/2
f 29/39/2 28/83/2 13/28/2
f 28/83/2 31/84/2 13/28/2
f 24/27/2 25/82/2 29/39/2
f 31/84/2 30/85/2 13/28/2
f 21/40/5 11/86/5 9/41/5
f 23/43/6 10/87/6 12/44/6
f 27/46/6 2/88/6 4/47/6
f 26/49/4 4/89/4 3/50/4
f 32/52/6 6/90/6 8/53/6
f 26/57/2 31/84/2 28/83/2
f 32/91/2 25/82/2 14/55/2
f 25/82/2 23/81/2 18/75/2
f 14/55/2 25/82/2 18/75/2
f 26/57/2 28/83/2 32/91/2
f 13/28/2 30/85/2 14/55/2
f 30/85/2 27/56/2 14/55/2
f 26/57/2 32/91/2 14/55/2
f 23/81/2 22/77/2 18/75/2
f 25/58/4 8/92/4 7/59/4
f 29/61/5 7/93/5 5/62/5
f 31/64/5 3/94/5 1/65/5
