# Blender v2.90.1 OBJ File: 'CasaSimpson.blend'
# www.blender.org
mtllib Estante.mtl
o Cube.009_Cube.031
v 366.683136 35.886810 -143.383072
v 366.683136 32.780678 -143.383072
v 356.746552 35.886810 -143.383072
v 356.746552 32.780678 -143.383072
v 366.683136 40.225616 -143.383072
v 366.683136 37.119484 -143.383072
v 356.746552 40.225616 -143.383072
v 356.746552 37.119484 -143.383072
v 366.683136 44.590729 -143.383072
v 366.683136 41.484596 -143.383072
v 356.746552 44.590729 -143.383072
v 356.746552 41.484596 -143.383072
v 366.683136 48.846741 -143.383072
v 366.683136 45.740608 -143.383072
v 356.746552 48.846741 -143.383072
v 356.746552 45.740608 -143.383072
v 367.214844 49.724136 -140.995010
v 367.214844 31.724136 -140.995010
v 356.214844 49.724136 -140.995010
v 356.214844 31.724136 -140.995010
v 367.214844 49.724136 -143.995010
v 367.214844 31.724136 -143.995010
v 356.214844 49.724136 -143.995010
v 356.214844 31.724136 -143.995010
v 356.746552 45.740608 -140.995010
v 356.746552 48.846741 -140.995010
v 366.683136 45.740608 -140.995010
v 366.683136 48.846741 -140.995010
v 356.746552 41.484596 -140.995010
v 356.746552 44.590729 -140.995010
v 366.683136 41.484596 -140.995010
v 366.683136 44.590729 -140.995010
v 356.746552 37.119484 -140.995010
v 356.746552 40.225616 -140.995010
v 366.683136 37.119484 -140.995010
v 366.683136 40.225616 -140.995010
v 356.746552 32.780678 -140.995010
v 356.746552 35.886810 -140.995010
v 366.683136 32.780678 -140.995010
v 366.683136 35.886810 -140.995010
v 366.683136 33.414268 -140.995010
vt 0.991724 0.739368
vt 0.946265 0.501401
vt 0.991724 0.501401
vt 0.526868 0.263434
vt 0.736566 0.501401
vt 0.526868 0.501401
vt 0.272707 0.764835
vt 0.308893 0.764835
vt 0.308893 0.974533
vt 0.946265 0.263434
vt 0.991724 0.501401
vt 0.946265 0.501401
vt 0.526868 0.501401
vt 0.736566 0.739368
vt 0.526868 0.739368
vt 0.445270 0.974533
vt 0.399811 0.764835
vt 0.445270 0.764835
vt 0.991724 0.977335
vt 0.946265 0.739368
vt 0.991724 0.739368
vt 0.263434 0.526868
vt 0.473132 0.764835
vt 0.263434 0.764835
vt 0.308893 0.764835
vt 0.354352 0.974533
vt 0.308893 0.974533
vt 0.473132 0.526868
vt 0.518591 0.764835
vt 0.473132 0.764835
vt 0.736566 0.263434
vt 0.946265 0.501401
vt 0.736566 0.501401
vt 0.354352 0.764835
vt 0.399811 0.974533
vt 0.354352 0.974533
vt 0.263434 0.790301
vt 0.000000 0.526868
vt 0.263434 0.526868
vt 0.000000 0.263434
vt 0.263434 0.526868
vt 0.000000 0.526868
vt 0.263434 0.263434
vt 0.526868 0.000000
vt 0.526868 0.263434
vt 0.526868 0.263434
vt 0.263434 0.263434
vt 0.605830 0.012733
vt 0.605830 0.250700
vt 0.587789 0.012733
vt 0.000000 0.000000
vt 0.263434 0.263434
vt 0.000000 0.263434
vt 0.090918 1.000000
vt 0.045459 0.790301
vt 0.090918 0.790301
vt 0.946265 0.739368
vt 0.736566 0.977335
vt 0.736566 0.739368
vt 0.790302 0.263434
vt 0.777461 0.250700
vt 0.790302 0.000000
vt 0.490729 0.974533
vt 0.445270 0.764835
vt 0.490729 0.764835
vt 0.946265 0.501401
vt 0.736566 0.739368
vt 0.736566 0.501401
vt 0.715173 0.250700
vt 0.715173 0.012733
vt 0.732002 0.012733
vt 0.045459 1.000000
vt 0.000000 0.790301
vt 0.045459 0.790301
vt 0.736566 0.739368
vt 0.526868 0.977335
vt 0.526868 0.739368
vt 0.651289 0.012733
vt 0.669714 0.012733
vt 0.542330 0.012733
vt 0.526868 0.263434
vt 0.526868 0.000000
vt 0.136377 1.000000
vt 0.090918 0.790301
vt 0.136377 0.790301
vt 1.000000 0.000000
vt 0.790302 0.237967
vt 0.790301 0.000000
vt 0.946265 0.739368
vt 0.736566 0.263434
vt 0.263434 0.974533
vt 0.263434 0.764835
vt 0.991724 0.263434
vt 0.736566 0.501401
vt 0.399811 0.974533
vt 0.946265 0.977335
vt 0.473132 0.526868
vt 0.354352 0.764835
vt 0.518591 0.526868
vt 0.946265 0.263434
vt 0.399811 0.764835
vt 0.000000 0.790301
vt 0.263434 0.000000
vt 0.526868 0.526868
vt 0.542330 0.250700
vt 0.587789 0.250700
vt 0.551603 0.012733
vt 0.263434 0.000000
vt 0.045459 1.000000
vt 0.946265 0.977335
vt 0.732002 0.250700
vt 0.777461 0.012733
vt 0.445270 0.974533
vt 0.946265 0.739368
vt 0.669714 0.250700
vt 0.000000 1.000000
vt 0.736566 0.977335
vt 0.651289 0.250700
vt 0.090918 1.000000
vt 1.000000 0.237967
vn 0.0000 0.0000 1.0000
vn 0.0000 1.0000 0.0000
vn -1.0000 0.0000 0.0000
vn 0.0000 0.0000 -1.0000
vn 0.0000 -1.0000 0.0000
vn 1.0000 0.0000 0.0000
usemtl Material.018
s off
f 2/1/1 3/2/1 4/3/1
f 4/4/2 39/5/2 2/6/2
f 41/7/3 40/8/3 1/9/3
f 6/10/1 7/11/1 8/12/1
f 8/13/2 35/14/2 6/15/2
f 35/16/3 5/17/3 6/18/3
f 10/19/1 11/20/1 12/21/1
f 12/22/2 31/23/2 10/24/2
f 31/25/3 9/26/3 10/27/3
f 14/28/1 15/29/1 16/30/1
f 16/31/2 27/32/2 14/33/2
f 27/34/3 13/35/3 14/36/3
f 21/37/2 19/38/2 17/39/2
f 19/40/3 24/41/3 20/42/3
f 23/43/4 22/44/4 24/45/4
f 18/46/5 24/41/5 22/47/5
f 35/48/1 33/49/1 40/50/1
f 21/51/6 18/52/6 22/53/6
f 16/54/6 26/55/6 25/56/6
f 15/57/5 28/58/5 26/59/5
f 19/60/1 26/61/1 17/62/1
f 12/63/6 30/64/6 29/65/6
f 11/66/5 32/67/5 30/68/5
f 30/69/1 32/70/1 27/71/1
f 8/72/6 34/73/6 33/74/6
f 7/75/5 36/76/5 34/77/5
f 36/78/1 17/62/1 31/79/1
f 39/80/1 20/81/1 18/82/1
f 4/83/6 38/84/6 37/85/6
f 3/86/5 40/87/5 38/88/5
f 2/1/1 1/89/1 3/2/1
f 4/4/2 37/90/2 39/5/2
f 1/9/3 2/91/3 41/7/3
f 2/91/3 39/92/3 41/7/3
f 6/10/1 5/93/1 7/11/1
f 8/13/2 33/94/2 35/14/2
f 35/16/3 36/95/3 5/17/3
f 10/19/1 9/96/1 11/20/1
f 12/22/2 29/97/2 31/23/2
f 31/25/3 32/98/3 9/26/3
f 14/28/1 13/99/1 15/29/1
f 16/31/2 25/100/2 27/32/2
f 27/34/3 28/101/3 13/35/3
f 21/37/2 23/102/2 19/38/2
f 19/40/3 23/43/3 24/41/3
f 23/43/4 21/103/4 22/44/4
f 18/46/5 20/104/5 24/41/5
f 18/82/1 36/78/1 35/48/1
f 20/81/1 37/105/1 38/106/1
f 40/50/1 41/107/1 18/82/1
f 33/49/1 20/81/1 38/106/1
f 40/50/1 18/82/1 35/48/1
f 33/49/1 38/106/1 40/50/1
f 21/51/6 17/108/6 18/52/6
f 16/54/6 15/109/6 26/55/6
f 15/57/5 13/110/5 28/58/5
f 19/60/1 25/111/1 26/61/1
f 26/61/1 28/112/1 17/62/1
f 12/63/6 11/113/6 30/64/6
f 11/66/5 9/114/5 32/67/5
f 25/111/1 19/60/1 30/69/1
f 19/60/1 29/115/1 30/69/1
f 17/62/1 28/112/1 27/71/1
f 27/71/1 25/111/1 30/69/1
f 32/70/1 17/62/1 27/71/1
f 8/72/6 7/116/6 34/73/6
f 7/75/5 5/117/5 36/76/5
f 19/60/1 20/81/1 34/118/1
f 20/81/1 33/49/1 34/118/1
f 29/115/1 19/60/1 34/118/1
f 36/78/1 18/82/1 17/62/1
f 29/115/1 34/118/1 36/78/1
f 17/62/1 32/70/1 31/79/1
f 31/79/1 29/115/1 36/78/1
f 39/80/1 37/105/1 20/81/1
f 18/82/1 41/107/1 39/80/1
f 4/83/6 3/119/6 38/84/6
f 3/86/5 1/120/5 40/87/5
