# Blender v2.90.1 OBJ File: 'plantaBaja.blend'
# www.blender.org
mtllib CajonChico7.mtl
o Cube.015_Cube.060
v 310.389465 10.438528 -130.188049
v 310.389465 10.381527 -130.181198
v 310.389465 10.326717 -130.160889
v 310.389465 10.276204 -130.127930
v 310.389465 10.231929 -130.083557
v 310.389465 10.195593 -130.029495
v 310.389465 10.168593 -129.967819
v 310.389465 10.151966 -129.900879
v 310.389465 10.146353 -129.831284
v 310.389465 10.151966 -129.761688
v 310.389465 10.168592 -129.694748
v 310.389465 10.195593 -129.633072
v 310.389465 10.231929 -129.579010
v 310.389465 10.276204 -129.534637
v 310.389465 10.326717 -129.501678
v 310.389465 10.381527 -129.481369
v 310.389465 10.438528 -129.474518
v 310.389465 10.495528 -129.481369
v 310.389465 10.550339 -129.501678
v 310.389465 10.600852 -129.534637
v 310.389465 10.645127 -129.579010
v 310.389465 10.681462 -129.633072
v 310.389465 10.708463 -129.694748
v 310.389465 10.725089 -129.761688
v 310.389465 10.730703 -129.831284
v 310.389465 10.725089 -129.900879
v 310.389465 10.708462 -129.967819
v 310.389465 10.681462 -130.029495
v 310.389465 10.645126 -130.083557
v 310.389465 10.600851 -130.127930
v 310.389465 10.550338 -130.160889
v 310.389465 10.495528 -130.181198
v 309.910706 12.399630 -136.687225
v 309.910706 8.347105 -136.687225
v 309.910706 12.399630 -122.975349
v 309.910706 8.347105 -122.975349
v 310.219910 12.399630 -136.687225
v 310.219910 8.347105 -136.687225
v 310.219910 12.399630 -122.975349
v 310.219910 8.347105 -122.975349
v 310.219910 10.195593 -130.029495
v 310.219910 10.276204 -130.127930
v 310.219910 10.231929 -130.083557
v 310.219910 10.168592 -129.694748
v 310.219910 10.195593 -129.633072
v 310.219910 10.151966 -129.761688
v 310.219910 10.231929 -129.579010
v 310.219910 10.168593 -129.967819
v 310.219910 10.151966 -129.900879
v 310.219910 10.146353 -129.831284
v 310.219910 10.495528 -129.481369
v 310.219910 10.600852 -129.534637
v 310.219910 10.381527 -130.181198
v 310.219910 10.550339 -129.501678
v 310.219910 10.645126 -130.083557
v 310.219910 10.550338 -130.160889
v 310.219910 10.495528 -130.181198
v 310.219910 10.600851 -130.127930
v 310.219910 10.381527 -129.481369
v 310.219910 10.326717 -129.501678
v 310.219910 10.438528 -129.474518
v 310.219910 10.438528 -130.188049
v 310.219910 10.326717 -130.160889
v 310.219910 10.276204 -129.534637
v 310.219910 10.730703 -129.831284
v 310.219910 10.681462 -130.029495
v 310.219910 10.725089 -129.900879
v 310.219910 10.681462 -129.633072
v 310.219910 10.645127 -129.579010
v 310.219910 10.708463 -129.694748
v 310.219910 10.725089 -129.761688
v 310.219910 10.708462 -129.967819
vt 0.333667 0.695672
vt 0.333333 0.690992
vt 0.350668 0.690376
vt 0.666667 0.333333
vt 0.333333 0.666667
vt 0.333333 0.333333
vt 0.333333 0.000000
vt 0.666667 0.333333
vt 0.333333 0.333333
vt 0.852006 0.166667
vt 0.851544 0.164975
vt 1.000000 0.000000
vt 0.000000 1.000000
vt 0.333333 0.666667
vt 0.333333 1.000000
vt 0.000000 0.333333
vt 0.333333 0.000000
vt 0.333333 0.333333
vt 0.000000 0.333334
vt 0.333333 0.666667
vt 0.000000 0.666667
vt 0.716084 0.516102
vt 0.714392 0.698871
vt 0.714392 0.516102
vt 0.705863 0.516102
vt 0.708852 0.333333
vt 0.708852 0.516102
vt 0.711073 0.333333
vt 0.711073 0.516102
vt 0.716084 0.333333
vt 0.714392 0.516102
vt 0.714392 0.333333
vt 0.712700 0.516102
vt 0.711073 0.698871
vt 0.711073 0.516102
vt 0.712700 0.698871
vt 0.708852 0.516102
vt 0.705863 0.698871
vt 0.705863 0.516102
vt 0.684181 0.516102
vt 0.688870 0.698871
vt 0.684181 0.698871
vt 0.684181 0.516102
vt 0.688870 0.333333
vt 0.688870 0.516102
vt 0.668888 0.516102
vt 0.666667 0.698871
vt 0.666667 0.516102
vt 0.693558 0.333333
vt 0.693558 0.516102
vt 0.679673 0.698871
vt 0.679673 0.516102
vt 0.702221 0.698871
vt 0.702221 0.516102
vt 0.675518 0.516102
vt 0.679673 0.333333
vt 0.679673 0.516102
vt 0.698066 0.698871
vt 0.698066 0.516102
vt 0.702221 0.516102
vt 0.705863 0.333333
vt 0.675518 0.516102
vt 0.671876 0.698871
vt 0.671876 0.516102
vt 0.717711 0.333333
vt 0.716084 0.516102
vt 0.698067 0.516102
vt 0.702221 0.333333
vt 0.671876 0.516102
vt 0.675518 0.333333
vt 0.666667 0.516102
vt 0.668888 0.333333
vt 0.668888 0.516102
vt 0.693558 0.516102
vt 0.688870 0.516102
vt 0.708852 0.698871
vt 0.712700 0.516102
vt 0.712700 0.333333
vt 0.717711 0.516102
vt 0.716084 0.698871
vt 0.684181 0.333333
vt 0.675518 0.698871
vt 0.711073 0.516102
vt 0.711073 0.333333
vt 0.693558 0.698871
vt 0.698067 0.333333
vt 0.668888 0.698871
vt 0.671876 0.333333
vt 0.803941 0.166667
vt 0.804403 0.168359
vt 0.666667 0.333333
vt 0.333333 0.686301
vt 0.350335 0.685696
vt 0.333667 0.681778
vt 0.349682 0.681208
vt 0.334320 0.677597
vt 0.348733 0.677085
vt 0.335268 0.673919
vt 0.347526 0.673483
vt 0.336476 0.670886
vt 0.337895 0.668613
vt 0.346107 0.670543
vt 0.339473 0.667188
vt 0.342855 0.667068
vt 0.341147 0.666667
vt 0.344529 0.668377
vt 0.350668 0.695067
vt 0.350335 0.699590
vt 0.334320 0.700159
vt 0.349682 0.703771
vt 0.335268 0.704283
vt 0.348733 0.707449
vt 0.336476 0.707884
vt 0.347526 0.710482
vt 0.337895 0.710825
vt 0.346107 0.712755
vt 0.339473 0.712991
vt 0.344529 0.714180
vt 0.341147 0.714300
vt 0.342855 0.714701
vt 0.666667 0.666667
vt 0.666667 0.000000
vt 1.000000 0.333333
vt 0.827974 0.175340
vt 0.832662 0.175173
vt 0.827974 0.157994
vt 0.666667 0.000000
vt 0.832662 0.158160
vt 0.837170 0.174679
vt 0.841325 0.173878
vt 0.837170 0.158654
vt 0.841325 0.159455
vt 0.844967 0.172799
vt 0.847956 0.171485
vt 0.844967 0.160534
vt 0.847956 0.161848
vt 0.850177 0.169986
vt 0.851544 0.168359
vt 0.850177 0.163348
vt 0.000000 0.666667
vt 0.000000 0.000000
vt 0.717711 0.516102
vt 0.666667 0.333333
vt 0.717711 0.698871
vt 0.823285 0.158160
vt 0.818777 0.158654
vt 0.823285 0.175173
vt 0.818777 0.174679
vt 0.814622 0.159455
vt 0.810980 0.160534
vt 0.814622 0.173878
vt 0.810980 0.172799
vt 0.807992 0.161848
vt 0.805771 0.163348
vt 0.807992 0.171485
vt 0.805771 0.169986
vt 0.804403 0.164975
vn -1.0000 0.0000 0.0000
vn 0.0000 -1.0000 0.0000
vn 0.0000 0.0000 -1.0000
vn 0.0000 1.0000 0.0000
vn 1.0000 0.0000 0.0000
vn 0.0000 0.0000 1.0000
vn 0.0000 0.9968 -0.0804
vn 0.0000 0.8300 -0.5578
vn 0.0000 0.9160 -0.4011
vn 0.0000 -0.9968 0.0804
vn 0.0000 0.9705 0.2411
vn 0.0000 0.9968 0.0804
vn 0.0000 0.8300 0.5578
vn 0.0000 -0.1193 0.9929
vn 0.0000 -0.1194 -0.9928
vn 0.0000 -0.9160 0.4011
vn 0.0000 0.1194 -0.9928
vn 0.0000 -0.3475 0.9377
vn 0.0000 0.7078 0.7064
vn 0.0000 -0.5465 -0.8375
vn 0.0000 0.5465 0.8375
vn 0.0000 0.7078 -0.7064
vn 0.0000 -0.7078 0.7064
vn 0.0000 -0.9705 0.2411
vn 0.0000 0.5465 -0.8375
vn 0.0000 -0.7078 -0.7064
vn 0.0000 -0.9160 -0.4011
vn 0.0000 0.1194 0.9928
vn 0.0000 0.9160 0.4011
vn 0.0000 -0.9968 -0.0804
vn 0.0000 0.9705 -0.2411
vn 0.0000 -0.3475 -0.9377
vn 0.0000 -0.5465 0.8375
vn 0.0000 -0.9705 -0.2411
vn 0.0000 0.3475 0.9377
vn 0.0000 0.3475 -0.9377
vn 0.0000 -0.8300 0.5578
vn 0.0000 -0.8300 -0.5578
vn -1.0000 -0.0011 0.0000
vn -1.0000 -0.0033 0.0000
vn -1.0000 -0.0012 0.0000
vn -1.0000 0.0009 0.0000
vn -1.0000 0.0011 0.0000
vn -1.0000 0.0033 0.0000
vn -1.0000 -0.0014 0.0000
vn -1.0000 0.0012 0.0000
vn -1.0000 -0.0009 0.0000
vn -1.0000 0.0001 0.0000
vn -1.0000 -0.0001 0.0000
vn -1.0000 -0.0004 0.0000
vn -1.0000 0.0006 0.0000
vn -1.0000 -0.0010 0.0000
vn -1.0000 0.0005 0.0000
vn -1.0000 -0.0017 0.0000
vn -1.0000 0.0002 0.0000
vn 0.0000 0.9161 -0.4010
vn 0.0000 0.9705 0.2410
vn 0.0000 -0.1194 0.9928
vn 0.0000 -0.1193 -0.9929
vn 0.0000 -0.9161 0.4009
vn 0.0000 0.1193 -0.9929
vn 0.0000 0.7079 0.7063
vn 0.0000 0.7079 -0.7063
vn 0.0000 -0.7079 0.7063
vn 0.0000 -0.9705 0.2410
vn 0.0000 -0.7079 -0.7063
vn 0.0000 -0.9161 -0.4010
vn 0.0000 0.1193 0.9929
vn 0.0000 0.9161 0.4009
vn 0.0000 0.9705 -0.2410
vn 0.0000 -0.9705 -0.2410
vn -1.0000 -0.0002 0.0000
vn -1.0000 -0.0007 0.0000
vn -1.0000 -0.0005 0.0000
vn -1.0000 0.0015 0.0000
usemtl Material.069
s off
f 32/1/1 1/2/1 17/3/1
f 37/4/2 35/5/2 33/6/2
f 35/7/3 40/8/3 36/9/3
f 50/10/1 49/11/1 38/12/1
f 34/13/4 40/14/4 38/15/4
f 33/16/5 36/17/5 34/18/5
f 37/19/6 34/20/6 38/21/6
f 46/22/7 9/23/7 50/24/7
f 47/25/8 12/26/8 45/27/8
f 45/27/9 11/28/9 44/29/9
f 67/30/10 25/31/10 65/32/10
f 49/33/11 7/34/11 48/35/11
f 50/24/12 8/36/12 49/33/12
f 41/37/13 5/38/13 43/39/13
f 57/40/14 1/41/14 32/42/14
f 51/43/15 17/44/15 61/45/15
f 66/46/16 27/47/16 72/48/16
f 61/45/17 16/49/17 59/50/17
f 57/40/18 31/51/18 56/52/18
f 43/39/19 4/53/19 42/54/19
f 52/55/20 19/56/20 54/57/20
f 42/54/21 3/58/21 63/59/21
f 64/60/22 13/61/22 47/25/22
f 58/62/23 29/63/23 55/64/23
f 72/65/24 26/66/24 67/30/24
f 60/67/25 14/68/25 64/60/25
f 69/69/26 20/70/26 52/55/26
f 70/71/27 22/72/27 68/73/27
f 53/74/28 1/41/28 62/75/28
f 48/35/29 6/76/29 41/37/29
f 65/32/30 24/77/30 71/78/30
f 44/79/31 10/80/31 46/22/31
f 54/57/32 18/81/32 51/43/32
f 56/52/33 30/82/33 58/62/33
f 71/78/34 23/83/34 70/84/34
f 63/59/35 2/85/35 53/74/35
f 59/50/36 15/86/36 60/67/36
f 55/64/37 28/87/37 66/46/37
f 68/73/38 21/88/38 69/69/38
f 65/89/1 71/90/1 39/91/1
f 1/2/1 2/92/1 16/93/1
f 2/92/1 3/94/1 15/95/1
f 3/94/1 4/96/1 14/97/1
f 4/96/1 5/98/1 13/99/1
f 5/98/1 6/100/1 13/99/1
f 6/100/1 7/101/1 12/102/1
f 13/99/39 6/100/39 12/102/39
f 7/101/40 8/103/40 10/104/40
f 8/103/1 9/105/1 10/104/1
f 10/104/1 11/106/1 7/101/1
f 11/106/1 12/102/1 7/101/1
f 13/99/41 14/97/41 4/96/41
f 14/97/42 15/95/42 3/94/42
f 15/95/1 16/93/1 2/92/1
f 16/93/1 17/3/1 1/2/1
f 17/3/1 18/107/1 32/1/1
f 18/107/1 19/108/1 31/109/1
f 19/108/1 20/110/1 30/111/1
f 20/110/1 21/112/1 29/113/1
f 21/112/43 22/114/43 28/115/43
f 22/114/1 23/116/1 27/117/1
f 23/116/44 24/118/44 26/119/44
f 24/118/1 25/120/1 26/119/1
f 26/119/1 27/117/1 23/116/1
f 27/117/45 28/115/45 22/114/45
f 28/115/1 29/113/1 21/112/1
f 29/113/46 30/111/46 20/110/46
f 30/111/47 31/109/47 19/108/47
f 31/109/1 32/1/1 18/107/1
f 37/4/2 39/121/2 35/5/2
f 35/7/3 39/122/3 40/8/3
f 40/123/1 39/91/1 61/124/1
f 40/123/48 61/124/48 59/125/48
f 62/126/1 37/127/1 38/12/1
f 53/128/1 62/126/1 38/12/1
f 40/123/49 59/125/49 60/129/49
f 40/123/50 60/129/50 64/130/50
f 63/131/1 53/128/1 38/12/1
f 42/132/1 63/131/1 38/12/1
f 40/123/51 64/130/51 47/133/51
f 40/123/52 47/133/52 45/134/52
f 43/135/1 42/132/1 38/12/1
f 41/136/1 43/135/1 38/12/1
f 40/123/53 45/134/53 44/137/53
f 40/123/42 44/137/42 46/138/42
f 48/139/54 41/136/54 38/12/54
f 49/11/1 48/139/1 38/12/1
f 38/12/1 40/123/1 50/10/1
f 40/123/55 46/138/55 50/10/55
f 34/13/4 36/140/4 40/14/4
f 33/16/5 35/141/5 36/17/5
f 37/19/6 33/6/6 34/20/6
f 46/22/7 10/80/7 9/23/7
f 47/25/8 13/61/8 12/26/8
f 45/27/56 12/26/56 11/28/56
f 67/30/10 26/66/10 25/31/10
f 49/33/57 8/36/57 7/34/57
f 50/24/12 9/23/12 8/36/12
f 41/37/13 6/76/13 5/38/13
f 57/40/58 62/75/58 1/41/58
f 51/43/59 18/81/59 17/44/59
f 66/46/60 28/87/60 27/47/60
f 61/45/61 17/44/61 16/49/61
f 57/40/18 32/42/18 31/51/18
f 43/39/62 5/38/62 4/53/62
f 52/55/20 20/70/20 19/56/20
f 42/54/21 4/53/21 3/58/21
f 64/60/63 14/68/63 13/61/63
f 58/62/64 30/82/64 29/63/64
f 72/65/65 27/142/65 26/66/65
f 60/67/25 15/86/25 14/68/25
f 69/69/66 21/88/66 20/70/66
f 70/71/67 23/143/67 22/72/67
f 53/74/68 2/85/68 1/41/68
f 48/35/69 7/34/69 6/76/69
f 65/32/30 25/31/30 24/77/30
f 44/79/70 11/144/70 10/80/70
f 54/57/32 19/56/32 18/81/32
f 56/52/33 31/51/33 30/82/33
f 71/78/71 24/77/71 23/83/71
f 63/59/35 3/58/35 2/85/35
f 59/50/36 16/49/36 15/86/36
f 55/64/37 29/63/37 28/87/37
f 68/73/38 22/72/38 21/88/38
f 37/127/49 62/126/49 57/145/49
f 37/127/48 57/145/48 56/146/48
f 51/147/1 61/124/1 39/91/1
f 54/148/1 51/147/1 39/91/1
f 37/127/72 56/146/72 58/149/72
f 37/127/1 58/149/1 55/150/1
f 52/151/51 54/148/51 39/91/51
f 69/152/73 52/151/73 39/91/73
f 37/127/74 55/150/74 66/153/74
f 37/127/46 66/153/46 72/154/46
f 68/155/75 69/152/75 39/91/75
f 70/156/1 68/155/1 39/91/1
f 37/127/47 72/154/47 67/157/47
f 37/127/72 67/157/72 65/89/72
f 71/90/1 70/156/1 39/91/1
f 37/127/1 65/89/1 39/91/1
