# Blender v2.90.1 OBJ File: 'CasaSimpson.blend'
# www.blender.org
mtllib MueblePared.mtl
o Cube.004_Cube.013
v 348.409698 51.004002 15.719056
v 348.409698 50.354916 15.059444
v 347.247070 50.354916 15.059444
v 348.409698 51.004002 12.304076
v 348.409698 49.489201 12.304076
v 347.247070 49.489201 12.304076
v 348.409698 49.953575 14.559422
v 348.409698 49.709118 14.001639
v 348.409698 49.638477 13.529032
v 348.409698 49.571056 12.987072
v 347.247070 49.571056 12.987072
v 347.247070 49.638477 13.529032
v 347.247070 49.709118 14.001639
v 347.247070 49.953575 14.559422
v 348.409698 51.004002 12.987072
v 348.409698 51.004002 13.670068
v 348.409698 51.004002 14.353064
v 348.409698 51.004002 15.036060
v 348.406006 51.875504 16.437248
v 348.406006 50.948792 16.437248
v 334.107758 51.875504 16.437248
v 334.107758 50.948792 16.437248
v 348.406006 51.875504 12.297765
v 348.406006 50.948792 12.297765
v 334.107758 51.875504 12.297765
v 334.107758 50.948792 12.297765
v 335.285828 50.354916 15.059444
v 334.123230 50.354916 15.059444
v 335.285828 49.489201 12.304076
v 334.123230 49.489201 12.304076
v 335.285828 49.953575 14.559423
v 335.285828 49.709118 14.001639
v 335.285828 49.638477 13.529032
v 335.285828 49.571056 12.987072
v 334.123230 49.571056 12.987072
v 334.123230 49.638477 13.529032
v 334.123230 49.709118 14.001639
v 334.123230 49.953575 14.559423
v 335.285828 50.948792 12.304076
v 335.285828 50.948792 15.011009
v 335.285828 50.948792 15.662953
v 334.123230 50.948792 15.662953
v 334.123230 50.948792 14.338081
v 334.123230 50.948792 15.011009
v 334.123230 50.948792 13.664366
v 334.123230 50.948792 12.304076
v 335.285828 50.948792 13.664366
v 334.123230 50.948792 12.987072
v 335.285828 50.948792 14.338081
v 335.285828 50.948792 12.987072
v 347.247070 50.948792 15.662953
v 348.406006 50.948792 15.662953
v 348.406006 51.004002 15.719056
v 348.406006 51.004002 14.353064
v 348.406006 51.004002 15.036060
v 347.247070 50.948792 15.011009
v 347.247070 50.948792 14.338081
v 348.406006 51.004002 13.670068
v 348.406006 51.004002 12.987072
v 347.247070 50.948792 13.664366
v 347.247070 50.948792 12.304076
v 347.247070 50.948792 12.987072
v 348.406006 51.004002 12.304076
v 348.406006 50.948792 12.304076
vt 0.948077 0.162625
vt 0.948622 0.178887
vt 0.948077 0.178887
vt 0.792859 0.387627
vt 0.949083 0.403890
vt 0.783578 0.403890
vt 0.624333 0.081570
vt 0.618073 0.081312
vt 0.789838 0.081312
vt 0.698734 0.243937
vt 0.750334 0.162625
vt 0.750334 0.243937
vt 0.624933 0.243679
vt 0.698734 0.162625
vt 0.652426 0.081312
vt 0.651250 0.046470
vt 0.676399 0.024927
vt 0.789838 0.081312
vt 0.755485 0.004394
vt 0.789838 0.000000
vt 0.755485 0.081312
vt 0.728226 0.008013
vt 0.721132 0.081312
vt 0.704455 0.011805
vt 0.686779 0.081312
vt 0.835868 0.485202
vt 0.870950 0.403890
vt 0.870950 0.485202
vt 0.808005 0.485202
vt 0.835868 0.403890
vt 0.783578 0.485202
vt 0.808004 0.403890
vt 0.786505 0.162625
vt 0.786505 0.243937
vt 0.881742 0.338283
vt 0.949083 0.339436
vt 0.836234 0.350189
vt 0.949083 0.355459
vt 0.808514 0.363470
vt 0.949083 0.371500
vt 0.800504 0.374723
vt 0.949083 0.387627
vt 0.948077 0.227674
vt 0.948622 0.243937
vt 0.948077 0.243937
vt 0.948077 0.211412
vt 0.948622 0.227674
vt 0.948077 0.195149
vt 0.948622 0.211412
vt 0.948622 0.195149
vt 0.000000 1.000000
vt 0.208206 0.000000
vt 0.208206 1.000000
vt 1.000000 0.000000
vt 0.894919 0.098563
vt 0.894919 0.000000
vt 0.520544 0.000000
vt 0.415463 1.000000
vt 0.415463 0.000000
vt 0.246974 0.918945
vt 0.208206 1.000000
vt 0.246974 0.082394
vt 0.520545 1.000000
vt 0.618073 0.000000
vt 0.618073 1.000000
vt 0.789838 0.098563
vt 0.888659 0.082150
vt 0.888659 0.098413
vt 0.792859 0.307651
vt 0.949083 0.323913
vt 0.783578 0.323913
vt 0.618073 0.325249
vt 0.783578 0.243937
vt 0.783578 0.325249
vt 0.860306 0.243937
vt 0.911906 0.162625
vt 0.911906 0.243937
vt 0.786505 0.243937
vt 0.860306 0.162625
vt 0.618073 0.340772
vt 0.685413 0.339619
vt 0.730922 0.351525
vt 0.618073 0.405225
vt 0.774296 0.388963
vt 0.783578 0.405225
vt 0.618073 0.388963
vt 0.766652 0.376059
vt 0.618073 0.372836
vt 0.758641 0.364806
vt 0.618073 0.356795
vt 0.923240 0.485202
vt 0.958322 0.403890
vt 0.958322 0.485202
vt 0.895376 0.485202
vt 0.923240 0.403890
vt 0.870950 0.485202
vt 0.895376 0.403890
vt 0.948077 0.162625
vt 0.948077 0.243937
vt 0.881742 0.258307
vt 0.949083 0.259460
vt 0.836234 0.270212
vt 0.949083 0.275483
vt 0.808514 0.283493
vt 0.949083 0.291524
vt 0.800504 0.294746
vt 0.949083 0.307651
vt 0.279616 0.001082
vt 0.208206 0.000000
vt 0.313308 0.001082
vt 0.948622 0.162625
vt 0.789838 0.162625
vt 0.624333 0.162625
vt 0.618073 0.081570
vt 0.618073 0.243937
vt 0.618073 0.243679
vt 0.624933 0.162625
vt 0.618073 0.081312
vt 0.783578 0.403890
vt 0.949083 0.323913
vt 0.000000 0.000000
vt 1.000000 0.098563
vt 0.520544 1.000000
vt 0.415147 0.082394
vt 0.415147 1.000000
vt 0.415147 0.918945
vt 0.380951 0.918945
vt 0.347040 0.918945
vt 0.380951 0.082394
vt 0.347040 0.082394
vt 0.313308 0.918945
vt 0.279616 0.918945
vt 0.313308 0.082394
vt 0.279616 0.082394
vt 0.246974 1.000000
vt 0.246974 0.001082
vt 0.520544 0.000000
vt 0.894919 0.098413
vt 0.894919 0.098563
vt 0.789838 0.000000
vt 0.888659 0.049625
vt 0.894919 0.000000
vt 0.888659 0.017100
vt 0.894919 0.018436
vt 0.888659 0.033363
vt 0.888659 0.065888
vt 0.618073 0.243937
vt 0.786505 0.162625
vt 0.618073 0.325249
vt 0.870950 0.403890
vt 0.949083 0.243937
vt 0.415147 0.001082
vt 0.380951 0.001082
vt 0.347040 0.001082
vn 0.0000 1.0000 0.0000
vn -1.0000 0.0000 0.0000
vn 0.0000 0.0000 -1.0000
vn 0.0000 -0.7799 0.6259
vn 0.0000 -0.7128 0.7014
vn 1.0000 0.0000 0.0000
vn 0.0000 -0.9929 0.1190
vn 0.0000 -0.9924 0.1234
vn 0.0000 -0.9890 0.1478
vn 0.0000 -0.9159 0.4014
vn 0.0000 -1.0000 -0.0000
vn 0.0000 0.0000 1.0000
vn 0.0000 -0.9924 0.1235
vn -1.0000 0.0001 0.0000
vn 0.0000 -0.7799 0.6260
vn 0.0003 -0.7158 0.6983
vn 0.0000 -0.7107 0.7035
vn 0.0000 -0.9923 0.1235
vn 0.0000 -1.0000 0.0016
vn 1.0000 0.0002 0.0000
vn 1.0000 0.0001 0.0000
vn 1.0000 -0.0001 0.0000
vn -1.0000 -0.0001 0.0000
vn 0.0000 -1.0000 -0.0010
usemtl Material.004
s off
f 4/1/1 59/2/1 15/3/1
f 11/4/2 61/5/2 6/6/2
f 64/7/3 4/8/3 5/9/3
f 2/10/4 14/11/4 7/12/4
f 2/10/5 52/13/5 3/14/5
f 18/15/6 2/16/6 7/17/6
f 4/18/6 10/19/6 5/20/6
f 15/21/6 9/22/6 10/19/6
f 16/23/6 8/24/6 9/22/6
f 17/25/6 7/17/6 8/24/6
f 10/26/7 6/27/7 5/28/7
f 9/29/8 11/30/8 10/26/8
f 8/31/9 12/32/9 9/29/9
f 7/12/10 13/33/10 8/34/10
f 3/35/2 56/36/2 14/37/2
f 14/37/2 57/38/2 13/39/2
f 13/39/2 60/40/2 12/41/2
f 12/41/2 62/42/2 11/4/2
f 18/43/1 53/44/1 1/45/1
f 17/46/1 55/47/1 18/43/1
f 16/48/1 54/49/1 17/46/1
f 15/3/1 58/50/1 16/48/1
f 23/51/1 21/52/1 19/53/1
f 21/54/2 26/55/2 22/56/2
f 25/57/3 24/58/3 26/59/3
f 51/60/11 20/61/11 41/62/11
f 19/63/12 22/64/12 20/65/12
f 23/66/6 59/67/6 63/68/6
f 35/69/2 46/70/2 30/71/2
f 46/72/3 29/73/3 30/74/3
f 27/75/4 38/76/4 31/77/4
f 41/78/5 28/79/5 27/75/5
f 40/80/6 27/81/6 31/82/6
f 39/83/6 34/84/6 29/85/6
f 50/86/6 33/87/6 34/84/6
f 47/88/6 32/89/6 33/87/6
f 49/90/6 31/82/6 32/89/6
f 34/91/7 30/92/7 29/93/7
f 33/94/13 35/95/13 34/91/13
f 32/96/9 36/97/9 33/94/9
f 31/77/10 37/98/10 32/99/10
f 28/100/14 44/101/14 38/102/14
f 38/102/2 43/103/2 37/104/2
f 37/104/2 45/105/2 36/106/2
f 36/106/2 48/107/2 35/69/2
f 44/108/11 22/109/11 43/110/11
f 4/1/1 63/111/1 59/2/1
f 11/4/2 62/42/2 61/5/2
f 5/9/3 6/112/3 64/7/3
f 6/112/3 61/113/3 64/7/3
f 64/7/3 63/114/3 4/8/3
f 2/10/15 3/14/15 14/11/15
f 2/10/16 1/115/16 52/13/16
f 1/115/17 53/116/17 52/13/17
f 52/13/5 51/117/5 3/14/5
f 18/15/6 1/118/6 2/16/6
f 4/18/6 15/21/6 10/19/6
f 15/21/6 16/23/6 9/22/6
f 16/23/6 17/25/6 8/24/6
f 17/25/6 18/15/6 7/17/6
f 10/26/7 11/30/7 6/27/7
f 9/29/18 12/32/18 11/30/18
f 8/31/9 13/119/9 12/32/9
f 7/12/10 14/11/10 13/33/10
f 3/35/2 51/120/2 56/36/2
f 14/37/2 56/36/2 57/38/2
f 13/39/2 57/38/2 60/40/2
f 12/41/2 60/40/2 62/42/2
f 18/43/1 55/47/1 53/44/1
f 17/46/1 54/49/1 55/47/1
f 16/48/1 58/50/1 54/49/1
f 15/3/1 59/2/1 58/50/1
f 23/51/1 25/121/1 21/52/1
f 21/54/2 25/122/2 26/55/2
f 25/57/3 23/123/3 24/58/3
f 26/59/11 24/58/11 39/124/11
f 24/58/11 64/125/11 61/126/11
f 61/126/11 62/127/11 39/124/11
f 62/127/11 60/128/11 50/129/11
f 39/124/11 62/127/11 50/129/11
f 24/58/19 61/126/19 39/124/19
f 47/130/11 50/129/11 60/128/11
f 60/128/11 57/131/11 47/130/11
f 57/131/11 56/132/11 49/133/11
f 47/130/11 57/131/11 49/133/11
f 40/134/11 49/133/11 56/132/11
f 40/134/11 56/132/11 51/60/11
f 51/60/11 52/135/11 20/61/11
f 20/61/11 22/109/11 41/62/11
f 22/109/11 42/136/11 41/62/11
f 41/62/11 40/134/11 51/60/11
f 19/63/12 21/137/12 22/64/12
f 64/138/6 24/139/6 63/68/6
f 24/139/6 23/66/6 63/68/6
f 23/66/6 19/140/6 54/141/6
f 19/140/6 20/142/6 53/143/6
f 20/142/20 52/144/20 53/143/20
f 55/145/6 54/141/6 19/140/6
f 54/141/21 58/146/21 23/66/21
f 19/140/6 53/143/6 55/145/6
f 58/146/22 59/67/22 23/66/22
f 35/69/2 48/107/2 46/70/2
f 46/72/3 39/147/3 29/73/3
f 27/75/15 28/79/15 38/76/15
f 41/78/5 42/148/5 28/79/5
f 40/80/6 41/149/6 27/81/6
f 39/83/6 50/86/6 34/84/6
f 50/86/6 47/88/6 33/87/6
f 47/88/6 49/90/6 32/89/6
f 49/90/6 40/80/6 31/82/6
f 34/91/7 35/95/7 30/92/7
f 33/94/8 36/97/8 35/95/8
f 32/96/9 37/150/9 36/97/9
f 31/77/10 38/76/10 37/98/10
f 28/100/23 42/151/23 44/101/23
f 38/102/2 44/101/2 43/103/2
f 37/104/2 43/103/2 45/105/2
f 36/106/2 45/105/2 48/107/2
f 26/59/24 39/124/24 46/152/24
f 48/153/11 45/154/11 26/59/11
f 45/154/11 43/110/11 26/59/11
f 26/59/11 46/152/11 48/153/11
f 42/136/11 22/109/11 44/108/11
f 22/109/11 26/59/11 43/110/11
