# Blender v2.90.1 OBJ File: 'CasaSimpson.blend'
# www.blender.org
mtllib Toallero.mtl
o Cube.008_Cube.018
v 312.016113 47.164108 43.175350
v 312.016113 46.205536 43.175350
v 312.016113 47.164108 43.641228
v 312.016113 46.205536 43.641228
v 309.660065 47.430260 43.045998
v 309.660065 45.939384 43.045998
v 309.660065 47.430260 43.770580
v 309.660065 45.939384 43.770580
v 312.016113 47.164108 49.987354
v 312.016113 46.205536 49.987354
v 312.016113 47.164108 50.453228
v 312.016113 46.205536 50.453228
v 309.660065 47.430260 49.858002
v 309.660065 45.939384 49.858002
v 309.660065 47.430260 50.582581
v 309.660065 45.939384 50.582581
v 311.791199 46.605354 49.975006
v 311.767700 46.549107 49.973713
v 311.458710 46.429287 49.956749
v 311.506439 46.410770 49.959370
v 311.805695 46.666386 49.975800
v 311.376129 46.499809 49.952217
v 311.414703 47.000359 49.954334
v 311.458710 47.030422 49.956749
v 311.344482 46.549107 49.950478
v 311.506439 47.048935 49.959370
v 311.653473 47.030422 49.967442
v 311.810577 46.729855 49.976067
v 311.653473 46.429283 49.967442
v 311.697479 47.000359 49.969860
v 311.306488 46.793324 49.948391
v 311.376129 46.959900 49.952217
v 311.320953 46.854355 49.949188
v 311.301605 46.729855 49.948124
v 311.736053 46.499809 49.971977
v 311.697479 46.459351 49.969860
v 311.556091 47.055187 49.962097
v 311.556091 46.404522 49.962097
v 311.306488 46.666386 49.948391
v 311.414703 46.459351 49.954334
v 311.320953 46.605354 49.949188
v 311.791199 46.854355 49.975006
v 311.767700 46.910599 49.973713
v 311.805695 46.793324 49.975800
v 311.736053 46.959900 49.971977
v 311.605743 47.048935 49.964821
v 311.344482 46.910599 49.950478
v 311.605743 46.410770 49.964821
v 311.767700 46.549110 43.654869
v 311.791199 46.605354 43.653576
v 311.376129 46.499809 43.676365
v 311.414703 46.459351 43.674248
v 311.697479 46.459351 43.658722
v 311.653473 46.429287 43.661137
v 311.736053 46.959900 43.656605
v 311.506439 46.410774 43.669209
v 311.767700 46.910599 43.654869
v 311.458710 46.429287 43.671833
v 311.344482 46.549110 43.678101
v 311.605743 46.410774 43.663757
v 311.810577 46.729855 43.652512
v 311.805695 46.793324 43.652782
v 311.320953 46.605354 43.679394
v 311.306488 46.793324 43.680187
v 311.306488 46.666386 43.680187
v 311.301605 46.729855 43.680458
v 311.556091 46.404522 43.666485
v 311.791199 46.854355 43.653576
v 311.736053 46.499809 43.656605
v 311.805695 46.666386 43.652782
v 311.506439 47.048935 43.669209
v 311.556091 47.055187 43.666485
v 311.605743 47.048935 43.663757
v 311.653473 47.030422 43.661137
v 311.320953 46.854355 43.679394
v 311.458710 47.030422 43.671833
v 311.344482 46.910599 43.678101
v 311.376129 46.959900 43.676365
v 311.414703 47.000359 43.674248
v 311.697479 47.000359 43.658722
vt 0.937743 0.276074
vt 0.733221 0.141014
vt 0.893297 0.141014
vt 0.517484 0.168548
vt 0.518528 0.171519
vt 0.484255 0.141014
vt 0.441254 0.511197
vt 0.688776 0.396612
vt 0.688776 0.511197
vt 0.395364 0.423040
vt 0.190843 0.282028
vt 0.439810 0.282028
vt 0.190843 0.496713
vt 0.349991 0.423040
vt 0.349991 0.496713
vt 0.190843 0.282028
vt 0.395364 0.141014
vt 0.937743 0.411134
vt 0.733221 0.276074
vt 0.893297 0.276074
vt 0.644331 0.000000
vt 0.439810 0.141014
vt 0.484255 0.000000
vt 0.441254 0.396612
vt 0.688776 0.282028
vt 0.688776 0.396612
vt 0.733221 0.000000
vt 0.937743 0.141012
vt 0.688776 0.141012
vt 0.688776 0.484807
vt 0.847923 0.411134
vt 0.847924 0.484807
vt 0.361091 0.030505
vt 0.362135 0.027534
vt 0.395364 0.000000
vt 0.128297 0.992569
vt 0.138767 0.001364
vt 0.138767 0.992526
vt 0.109352 0.992899
vt 0.101605 0.000717
vt 0.109352 0.000991
vt 0.118365 0.001196
vt 0.118365 0.992694
vt 0.032876 0.999958
vt 0.043345 0.000000
vt 0.043345 1.000000
vt 0.149372 0.992569
vt 0.159705 0.001196
vt 0.159705 0.992694
vt 0.149372 0.001321
vt 0.169369 0.992899
vt 0.177992 0.000717
vt 0.177992 0.993173
vt 0.957109 0.001228
vt 0.950636 0.997240
vt 0.950636 0.000796
vt 0.980669 0.996427
vt 0.974500 0.000415
vt 0.980668 0.000846
vt 0.013931 0.999628
vt 0.022943 0.000168
vt 0.022943 0.999832
vt 0.987141 0.995996
vt 0.987140 0.001277
vt 0.944097 0.997654
vt 0.944097 0.000382
vt 0.185243 0.000382
vt 0.185243 0.993508
vt 0.089821 0.999018
vt 0.095421 0.001364
vt 0.095421 0.998636
vt 0.190843 0.000000
vt 0.190843 0.993890
vt 0.095421 0.993508
vt 0.101605 0.993173
vt 0.000000 0.999018
vt 0.006184 0.000647
vt 0.006184 0.999353
vt 0.032875 0.000043
vt 1.000000 0.995199
vt 0.993668 0.001691
vt 0.999999 0.002073
vt 0.082570 0.999353
vt 0.089821 0.000982
vt 0.064283 0.999832
vt 0.073947 0.000372
vt 0.073947 0.999628
vt 0.963266 0.996378
vt 0.957108 0.996809
vt 0.169369 0.000991
vt 0.053950 0.000043
vt 0.053951 0.999958
vt 0.128297 0.001321
vt 0.968873 0.997273
vt 0.974500 0.996858
vt 0.937743 0.998036
vt 0.937743 0.000000
vt 0.963266 0.001659
vt 0.968872 0.995963
vt 0.993668 0.995581
vt 0.064283 0.000168
vt 0.013931 0.000372
vt 0.235288 0.000000
vt 0.254522 0.030505
vt 0.190843 0.141014
vt 0.082570 0.000647
vt 0.626142 0.168548
vt 0.625098 0.165576
vt 0.644331 0.141014
vt 0.688776 0.276074
vt 0.571813 0.153316
vt 0.561214 0.153608
vt 0.571813 0.183780
vt 0.688776 0.282028
vt 0.439810 0.282028
vt 0.561214 0.183487
vt 0.551022 0.154475
vt 0.541629 0.155883
vt 0.551022 0.182620
vt 0.541630 0.181213
vt 0.533397 0.157777
vt 0.526640 0.160085
vt 0.533397 0.179318
vt 0.526640 0.177010
vt 0.521620 0.162719
vt 0.518528 0.165576
vt 0.521620 0.174377
vt 0.441254 0.396612
vt 0.235288 0.423040
vt 0.190843 0.423040
vt 0.235288 0.141014
vt 0.688776 0.411134
vt 0.688776 0.141014
vt 0.441254 0.282028
vt 0.893298 0.000000
vt 0.688776 0.411134
vt 0.439810 0.141014
vt 0.307806 0.042766
vt 0.318405 0.042473
vt 0.307806 0.012302
vt 0.318405 0.012594
vt 0.328597 0.041606
vt 0.337990 0.040198
vt 0.328597 0.013461
vt 0.337990 0.014869
vt 0.346222 0.038304
vt 0.352979 0.035996
vt 0.346222 0.016763
vt 0.352979 0.019071
vt 0.357999 0.033363
vt 0.357999 0.021705
vt 0.361091 0.024562
vt 0.095422 0.000382
vt 0.000000 0.000982
vt 0.968872 0.000000
vt 0.968872 0.002073
vt 0.297207 0.012594
vt 0.287016 0.013461
vt 0.297207 0.042473
vt 0.287016 0.041606
vt 0.277623 0.014869
vt 0.269390 0.016763
vt 0.277623 0.040198
vt 0.269390 0.038304
vt 0.262634 0.019071
vt 0.257613 0.021705
vt 0.262634 0.035996
vt 0.257613 0.033363
vt 0.254522 0.024562
vt 0.253478 0.027534
vt 0.582412 0.183487
vt 0.592603 0.182620
vt 0.582412 0.153608
vt 0.592604 0.154475
vt 0.601996 0.181213
vt 0.610229 0.179318
vt 0.601996 0.155883
vt 0.610229 0.157777
vt 0.616985 0.177010
vt 0.622006 0.174377
vt 0.616985 0.160085
vt 0.622006 0.162719
vt 0.625098 0.171519
vn 0.1122 0.9937 0.0000
vn 0.0552 0.0000 0.9985
vn -1.0000 0.0000 0.0000
vn 0.1123 -0.9937 0.0000
vn 1.0000 0.0000 0.0000
vn 0.0548 0.0000 -0.9985
vn 0.1123 0.9937 0.0000
vn 0.0548 0.0000 0.9985
vn 0.0549 0.0001 -0.9985
vn -0.9970 0.0771 0.0000
vn -0.8419 0.5396 0.0000
vn -0.9226 0.3858 0.0000
vn 0.9970 -0.0770 0.0000
vn -0.9731 -0.2303 0.0000
vn -0.9971 -0.0767 0.0000
vn -0.8414 -0.5405 0.0000
vn 0.1249 -0.9922 0.0000
vn 0.1249 0.9922 0.0000
vn 0.9228 -0.3852 0.0000
vn -0.1250 0.9922 0.0000
vn 0.3616 -0.9323 0.0000
vn -0.7238 -0.6900 0.0000
vn 0.5640 0.8258 0.0000
vn -0.5640 -0.8257 0.0000
vn -0.7236 0.6902 0.0000
vn 0.7237 -0.6901 0.0000
vn 0.9731 -0.2303 0.0000
vn -0.5643 0.8256 0.0000
vn 0.7238 0.6900 0.0000
vn 0.9225 0.3859 0.0000
vn -0.1249 -0.9922 0.0000
vn -0.9222 -0.3866 0.0000
vn 0.9970 0.0770 0.0000
vn -0.9731 0.2304 0.0000
vn 0.3616 0.9323 0.0000
vn 0.5640 -0.8258 0.0000
vn -0.3618 -0.9323 0.0000
vn -0.3615 0.9324 0.0000
vn 0.9728 0.2317 0.0000
vn 0.8418 -0.5397 0.0000
vn 0.8414 0.5404 0.0000
vn 0.0548 -0.0001 0.9985
vn 0.0549 -0.0000 0.9985
vn 0.0547 -0.0000 0.9985
vn 0.0550 0.0000 0.9985
vn 0.0548 0.0001 0.9985
vn 0.0547 0.0001 0.9985
vn 0.1122 -0.9937 0.0000
vn 0.0549 0.0000 -0.9985
vn 0.0552 -0.0000 -0.9985
vn 0.0546 0.0000 -0.9985
vn 0.0548 0.0001 -0.9985
vn 0.0547 0.0001 -0.9985
vn 0.0548 -0.0001 -0.9985
vn -0.9971 0.0767 0.0000
vn -0.8414 0.5404 0.0000
vn -0.9222 0.3866 0.0000
vn 0.9971 -0.0765 0.0000
vn -0.9730 -0.2307 0.0000
vn -0.9970 -0.0771 0.0000
vn -0.8419 -0.5396 0.0000
vn 0.1250 0.9922 0.0000
vn 0.9225 -0.3860 0.0000
vn -0.1249 0.9922 0.0000
vn 0.3617 -0.9323 0.0000
vn -0.7235 -0.6903 0.0000
vn 0.5641 0.8257 0.0000
vn -0.5643 -0.8256 0.0000
vn -0.7238 0.6900 0.0000
vn 0.7239 -0.6899 0.0000
vn 0.9728 -0.2317 0.0000
vn -0.5640 0.8257 0.0000
vn 0.9228 0.3853 0.0000
vn -0.9226 -0.3858 0.0000
vn 0.9971 0.0765 0.0000
vn -0.9730 0.2306 0.0000
vn 0.3617 0.9323 0.0000
vn 0.5641 -0.8257 -0.0000
vn -0.3616 -0.9323 0.0000
vn -0.3618 0.9323 0.0000
vn 0.9731 0.2303 0.0000
vn 0.8413 -0.5405 0.0000
vn 0.0550 0.0000 -0.9985
vn 0.0547 0.0000 -0.9985
vn 0.0549 -0.0001 -0.9985
vn 0.0547 -0.0005 -0.9985
vn 0.8418 0.5398 0.0000
vn 0.0549 -0.0001 0.9985
vn 0.0549 0.0001 0.9985
usemtl Material.009
s off
f 5/1/1 3/2/1 1/3/1
f 67/4/2 56/5/2 4/6/2
f 7/7/3 6/8/3 8/9/3
f 2/10/4 8/11/4 6/12/4
f 1/13/5 4/14/5 2/15/5
f 5/16/6 2/17/6 6/12/6
f 13/18/7 11/19/7 9/20/7
f 11/21/8 16/22/8 12/23/8
f 15/24/3 14/25/3 16/26/3
f 10/27/4 16/28/4 14/29/4
f 9/30/5 12/31/5 10/32/5
f 20/33/9 38/34/9 10/35/9
f 31/36/10 66/37/10 34/38/10
f 47/39/11 78/40/11 77/41/11
f 47/39/12 75/42/12 33/43/12
f 21/44/13 61/45/13 28/46/13
f 39/47/14 63/48/14 41/49/14
f 39/47/15 66/37/15 65/50/15
f 25/51/16 51/52/16 22/53/16
f 38/54/17 60/55/17 48/56/17
f 37/57/18 73/58/18 72/59/18
f 18/60/19 50/61/19 17/62/19
f 26/63/20 72/59/20 71/64/20
f 48/56/21 54/65/21 29/66/21
f 22/53/22 52/67/22 40/68/22
f 30/69/23 74/70/23 27/71/23
f 40/68/24 58/72/24 19/73/24
f 23/74/25 78/40/25 32/75/25
f 36/76/26 69/77/26 35/78/26
f 17/62/27 70/79/27 21/44/27
f 23/80/28 76/81/28 79/82/28
f 45/83/29 80/84/29 30/69/29
f 42/85/30 57/86/30 43/87/30
f 38/54/31 56/88/31 67/89/31
f 25/51/32 63/48/32 59/90/32
f 28/46/33 62/91/33 44/92/33
f 33/43/34 64/93/34 31/36/34
f 27/94/35 73/58/35 46/95/35
f 29/66/36 53/96/36 36/97/36
f 20/98/37 58/99/37 56/88/37
f 26/63/38 76/81/38 24/100/38
f 42/85/39 62/91/39 68/101/39
f 35/78/40 49/102/40 18/60/40
f 9/103/6 26/104/6 13/105/6
f 43/87/41 55/106/41 45/83/41
f 72/107/42 73/108/42 3/109/42
f 5/1/7 7/110/7 3/2/7
f 4/6/8 3/109/8 61/111/8
f 4/6/8 61/111/8 70/112/8
f 66/113/8 7/114/8 8/115/8
f 65/116/43 66/113/43 8/115/43
f 4/6/44 70/112/44 50/117/44
f 4/6/45 50/117/45 49/118/45
f 63/119/8 65/116/8 8/115/8
f 59/120/42 63/119/42 8/115/42
f 4/6/8 49/118/8 69/121/8
f 4/6/8 69/121/8 53/122/8
f 51/123/46 59/120/46 8/115/46
f 52/124/8 51/123/8 8/115/8
f 4/6/42 53/122/42 54/125/42
f 4/6/8 54/125/8 60/126/8
f 58/127/46 52/124/46 8/115/46
f 56/5/42 58/127/42 8/115/42
f 8/115/8 4/6/8 56/5/8
f 4/6/47 60/126/47 67/4/47
f 7/7/3 5/128/3 6/8/3
f 2/10/48 4/129/48 8/11/48
f 1/13/5 3/130/5 4/14/5
f 5/16/6 1/131/6 2/17/6
f 13/18/7 15/132/7 11/19/7
f 11/21/8 15/133/8 16/22/8
f 15/24/3 13/134/3 14/25/3
f 10/27/4 12/135/4 16/28/4
f 9/30/5 11/136/5 12/31/5
f 14/137/6 13/105/6 34/138/6
f 14/137/49 34/138/49 39/139/49
f 28/140/6 9/103/6 10/35/6
f 21/141/50 28/140/50 10/35/50
f 14/137/6 39/139/6 41/142/6
f 14/137/6 41/142/6 25/143/6
f 17/144/51 21/141/51 10/35/51
f 18/145/6 17/144/6 10/35/6
f 14/137/6 25/143/6 22/146/6
f 14/137/6 22/146/6 40/147/6
f 35/148/49 18/145/49 10/35/49
f 36/149/49 35/148/49 10/35/49
f 14/137/52 40/147/52 19/150/52
f 14/137/6 19/150/6 20/33/6
f 29/151/6 36/149/6 10/35/6
f 48/152/53 29/151/53 10/35/53
f 10/35/6 14/137/6 20/33/6
f 38/34/54 48/152/54 10/35/54
f 31/36/55 64/93/55 66/37/55
f 47/39/56 32/75/56 78/40/56
f 47/39/57 77/41/57 75/42/57
f 21/44/58 70/79/58 61/45/58
f 39/47/59 65/50/59 63/48/59
f 39/47/60 34/38/60 66/37/60
f 25/51/61 59/90/61 51/52/61
f 38/54/17 67/89/17 60/55/17
f 37/57/62 46/95/62 73/58/62
f 18/60/63 49/102/63 50/61/63
f 26/63/64 37/57/64 72/59/64
f 48/56/65 60/55/65 54/65/65
f 22/53/66 51/52/66 52/67/66
f 30/69/67 80/84/67 74/70/67
f 40/68/68 52/67/68 58/72/68
f 23/74/69 79/153/69 78/40/69
f 36/76/70 53/154/70 69/77/70
f 17/62/71 50/61/71 70/79/71
f 23/80/72 24/100/72 76/81/72
f 45/83/29 55/106/29 80/84/29
f 42/85/73 68/101/73 57/86/73
f 38/54/31 20/98/31 56/88/31
f 25/51/74 41/49/74 63/48/74
f 28/46/75 61/45/75 62/91/75
f 33/43/76 75/42/76 64/93/76
f 27/94/77 74/155/77 73/58/77
f 29/66/78 54/65/78 53/96/78
f 20/98/79 19/156/79 58/99/79
f 26/63/80 71/64/80 76/81/80
f 42/85/81 44/92/81 62/91/81
f 35/78/82 69/77/82 49/102/82
f 9/103/83 28/140/83 44/157/83
f 9/103/84 44/157/84 42/158/84
f 31/159/49 34/138/49 13/105/49
f 33/160/6 31/159/6 13/105/6
f 9/103/85 42/158/85 43/161/85
f 9/103/6 43/161/6 45/162/6
f 47/163/6 33/160/6 13/105/6
f 32/164/6 47/163/6 13/105/6
f 9/103/6 45/162/6 30/165/6
f 9/103/9 30/165/9 27/166/9
f 23/167/6 32/164/6 13/105/6
f 24/168/54 23/167/54 13/105/54
f 9/103/6 27/166/6 46/169/6
f 9/103/9 46/169/9 37/170/9
f 26/104/6 24/168/6 13/105/6
f 9/103/86 37/170/86 26/104/86
f 43/87/87 57/86/87 55/106/87
f 7/114/8 66/113/8 64/171/8
f 7/114/8 64/171/8 75/172/8
f 62/173/45 61/111/45 3/109/45
f 68/174/8 62/173/8 3/109/8
f 7/114/46 75/172/46 77/175/46
f 7/114/88 77/175/88 78/176/88
f 57/177/43 68/174/43 3/109/43
f 55/178/43 57/177/43 3/109/43
f 7/114/8 78/176/8 79/179/8
f 7/114/42 79/179/42 76/180/42
f 80/181/44 55/178/44 3/109/44
f 74/182/46 80/181/46 3/109/46
f 7/114/89 76/180/89 71/183/89
f 7/114/8 71/183/8 3/109/8
f 71/183/45 72/107/45 3/109/45
f 73/108/8 74/182/8 3/109/8
