# Blender v2.90.1 OBJ File: 'plantaBaja.blend'
# www.blender.org
mtllib CajaAbierta.mtl
o Cube_Cube.037
v 394.306976 7.745743 -82.203041
v 399.830536 8.319013 -81.460869
v 399.830536 7.745743 -82.203041
v 394.306976 8.337703 -81.475304
v 394.306976 7.764433 -82.217476
v 399.830536 8.337703 -81.475304
v 399.830536 7.764433 -82.217476
v 394.325073 8.319013 -75.963333
v 393.582886 7.745743 -75.963333
v 394.325073 8.319013 -81.486885
v 393.582886 7.745743 -81.486885
v 394.310638 8.337703 -75.963333
v 393.568451 7.764433 -75.963333
v 394.310638 8.337703 -81.486885
v 393.568451 7.764433 -81.486885
v 399.812164 8.328766 -75.952690
v 399.812164 7.755496 -75.210518
v 394.288605 8.328766 -75.952690
v 394.288605 7.755496 -75.210518
v 399.812164 8.347456 -75.938255
v 399.812164 7.774186 -75.196083
v 394.288605 8.347456 -75.938255
v 394.288605 7.774186 -75.196083
v 399.781158 8.328462 -81.473396
v 400.523315 7.755193 -81.473396
v 399.781158 8.328462 -75.949852
v 400.523315 7.755193 -75.949852
v 399.795593 8.347152 -81.473396
v 400.537781 7.773883 -81.473396
v 399.795593 8.347152 -75.949852
v 400.537781 7.773883 -75.949852
v 399.703949 3.174025 -81.321175
v 399.703949 3.174025 -76.102074
v 394.484833 3.174025 -81.321175
v 394.484833 3.174025 -76.102074
v 399.856171 8.333455 -81.473396
v 399.856171 2.809903 -81.473396
v 399.856171 8.333455 -75.949852
v 399.856171 2.809903 -75.949852
v 394.332611 8.333455 -81.473396
v 394.332611 2.809903 -81.473396
v 394.332611 8.333455 -75.949852
v 394.332611 2.809903 -75.949852
v 399.703949 8.333455 -76.102074
v 394.484833 8.333454 -76.102074
v 394.484833 8.333455 -81.321175
v 399.703949 8.333454 -81.321175
v 399.813324 8.333455 -75.949852
v 399.856171 8.300366 -75.949852
v 399.813324 8.333455 -81.430565
v 399.813324 8.333455 -81.473396
v 399.856171 8.300366 -81.473396
v 399.856171 8.270525 -81.473396
v 399.785004 8.333455 -81.473396
v 399.785004 8.333455 -75.949852
v 399.785004 8.333454 -81.402252
v 399.856171 8.270525 -75.949852
v 399.837494 8.314787 -75.949852
v 399.820648 8.297950 -75.949852
v 399.856171 8.273483 -75.949852
v 399.856171 8.300366 -81.473396
v 399.856171 8.270525 -81.473396
v 399.856171 8.297883 -81.473396
v 399.785004 8.333455 -75.949852
v 399.785004 8.333455 -75.949852
v 399.812439 8.333455 -81.473396
v 399.785004 8.333455 -81.473396
v 399.812164 8.326572 -75.949852
v 399.812164 8.332442 -75.949852
v 399.812164 8.326571 -75.949852
v 399.812164 8.332442 -75.949852
v 394.332611 8.332442 -75.949852
v 399.784241 8.332442 -75.949852
v 399.784241 8.332442 -75.949852
v 394.332611 8.328766 -75.952690
v 399.781403 8.328766 -75.952690
v 399.781158 8.328462 -75.952293
v 399.783600 8.326572 -75.949852
v 394.332611 8.326571 -75.949852
v 399.830536 8.309333 -81.473396
v 399.830536 8.309333 -81.473396
v 399.830536 8.320173 -81.473396
v 399.830536 8.320173 -81.473396
v 399.830536 8.309972 -81.473396
v 399.830536 8.333455 -81.473396
v 399.830536 8.333455 -81.472023
v 399.830536 8.320173 -81.461769
v 394.310638 8.337703 -81.475304
v 394.317535 8.328761 -81.486885
v 394.306976 8.328761 -81.486885
v 394.306976 8.334881 -81.478958
v 399.781158 8.328462 -81.468170
v 399.813324 8.333455 -81.472023
v 399.785004 8.333455 -81.472023
v 399.811035 8.335235 -81.473396
v 399.786377 8.335235 -81.473396
v 394.310638 8.337690 -81.475296
v 399.793396 8.319013 -81.460869
v 399.805939 8.309333 -81.473396
v 394.325073 8.319013 -81.460869
v 394.332611 8.319013 -81.460869
v 394.332611 8.333455 -81.472023
v 394.306976 8.334881 -81.473129
v 394.306976 8.305039 -81.478958
v 394.332611 8.309333 -81.473396
v 394.306976 8.305039 -81.486885
v 394.310638 8.337690 -81.475296
vt 0.260590 0.286723
vt 0.261271 0.287146
vt 0.261636 0.287432
vt 0.783356 0.253008
vt 0.782832 0.253325
vt 0.782832 0.000000
vt 0.252933 0.286723
vt 0.253779 0.540216
vt 0.252933 0.540216
vt 0.033610 0.252663
vt 0.032791 0.253493
vt 0.033042 0.252316
vt 0.262729 0.329090
vt 0.262729 0.287101
vt 0.262948 0.287389
vt 0.252933 0.539009
vt 0.252488 0.540199
vt 0.252080 0.539663
vt 0.258451 0.329761
vt 0.258451 0.286723
vt 0.258670 0.287107
vt 0.264210 0.287255
vt 0.264209 0.287255
vt 0.264210 0.286723
vt 0.253779 0.286723
vt 0.254625 0.540216
vt 0.253779 0.540216
vt 0.032432 0.286723
vt 0.258451 0.286723
vt 0.257381 0.329761
vt 0.257381 0.286723
vt 0.000000 0.000000
vt 0.000000 0.000000
vt 0.000000 0.000000
vt 0.259520 0.329761
vt 0.260590 0.286723
vt 0.260590 0.329761
vt 0.233650 0.540216
vt 0.267260 0.793709
vt 0.233650 0.793709
vt 0.280879 0.286723
vt 0.281725 0.540216
vt 0.280879 0.540216
vt 0.880459 0.255530
vt 0.880441 0.505581
vt 0.846849 0.507004
vt 0.262729 0.329596
vt 0.262518 0.329761
vt 0.261659 0.329761
vt 0.256312 0.540195
vt 0.256087 0.540134
vt 0.256312 0.539954
vt 0.257313 0.287738
vt 0.256597 0.286723
vt 0.257381 0.286723
vt 0.000000 0.000000
vt 0.000000 0.000000
vt 0.000000 0.000000
vt 0.282572 0.286723
vt 0.281725 0.540216
vt 0.281725 0.286723
vt 0.816996 0.252918
vt 0.816442 0.000112
vt 0.818231 0.000000
vt 0.000000 0.540216
vt 0.233650 0.779737
vt 0.000000 0.779737
vt 1.000000 0.986025
vt 0.766362 0.746556
vt 1.000000 0.746525
vt 0.532711 0.746525
vt 0.769064 0.507004
vt 0.769064 0.746525
vt 0.516222 1.000000
vt 0.282572 0.760479
vt 0.516222 0.760479
vt 0.766362 0.986046
vt 0.532711 0.746525
vt 0.766362 0.746525
vt 0.250140 0.286723
vt 0.251301 0.286786
vt 0.252080 0.288689
vt 0.284564 0.253540
vt 0.284564 0.253809
vt 0.284512 0.253493
vt 0.282784 0.253363
vt 0.282572 0.253493
vt 0.283226 0.000575
vt 0.000000 0.540216
vt 0.250140 0.286723
vt 0.250140 0.540216
vt 0.782832 0.251879
vt 0.532714 0.251962
vt 0.532714 0.250728
vt 0.284183 0.506986
vt 0.532711 0.506986
vt 0.283664 0.508163
vt 0.775957 0.260497
vt 0.779629 0.253511
vt 0.779629 0.503739
vt 0.282572 0.255012
vt 0.282572 0.253493
vt 0.250140 0.540216
vt 0.782832 0.251992
vt 0.782832 0.253511
vt 0.532714 0.253480
vt 0.882122 0.504955
vt 0.881992 0.506077
vt 0.881361 0.503744
vt 0.780432 0.255477
vt 0.781211 0.254045
vt 0.782372 0.253511
vt 0.780432 0.507004
vt 0.779629 0.507004
vt 0.779629 0.506941
vt 0.532712 0.506941
vt 0.539605 0.500018
vt 0.256087 0.540197
vt 0.256007 0.540198
vt 0.256312 0.286865
vt 0.256539 0.286723
vt 0.257102 0.287902
vt 0.000000 0.000000
vt 0.000000 0.000000
vt 0.256298 0.286854
vt 0.256312 0.286723
vt 0.256312 0.286836
vt 0.816553 0.000000
vt 0.816442 0.000000
vt 0.254625 0.286723
vt 0.255305 0.286723
vt 0.255305 0.288005
vt 0.880459 0.507004
vt 0.880330 0.507004
vt 0.880330 0.505693
vt 0.252080 0.540194
vt 0.252080 0.539663
vt 0.264092 0.286723
vt 0.264092 0.286991
vt 0.263965 0.286891
vt 0.264209 0.286723
vt 0.264209 0.286960
vt 0.264092 0.286842
vt 0.259520 0.286723
vt 0.259520 0.287772
vt 0.532712 0.507004
vt 0.032432 0.252663
vt 0.781211 0.253511
vt 0.780432 0.253574
vt 0.780432 0.253511
vt 0.000000 0.000000
vt 0.000000 0.000000
vt 0.000000 0.000000
vt 0.816442 0.253493
vt 0.816442 0.253253
vt 0.000000 0.000000
vt 0.000000 0.000000
vt 0.000000 0.000000
vt 0.282572 0.510251
vt 0.282572 0.508993
vt 0.256087 0.536932
vt 0.000000 0.000000
vt 0.000000 0.000000
vt 0.903387 0.253678
vt 0.903402 0.253511
vt 0.903529 0.253523
vt 0.881034 0.503955
vt 0.880933 0.505081
vt 0.880742 0.505962
vt 0.880933 0.505979
vt 0.881004 0.505194
vt 0.881532 0.506035
vt 0.881737 0.504342
vt 0.881585 0.506039
vt 0.881361 0.503744
vt 0.903488 0.254701
vt 0.904140 0.254761
vt 0.780328 0.253511
vt 0.283664 0.000000
vt 0.282572 0.000063
vt 0.282572 0.000000
vt 0.261659 0.286723
vt 0.261659 0.287450
vt 0.033042 0.000000
vt 0.033610 0.000000
vt 0.033610 0.001704
vt 0.881004 0.505194
vt 0.880459 0.504326
vt 0.261659 0.287450
vt 0.261659 0.329756
vt 0.260590 0.329756
vt 0.260833 0.286723
vt 0.261593 0.286723
vt 0.816442 0.000000
vt 0.816442 0.253493
vt 0.783356 0.253493
vt 0.253779 0.286723
vt 0.000000 0.253493
vt 0.000000 0.000000
vt 0.033042 0.000000
vt 0.033610 0.252316
vt 0.263798 0.286723
vt 0.263798 0.329090
vt 0.252080 0.286723
vt 0.252933 0.286732
vt 0.252933 0.540203
vt 0.259520 0.329761
vt 0.258962 0.286723
vt 0.813239 0.253511
vt 0.846849 0.253511
vt 0.813239 0.254043
vt 0.846849 0.507004
vt 0.813239 0.507004
vt 0.254625 0.286723
vt 0.282572 0.252663
vt 0.282572 0.286723
vt 0.032432 0.253493
vt 0.258451 0.329761
vt 0.263965 0.288135
vt 0.263798 0.288135
vt 0.263965 0.286854
vt 0.263798 0.286723
vt 0.259520 0.286723
vt 0.267260 0.540216
vt 0.281725 0.286723
vt 0.880330 0.507004
vt 0.846849 0.253511
vt 0.880459 0.253511
vt 0.880459 0.505592
vt 0.261659 0.286723
vt 0.262729 0.286723
vt 0.262729 0.329596
vt 0.256087 0.540197
vt 0.257381 0.329761
vt 0.256312 0.329761
vt 0.257381 0.290236
vt 0.256312 0.289014
vt 0.257381 0.289153
vt 0.813239 0.253511
vt 0.813239 0.507004
vt 0.782372 0.507004
vt 0.000000 0.000000
vt 0.000000 0.000000
vt 0.282572 0.540216
vt 0.850052 0.000000
vt 0.850052 0.253493
vt 0.819839 0.253493
vt 0.817564 0.253493
vt 0.000000 0.000000
vt 0.882320 0.507289
vt 0.883666 0.507413
vt 0.903269 0.540630
vt 0.881532 0.506035
vt 0.233650 0.540216
vt 0.766362 0.986056
vt 0.532711 0.507004
vt 0.282572 1.000000
vt 0.532711 0.986046
vt 0.251301 0.286723
vt 0.252080 0.286786
vt 0.532711 0.506986
vt 0.282572 0.506986
vt 0.282572 0.256245
vt 0.285794 0.253493
vt 0.532711 0.253493
vt 0.532711 0.253540
vt 0.532711 0.253809
vt 0.532711 0.000000
vt 0.532711 0.253493
vt 0.282883 0.253493
vt 0.282617 0.253493
vt 0.000000 0.286723
vt 0.532711 0.000000
vt 0.782830 0.000031
vt 0.532711 0.760479
vt 0.283664 0.760479
vt 0.282572 0.508163
vt 0.282572 0.506986
vt 0.284070 0.506986
vt 0.775958 0.500018
vt 0.539605 0.260497
vt 0.000000 0.000000
vt 0.000000 0.000000
vt 0.000000 0.000000
vt 0.252080 0.540216
vt 0.532714 0.250592
vt 0.782832 0.250623
vt 0.882021 0.506080
vt 0.283417 0.254350
vt 0.779629 0.253511
vt 0.781527 0.507004
vt 0.000000 0.000000
vt 0.000000 0.000000
vt 0.000000 0.000000
vt 0.000000 0.000000
vt 0.262729 0.329761
vt 0.256133 0.286725
vt 0.000000 0.000000
vt 0.255472 0.288135
vt 0.255472 0.538197
vt 0.255472 0.540216
vt 0.254625 0.540216
vt 0.257102 0.287902
vt 0.779629 0.507004
vt 0.252080 0.286723
vt 0.904171 0.540048
vt 0.000000 0.000000
vt 0.282572 0.760479
vt 0.256087 0.286726
vt 0.255472 0.540203
vt 0.255472 0.286732
vt 0.000000 0.000000
vt 0.000000 0.000000
vt 0.903387 0.253678
vt 0.904171 0.254415
vt 0.881120 0.503899
vt 0.881120 0.503899
vn 1.0000 0.0000 0.0000
vn 0.0000 0.7915 -0.6112
vn 0.0000 -0.6113 -0.7914
vn 0.0001 -0.7916 0.6111
vn -1.0000 0.0032 0.0000
vn 0.7933 0.6088 -0.0002
vn -0.0004 0.0000 -1.0000
vn -1.0000 0.0000 0.0000
vn -0.7902 -0.6129 0.0000
vn 0.6114 -0.7913 -0.0002
vn 0.0000 0.0000 1.0000
vn -1.0000 -0.0028 0.0000
vn 0.0000 0.7914 0.6113
vn 0.0000 -0.6112 0.7915
vn 0.0000 -0.7914 -0.6113
vn 0.7934 -0.6087 0.0000
vn 0.0000 0.0000 -1.0000
vn -0.7902 0.6129 0.0000
vn 0.6119 0.7909 0.0000
vn 0.0000 1.0000 0.0000
vn 0.0000 -1.0000 0.0000
vn -0.6120 -0.7908 -0.0006
vn -0.6114 -0.7914 0.0000
vn 0.7698 -0.6383 0.0000
vn 0.7214 -0.6925 0.0000
vn 0.6126 0.7904 0.0000
vn 0.0000 0.6107 -0.7919
vn 0.0000 -0.7913 -0.6115
vn 0.7911 0.6117 0.0000
vn 0.0000 0.7909 -0.6119
vn -0.0006 0.0000 -1.0000
vn 0.6128 -0.7903 0.0000
vn -0.6139 -0.7894 0.0000
vn 0.6084 0.7936 0.0000
vn 0.7886 -0.6149 -0.0000
vn 0.0023 0.6172 0.7868
vn 0.0000 0.6120 0.7909
vn 0.0000 0.6110 0.7917
vn 0.0000 0.6118 0.7910
vn 0.0000 0.6113 0.7914
vn -0.6192 -0.7853 0.0000
vn 0.0000 -0.7914 0.6113
vn -0.0003 0.0000 1.0000
vn 1.0000 -0.0004 0.0000
vn 1.0000 -0.0011 0.0000
vn 1.0000 0.0024 0.0000
vn 0.0000 0.7914 -0.6113
vn 0.0000 0.7905 -0.6125
vn 0.0000 -0.7913 0.6114
vn 0.0000 -0.7882 0.6154
vn 0.7924 0.6100 0.0000
vn 0.7905 0.6125 0.0000
vn 0.8227 0.1722 0.5419
vn 0.7893 0.6140 -0.0000
vn -0.6109 0.7917 0.0008
vn -0.6113 0.7914 0.0000
vn -0.7920 -0.6106 0.0000
vn 0.6113 -0.7914 0.0000
vn 0.0001 0.0000 1.0000
vn 0.0000 0.6109 -0.7917
vn -1.0000 0.0014 0.0000
vn 0.0000 -0.6113 0.7914
vn -0.0035 -0.7869 -0.6171
vn 0.0000 -0.7913 -0.6114
vn 0.0000 -0.7926 -0.6097
vn 1.0000 -0.0028 0.0000
vn 0.7942 -0.6077 0.0000
vn 0.0001 0.0000 -1.0000
vn 0.0002 0.0000 -1.0000
vn -0.0030 0.0000 -1.0000
vn -0.6113 -0.7914 0.0000
vn -0.7920 0.6106 0.0000
vn 0.6113 0.7914 0.0000
vn 0.6118 0.7910 0.0006
vn 0.6091 0.7931 0.0000
vn 0.6098 0.7925 0.0005
vn 0.6114 0.7913 0.0000
vn -0.0004 0.0000 1.0000
vn -1.0000 -0.0004 0.0000
vn -0.6110 -0.7917 0.0000
vn -0.6112 -0.7915 0.0000
vn -0.6096 -0.7927 0.0000
vn -0.6121 -0.7908 0.0000
vn 0.9701 0.0000 -0.2425
vn -0.6111 -0.7916 0.0000
vn -0.6095 -0.7927 -0.0002
vn -0.6275 -0.7786 0.0000
vn 0.7889 -0.6145 0.0023
vn 0.0000 0.6110 -0.7916
vn 0.0000 0.6112 -0.7915
vn 0.0000 0.6113 -0.7914
vn 0.0018 -0.8052 -0.5929
vn 0.0000 -0.7910 -0.6119
vn 0.6092 -0.7930 0.0000
vn -0.6102 -0.7922 0.0000
vn 0.6116 0.7912 0.0002
vn 0.0014 0.0000 1.0000
vn 0.7923 -0.6101 0.0000
vn 0.7936 -0.6084 -0.0000
vn 0.7909 -0.6120 0.0000
vn 0.8319 -0.5546 -0.0184
vn 0.7906 -0.6123 0.0000
vn 0.7958 -0.6055 -0.0022
vn 0.7917 -0.6108 0.0000
vn 0.0000 0.4997 0.8662
vn 0.0000 0.4833 0.8755
vn 0.0000 0.6114 0.7913
vn 0.0000 0.6061 0.7954
vn 0.0000 0.6110 0.7916
vn 0.0000 0.6099 0.7925
vn 0.0000 0.6091 0.7931
vn 0.0000 0.6116 0.7912
vn 0.0000 0.6072 0.7946
vn 0.0028 0.6079 0.7940
vn 0.0000 0.6117 0.7911
vn -0.0054 0.6091 0.7930
vn 0.0000 0.6109 0.7917
usemtl Material.052
s off
f 6/1/1 82/2/1 84/3/1
f 89/4/2 88/5/2 6/6/2
f 7/7/3 1/8/3 5/9/3
f 100/10/4 104/11/4 105/12/4
f 1/13/5 104/14/5 106/15/5
f 100/16/6 89/17/6 107/18/6
f 15/19/7 14/20/7 90/21/7
f 107/22/8 88/23/8 14/24/8
f 15/25/9 9/26/9 13/27/9
f 104/11/10 100/10/10 11/28/10
f 9/29/11 12/30/11 13/31/11
f 74/32/11 73/33/11 71/34/11
f 23/35/12 18/36/12 19/37/12
f 21/38/13 22/39/13 23/40/13
f 23/41/14 17/42/14 21/43/14
f 75/44/15 77/45/15 17/46/15
f 68/47/1 69/48/1 20/49/1
f 24/50/16 94/51/16 92/52/16
f 71/53/17 64/54/17 30/55/17
f 52/56/11 83/57/11 61/58/11
f 25/59/18 31/60/18 29/61/18
f 98/62/19 77/63/19 59/64/19
f 35/65/17 44/66/17 33/67/17
f 34/68/1 45/69/1 35/70/1
f 35/71/20 32/72/20 34/73/20
f 33/74/8 47/75/8 32/76/8
f 32/77/11 46/78/11 34/79/11
f 36/80/20 86/81/20 50/82/20
f 69/83/11 68/84/11 48/85/11
f 75/86/8 42/87/8 101/88/8
f 37/89/21 43/90/21 41/91/21
f 63/92/1 49/93/1 60/94/1
f 63/95/17 37/96/17 81/97/17
f 44/98/20 65/99/20 56/100/20
f 48/85/11 49/101/11 38/102/11
f 50/82/20 38/103/20 36/80/20
f 52/104/1 36/105/1 38/106/1
f 99/107/11 84/108/11 24/109/11
f 50/110/22 87/111/22 52/112/22
f 50/110/23 48/113/23 30/114/23
f 94/115/20 102/116/20 46/117/20
f 67/118/24 96/119/24 94/51/24
f 78/120/17 73/121/17 70/122/17
f 69/123/11 16/124/11 71/34/11
f 76/125/25 26/126/25 77/127/25
f 78/128/26 77/63/26 26/129/26
f 20/130/27 69/131/27 73/132/27
f 16/133/28 68/134/28 78/135/28
f 89/17/29 14/136/29 88/137/29
f 91/138/8 103/139/8 4/140/8
f 88/141/30 91/142/30 4/143/30
f 90/21/31 10/144/31 106/145/31
f 94/115/20 40/146/20 102/116/20
f 104/11/32 10/147/32 100/10/32
f 82/148/33 93/149/33 51/150/33
f 85/151/17 66/152/17 51/153/17
f 98/62/34 24/154/34 92/155/34
f 99/156/11 62/157/11 53/158/11
f 54/159/17 66/160/17 81/97/17
f 56/161/35 76/125/35 77/127/35
f 64/162/11 73/33/11 55/163/11
f 97/164/36 4/165/36 103/166/36
f 96/167/37 95/168/37 6/169/37
f 86/170/38 93/171/38 87/172/38
f 98/173/39 2/174/39 93/171/39
f 92/175/40 102/176/40 101/177/40
f 93/149/41 95/178/41 51/150/41
f 105/179/8 102/180/8 40/181/8
f 2/182/1 81/183/1 84/3/1
f 81/184/42 2/185/42 98/186/42
f 24/109/43 84/108/43 51/187/43
f 96/167/11 95/168/11 28/188/11
f 80/189/44 3/190/44 7/191/44
f 7/191/45 6/1/45 80/189/45
f 6/1/46 86/192/46 82/2/46
f 86/192/1 87/193/1 82/2/1
f 84/3/1 80/189/1 6/1/1
f 6/6/47 7/194/47 89/4/47
f 7/194/47 5/195/47 89/4/47
f 5/195/48 90/196/48 89/4/48
f 7/7/3 3/197/3 1/8/3
f 104/11/49 1/198/49 105/12/49
f 1/198/42 3/199/42 105/12/42
f 80/200/11 81/184/11 105/12/11
f 3/199/42 80/200/42 105/12/42
f 101/201/50 100/10/50 105/12/50
f 90/202/8 5/203/8 106/15/8
f 5/203/8 1/13/8 106/15/8
f 12/204/51 8/205/51 100/16/51
f 100/16/52 10/206/52 89/17/52
f 89/17/53 88/137/53 107/18/53
f 107/18/54 12/204/54 100/16/54
f 106/145/17 11/207/17 15/19/17
f 14/20/17 89/208/17 90/21/17
f 90/21/17 106/145/17 15/19/17
f 14/209/55 15/210/55 107/211/55
f 15/210/56 13/212/56 107/211/56
f 13/212/56 12/213/56 107/211/56
f 15/25/57 11/214/57 9/26/57
f 8/215/58 9/216/58 100/10/58
f 9/216/58 11/28/58 100/10/58
f 11/28/58 106/217/58 104/11/58
f 9/29/59 8/218/59 12/30/59
f 71/219/27 16/220/27 74/221/27
f 16/220/60 76/222/60 74/221/60
f 23/35/61 22/223/61 18/36/61
f 21/38/13 20/224/13 22/39/13
f 23/41/62 19/225/62 17/42/62
f 70/226/15 17/46/15 78/135/15
f 17/46/15 19/227/15 75/44/15
f 78/135/63 17/46/63 77/45/63
f 19/227/64 18/228/64 75/44/64
f 75/44/65 76/229/65 77/45/65
f 20/49/1 21/230/1 68/47/1
f 21/230/66 17/231/66 68/47/66
f 17/231/8 70/232/8 68/47/8
f 24/50/67 54/233/67 94/51/67
f 31/234/17 27/235/17 49/236/17
f 27/235/68 59/237/68 49/236/68
f 59/237/68 78/120/68 70/122/68
f 71/53/17 73/121/17 64/54/17
f 59/237/69 70/122/69 58/238/69
f 70/122/17 71/53/17 58/238/17
f 59/237/17 58/238/17 49/236/17
f 30/55/70 58/238/70 71/53/70
f 29/239/71 31/240/71 49/241/71
f 29/239/71 49/241/71 52/112/71
f 82/242/11 51/153/11 83/57/11
f 61/58/11 29/243/11 52/56/11
f 52/56/11 82/242/11 83/57/11
f 25/59/72 27/244/72 31/60/72
f 27/245/73 25/246/73 62/247/73
f 62/247/74 99/248/74 98/62/74
f 98/62/75 92/155/75 77/63/75
f 77/63/76 78/128/76 59/64/76
f 59/64/73 27/245/73 62/247/73
f 62/247/77 98/62/77 59/64/77
f 83/57/11 82/242/11 84/249/11
f 52/250/11 53/251/11 29/252/11
f 83/253/11 84/108/11 52/250/11
f 35/65/17 45/254/17 44/66/17
f 34/68/1 46/255/1 45/69/1
f 35/71/20 33/256/20 32/72/20
f 33/74/8 44/257/8 47/75/8
f 32/77/11 47/258/11 46/78/11
f 36/80/20 85/259/20 86/81/20
f 86/81/20 93/260/20 50/82/20
f 43/261/11 39/262/11 60/263/11
f 60/263/11 49/101/11 68/84/11
f 49/101/78 48/85/78 68/84/78
f 65/264/11 42/265/11 72/266/11
f 79/267/11 43/261/11 60/263/11
f 68/84/11 79/267/11 60/263/11
f 48/85/11 65/264/11 69/83/11
f 65/264/11 72/266/11 69/83/11
f 41/268/8 43/269/8 101/88/8
f 43/269/8 79/270/8 75/86/8
f 75/86/8 72/271/8 42/87/8
f 43/269/8 75/86/8 101/88/8
f 101/88/8 105/179/8 41/268/8
f 42/87/79 102/180/79 101/88/79
f 37/89/21 39/272/21 43/90/21
f 39/273/1 37/274/1 60/94/1
f 37/274/1 63/92/1 60/94/1
f 63/92/1 52/104/1 49/93/1
f 37/96/17 41/275/17 81/97/17
f 41/275/17 105/276/17 81/97/17
f 81/97/17 85/277/17 36/278/17
f 36/278/17 52/279/17 81/97/17
f 52/279/17 63/95/17 81/97/17
f 56/100/20 47/280/20 44/98/20
f 44/98/20 45/281/20 65/99/20
f 45/281/20 42/265/20 65/99/20
f 65/282/11 48/283/11 55/163/11
f 65/282/11 55/163/11 56/284/11
f 50/82/20 48/285/20 38/103/20
f 38/106/1 49/93/1 52/104/1
f 49/93/1 57/286/1 52/104/1
f 57/286/1 53/287/1 52/104/1
f 99/107/11 80/288/11 84/108/11
f 52/112/80 49/241/80 50/110/80
f 49/241/81 48/113/81 50/110/81
f 50/110/82 93/149/82 87/111/82
f 87/111/83 82/148/83 52/112/83
f 48/85/84 49/101/84 58/289/84
f 30/114/85 28/290/85 50/110/85
f 28/290/86 95/178/86 50/110/86
f 95/178/87 93/149/87 50/110/87
f 48/113/1 58/291/1 30/114/1
f 47/280/20 56/100/20 94/115/20
f 102/116/20 42/265/20 45/281/20
f 46/117/20 47/280/20 94/115/20
f 102/116/20 45/281/20 46/117/20
f 54/292/11 24/293/11 67/294/11
f 94/295/11 54/292/11 67/294/11
f 26/126/17 73/121/17 78/120/17
f 73/121/17 71/53/17 70/122/17
f 69/48/1 68/47/1 16/296/1
f 76/125/88 74/297/88 26/126/88
f 73/33/11 74/32/11 76/298/11
f 76/299/89 75/300/89 73/132/89
f 75/300/90 18/301/90 22/302/90
f 73/132/91 75/300/91 20/130/91
f 22/302/90 20/130/90 75/300/90
f 69/123/11 71/34/11 73/33/11
f 68/303/11 70/122/11 78/120/11
f 78/135/92 77/45/92 76/229/92
f 76/229/93 16/133/93 78/135/93
f 90/21/17 89/208/17 10/144/17
f 94/115/20 54/304/20 40/146/20
f 104/11/94 106/217/94 10/147/94
f 82/148/95 87/111/95 93/149/95
f 51/305/20 93/260/20 86/81/20
f 66/152/11 54/292/11 51/153/11
f 51/305/20 86/81/20 85/259/20
f 98/62/96 99/248/96 24/154/96
f 52/250/97 84/108/97 80/288/97
f 25/306/11 29/252/11 53/251/11
f 53/251/43 52/250/43 80/288/43
f 62/157/11 25/307/11 53/158/11
f 53/251/11 80/288/11 99/107/11
f 66/160/17 85/277/17 81/97/17
f 81/97/17 105/276/17 54/159/17
f 105/276/17 40/308/17 54/159/17
f 77/127/98 92/52/98 56/161/98
f 92/52/99 94/51/99 56/161/99
f 56/161/100 55/309/100 76/125/100
f 55/309/101 74/297/101 76/125/101
f 56/161/102 94/51/102 28/310/102
f 94/51/103 96/119/103 28/310/103
f 28/310/102 30/311/102 56/161/102
f 73/33/11 26/312/11 74/32/11
f 55/309/104 56/161/104 30/311/104
f 55/163/11 30/313/11 64/162/11
f 73/33/11 74/32/11 55/163/11
f 97/164/105 88/314/105 4/165/105
f 6/169/106 88/314/106 97/164/106
f 97/164/107 100/315/107 102/176/107
f 100/315/108 101/177/108 102/176/108
f 102/176/109 94/316/109 96/167/109
f 93/171/110 86/170/110 6/169/110
f 95/168/111 93/171/111 6/169/111
f 6/169/107 97/164/107 96/167/107
f 97/164/112 102/176/112 96/167/112
f 2/174/113 87/172/113 93/171/113
f 93/171/114 95/168/114 98/173/114
f 95/168/40 96/167/40 98/173/40
f 94/316/115 92/175/115 98/173/115
f 96/167/116 94/316/116 98/173/116
f 101/177/107 98/173/107 92/175/107
f 92/175/117 94/316/117 102/176/117
f 105/179/8 101/88/8 102/180/8
f 81/183/11 80/189/11 84/3/11
f 84/3/1 82/2/1 87/193/1
f 87/193/1 2/182/1 84/3/1
f 98/186/49 101/201/49 105/12/49
f 105/12/49 81/184/49 98/186/49
f 51/187/11 95/168/11 24/109/11
f 95/168/11 96/167/11 67/317/11
f 84/108/11 83/253/11 51/187/11
f 67/317/11 24/109/11 95/168/11
l 26 57
l 24 53
l 26 42
